/* XPM */
static char * dot[] = {
"32 32 7 1",
",	c None	s None",
" 	c white",
".	c black",
"X	c lemon chiffon",
"o	c tan",
"O	c gray50",
"+	c slate gray",
",,,,..................,,,,,,,,,,",
",,,,.XXXXXXXXXXXXXXXX..,,,,,,,,,",
",,,,.XXXXXXXXXXXXXXXX.o.,,,,,,,,",
",,,,.XXXXXXXXXXXXXXXX.oo.,,,,,,,",
",,,,.XXO+O+O+O+O+O+OX.ooo.,,,,,,",
",,,,.XX+O+O+O+O+O+O+X.oooo.,,,,,",
",,,,.XXO+O+O+O+O+O+OX.ooooo.,,,,",
",,,,.XX+O+O+O+O+O+O+X.......O,,,",
",,,,.XXO+O+O+O+O+O+OXXooooo.O,,,",
",,,,.XX+O+O+O+O+O+O+O+O+O+o.O,,,",
",,,,.XXO+O+O+O+O+O+O+O+O+OX.O,,,",
",,,,.XX+O+O+O+O+O+O+O+O+O+X.O,,,",
",,,,.XXO+O+O+O+O+O+O+O+O+OX.O,,,",
",,,,.XX+O+O+O+O+O+O+O+O+O+X.O,,,",
",,,,.XXO+O+O+O+O+O+O+O+O+OX.O,,,",
",,,,.XX+O+O+O+O+O+O+O+O+O+X.O,,,",
",,,,.XXO+O+O+O+O+O+O+O+O+OX.O,,,",
",,,,.XX+O+O+O+O+O+O+X+X+O+X.O,,,",
",,,,.XXO+O+O+O+O+OXXXXXX+OX.O,,,",
",,,,.XX+O+O+O+O+XXX....XX+X.O,,,",
",,,,.XXO+O+O+O+OXX......XXX.O,,,",
",,,,.XX+O+O+O+O+X...XX...XX.O,,,",
",,,,.XXO+O+O+O+OXXXXXX...XX.O,,,",
",,,,.XX+O+O+O+O+XX.......XX.O,,,",
",,,,.XXO+O+O+O+OX....X...XX.O,,,",
",,,,.XX+O+O+OXXXX...XX...XX.O,,,",
",,,,.XXO+O+O+X..X...X....XX.O,,,",
",,,,.XXXXXXXXX..X........XX.O,,,",
",,,,.XXXXXXXXX..XX....X..XX.O,,,",
",,,,.XXXXXXXXXXXXXXXXXXXXXX.O,,,",
",,,,........................O,,,",
",,,,,OOOOOOOOOOOOOOOOOOOOOOOO,,,"};
