/* XPM */
static char * binary[] = {
"32 32 7 1",
" 	c None	s None",
"`	c black",
"a	c tan",
"b	c dodger blue",
"c	c gray50",
"d	c white",
"e	c lemon chiffon",
"    ``````````````````          ",
"    `eeeeeeeeeeeeeeee``         ",
"    `eeeeeeeeeeeeeeee`a`        ",
"    `eeeeeeeeeeeeeeee`aa`       ",
"    `eeeeeeeeeeeeeeee`aaa`      ",
"    `eeeeeeeeeeeeeeee`aaaa`     ",
"    `eeeeeeeeeeeeeeee```````    ",
"    `eeeeeeeeeeeeeeeeeaaaaa`c   ",
"    `eeeebbeeeebeeeebeeaaaa`c   ",
"    `eeebeebeebbeeebbeeeeee`c   ",
"    `eeebeebeeebeeeebeeeeee`c   ",
"    `eeeebbeeebbbeebbbeeeee`c   ",
"    `eeeeeeeeeeeeeeeeeeeeee`c   ",
"    `eeeeeeeeeeeeeeeeeeeeee`c   ",
"    `eeeebeeeebbeeeebbeeeee`c   ",
"    `eeebbeeebeebeebeebeeee`c   ",
"    `eeeebeeebeebeebeebeeee`c   ",
"    `eeebbbeeebbeeeebbeeeee`c   ",
"    `eeeeeeeeeeeeeeeeeeeeee`c   ",
"    `eeeeeeeeeeeeeeeeeeeeee`c   ",
"    `eeeebbeeeebeeeebbeeeee`c   ",
"    `eeebeebeebbeeebeebeeee`c   ",
"    `eeebeebeeebeeebeebeeee`c   ",
"    `eeeebbeeebbbeeebbeeeee`c   ",
"    `eeeeeeeeeeeeeeeeeeeeee`c   ",
"    `eeeeeeeeeeeeeeeeeeeeee`c   ",
"    `eeeeeeeeeeeeeeeeeeeeee`c   ",
"    `eeeeeeeeeeeeeeeeeeeeee`c   ",
"    `eeeeeeeeeeeeeeeeeeeeee`c   ",
"    `eeeeeeeeeeeeeeeeeeeeee`c   ",
"    ````````````````````````c   ",
"     cccccccccccccccccccccccc   "};
