/* XPM */
static char * bitmap_xpm[] = {
/* width height ncolors chars_per_pixel */
"48 48 3 1",
/* colors */
" 	s None	c None",
".	c black",
"X	c white",
/* pixels */
"                                                ",
"                                                ",
"                                                ",
"                                                ",
"                                                ",
"                                                ",
"                                                ",
"                                                ",
"         ...............................        ",
"         .XXXXXXXXXXXXXXXXXXXXXXXXXXXXX..       ",
"         .XXXXXXXXXXXXXXXXXXXXXXXXXXXXX..       ",
"         ................................       ",
"         .XX.XXXX.XXXX.XXXX.XXXX.XXXX.X..       ",
"         .XX.XXXX.XXXX.XXXX.XXXX.XXXX.X..       ",
"         .XX.XXXX.XXXX.XXXX.XXXX.XXXX.X..       ",
"         .XX.XXXX.XXXX.XXXX.XXXX.XXXX.X..       ",
"         ................................       ",
"         .XX.XXXX......XXXX.XXXX.XXXX.X..       ",
"         .XX.XXXX......XXXX.XXXX.XXXX.X..       ",
"         .XX.XXXX......XXXX.XXXX.XXXX.X..       ",
"         .XX.XXXX......XXXX.XXXX.XXXX.X..       ",
"         ................................       ",
"         .XX.XXXX.XXXX......XXXX......X..       ",
"         .XX.XXXX.XXXX......XXXX......X..       ",
"         .XX.XXXX.XXXX......XXXX......X..       ",
"         .XX.XXXX.XXXX......XXXX......X..       ",
"         ................................       ",
"         .XX......XXXX.XXXX.XXXX.XXXX.X..       ",
"         .XX......XXXX.XXXX.XXXX.XXXX.X..       ",
"         .XX......XXXX.XXXX.XXXX.XXXX.X..       ",
"         .XX......XXXX.XXXX.XXXX.XXXX.X..       ",
"         ................................       ",
"         .XX.XXXX.XXXX.XXXX.XXXX.XXXX.X..       ",
"         .XX.XXXX.XXXX.XXXX.XXXX.XXXX.X..       ",
"         .XX.XXXX.XXXX.XXXX.XXXX.XXXX.X..       ",
"         .XXXXXXXXXXXXXXXXXXXXXXXXXXXXX..       ",
"         ................................       ",
"          ...............................       ",
"                                                ",
"                                                ",
"                                                ",
"                                                ",
"                                                ",
"                                                ",
"                                                ",
"                                                ",
"                                                ",
"                                                "};
