/* XPM */
static char *blackhole_xpm[] = {
"32 32 5 1",
" 	s none c none",
".	c black",
"X	c white",
"o	c gray",
"O	c black",
"    ...................         ",
"    .XXXXXXXXXXXXXXXXX..        ",
"    .XXXXXXXXXXXXXXXXX.o.       ",
"    .XXXXXXXXXXXXXXXXX.oo.      ",
"    .XXXXXXXXXXXXXXXXX.ooo.     ",
"    .XXXXXXXXXXXXXXXXX.oooo.    ",
"    .XXXXXXXXXXXXXXXXX......O   ",
"    .XXXXXXXXXXXXXXXXXXoooo.O   ",
"    .XXXXXXXXXXXXXXXXXXXooo.O   ",
"    .XXXXXXXXXXXXXXXXXXXXXX.O   ",
"    ....XXXX.......XXXX.....O   ",
"    .XXX.XX.XXXXXXX.XX.XXXX.O   ",
"    ...XX..XX.....XX..XX....O   ",
"    .X........XXX........XX.O   ",
"    ..XXXXXXXX.X.XXXXXXXX.X.O   ",
"    ..XXXXXXXX.X.XXXXXXXX.X.O   ",
"    .X........XXX........XX.O   ",
"    ...XX..XX.....XX..XX....O   ",
"    .XXX.XX.XXXXXXX.XX.XXXX.O   ",
"    ....XXXX.......XXXX.....O   ",
"    .XXXXXXXXXXXXXXXXXXXXXX.O   ",
"    .XXXXXXXXXXXXXXXXXXXXXX.O   ",
"    .XXXXXXXXXXXXXXXXXXXXXX.O   ",
"    .XXXXoXXXoXoXXoXoXXoXXX.O   ",
"    .XXXXoXXXoXooXoXoXoXXXX.O   ",
"    .XXXXoXXXoXoXooXooXXXXX.O   ",
"    .XXXXoXXXoXoXXoXoXoXXXX.O   ",
"    .XXXXoooXoXoXXoXoXXoXXX.O   ",
"    .XXXXXXXXXXXXXXXXXXXXXX.O   ",
"    .XXXXXXXXXXXXXXXXXXXXXX.O   ",
"    ........................O   ",
"     OOOOOOOOOOOOOOOOOOOOOOOO   "};
