/* XPM */
static char * bug[] = {
"32 32 5 1",
" 	c None s None",
".	c black",
"X	c lemon chiffon",
"o	c tan",
"O	c gray50",
"    .................           ",
"    .XXXXXXXXXXXXXX.o.          ",
"    .XXXXXXXXXXXXXX.oo.         ",
"    .XXXXXXXXXXXXXX.ooo.        ",
"    .XXXXXXXXXXXXXX.oooo.       ",
"    .XXXXXXXXXXXXXX.ooooo.      ",
"    .XXXXXXXXXXXXXX.oooooo.     ",
"    .XXXXXXXXXXXXXX.........O   ",
"    .XXXXXXXXXXXXXXXooooooo.O   ",
"    .XXXXXXXXXXXXXXXooooooo.O   ",
"    .XXXXXXXXXXXXXXXXXXXXXX.O   ",
"    .XXXXXXXXXXXXXXXXXXXXXX.O   ",
"    .XXXXXXXXXXXXXXXXXXXXXX.O   ",
"    .XXXXXXXXXXXXXXXXXXXXXX.O   ",
"    .XXXXXXXXXXXXXXXXXXXXXX.O   ",
"    .XXXXXXXX.XX..XXXXXXXXX.O   ",
"    .XXXXX.XX.X....XXXXXXXX.O   ",
"    .XXXXXX.X..X...XXXXXXXX.O   ",
"    .XXXXXXX......XXXXXXXXX.O   ",
"    .XXX...X.....XXXXXXXXXX.O   ",
"    .XXXXX..X......XXXXXXXX.O   ",
"    .XXXX.X.....XXXXXXXXXXX.O   ",
"    .XXX......XX.XXXXXXXXXX.O   ",
"    .XXX......XXX.XXXXXXXXX.O   ",
"    .XXX.......XXXXXXXXXXXX.O   ",
"    .XXX.....X.XXXXXXXXXXXX.O   ",
"    .XXXX...XX.XXXXXXXXXXXX.O   ",
"    .XXXXXXXXXXXXXXXXXXXXXX.O   ",
"    .XXXXXXXXXXXXXXXXXXXXXX.O   ",
"    .XXXXXXXXXXXXXXXXXXXXXX.O   ",
"    ........................O   ",
"     OOOOOOOOOOOOOOOOOOOOOOOO   "};
