/* XPM */
static char * calc_xpm[] = {
/* width height ncolors chars_per_pixel */
"32 32 6 1",
/* colors */
" 	s None	c None",
".	c white",
"X	c gray",
"o	c black",
"O	c black",
"+	c red",
/* pixels */
"                                ",
"                                ",
"     ......................X    ",
"     .XXXXXXXXXXXXXXXXXXXXXo    ",
"     .ooooooooooooooooooooXo    ",
"     .oOOOOOOOOOOOOOOOOOOO.o    ",
"     .oOOOOOOOO+O++O+O++OO.o    ",
"     .oOOOOOOOO+OO+O+O++OO.o    ",
"     .oOOOOOOOOOOOOOOOOOOO.o    ",
"     .X....................o    ",
"     .XXXXXXXXXXXXXXXXXXXXXo    ",
"     .X....XXX....XXX....XXo    ",
"     .X.XXOoXX.XOXoXX.XOXoXo    ",
"     .X.XOXoXX.XOXoXX.XOXoXo    ",
"     .XXooooXXXooooXXXooooXo    ",
"     .XXXXXXXXXXXXXXXXXXXXXo    ",
"     .X....XXX....XXX....XXo    ",
"     .X.XXXoXX.XXXoXX.XOXoXo    ",
"     .X.XOOoXX.XOXoXX.OXXoXo    ",
"     .XXooooXXXooooXXXooooXo    ",
"     .XXXXXXXXXXXXXXXXXXXXXo    ",
"     .X....XXX....XXX....XXo    ",
"     .X.XXXoXX.XOXoXX.XOXoXo    ",
"     .X.XOXoXX.XXOoXX.XOXoXo    ",
"     .XXooooXXXooooXXXooooXo    ",
"     .XXXXXXXXXXXXXXXXXXXXXo    ",
"     .X....XXX....XXX....XXo    ",
"     .X.XXXoXX.XOXoXX.XOXoXo    ",
"     .X.XOXoXX.XOXoXX.XXOoXo    ",
"     .XXooooXXXooooXXXooooXo    ",
"     .XXXXXXXXXXXXXXXXXXXXXo    ",
"     Xoooooooooooooooooooooo    "};
