/* XPM */
static char * calendar_xpm[] = {
"64 54 5 1 0 0",
" 	s None	c None",
".	c black",
"X	c gold",
"o	c white",
"O	c red",
"                                                                ",
"                                                                ",
"                                                                ",
"                    ..                ..                        ",
"                   .X..              .XX.                       ",
"                   .XX.              .X..                       ",
"                   .X..              .XX.                       ",
"       .............XX................X..............           ",
"       .ooooooooooo.X..oo.o.ooooooooo.XX.oo.o.oooooo.           ",
"       .ooooooooooo.XX.o.o.oooooooooo.X..o.o.ooooooo.           ",
"       .ooooooooooo.X...o.o.ooooooooo.XX..o.o.oooooo.. .        ",
"       .ooooooooooo.XX.o.o.oooooooooo.X..o.o.ooooooo.o.o.       ",
"       .oooooooooo..X...o.oooooooooo..XX..o.oooooooo..o.        ",
"       .oooooooooo..XX...ooooooooooo..X....ooooooooo.o.o.       ",
"       .oooooooooo......oooooooooooo......oooooooooo..o.        ",
"       .ooooooooooo....oooooooooooooo....ooooooooooo.o.o.       ",
"       .oooooooooooooooooooooooooooooooooooooooooooo..o.        ",
"       .oooooooooooooooooooooooooooooooooooooooooooo.o.o.       ",
"       .ooooooooooooooooooooooOOOOOooooooooooooooooo..o.        ",
"       .ooooooooooooooooooooOOOOOOOooooooooooooooooo.o.o.       ",
"       .ooooooooooooooooooOOOOOOOOOooooooooooooooooo..o.        ",
"       .ooooooooooooooooooOOOOOOOOOooooooooooooooooo.o.o.       ",
"       .ooooooooooooooooooOOOOOOOOOooooooooooooooooo..o.        ",
"       .ooooooooooooooooooOOOOOOOOOooooooooooooooooo.o.o.       ",
"       .ooooooooooooooooooooooOOOOOooooooooooooooooo..o.        ",
"       .ooooooooooooooooooooooOOOOOooooooooooooooooo.o.o.       ",
"       .ooooooooooooooooooooooOOOOOooooooooooooooooo..o.        ",
"       .ooooooooooooooooooooooOOOOOooooooooooooooooo.o.o.       ",
"       .ooooooooooooooooooooooOOOOOooooooooooooooooo..o.        ",
"       .ooooooooooooooooooooooOOOOOooooooooooooooooo.o.o.       ",
"       .ooooooooooooooooooooooOOOOOooooooooooooooooo..o.        ",
"       .ooooooooooooooooooooooOOOOOooooooooooooooooo.o.o.       ",
"       .ooooooooooooooooooooooOOOOOooooooooooooooooo..o.        ",
"       .ooooooooooooooooooooooOOOOOooooooooooooooooo.o.o.       ",
"       .ooooooooooooooooooooooOOOOOooooooooooooooooo..o.        ",
"       .ooooooooooooooooooooooOOOOOooooooooooooooooo.o.o.       ",
"       ..........oooooooooooooOOOOOooooooooooooooooo..o.        ",
"       ..ooooooo.oooooooooooooOOOOOooooooooooooooooo.o.o.       ",
"       .o.oooooo.oooooooooooooOOOOOooooooooooooooooo..o.        ",
"       .oo.ooooo.oooooooooooooOOOOOooooooooooooooooo.o.o.       ",
"       .ooo.oooo.ooooooooooooooooooooooooooooooooooo..o.        ",
"       .oooo.ooo.ooooooooooooooooooooooooooooooooooo.o.o.       ",
"       .ooooo.oo.ooooooooooooooooooooooooooooooooooo..o.        ",
"       .oooooo.o.ooooooooooooooooooooooooooooooooooo.o.o.       ",
"       .ooooooo..ooooooooooooooooooooooooooooooooooo..o.        ",
"       ..............................................o.o.       ",
"         .o.o.o.o.o.o.o.o.o.o.o.o.o.o.o.o.o.o.o.o.o.o.o.        ",
"          .o.o.o.o.o.o.o.o.o.o.o.o.o.o.o.o.o.o.o.o.o.o.o.       ",
"         .o.o.o.o.o.o.o.o.o.o.o.o.o.o.o.o.o.o.o.o.o.o.o.        ",
"          . . . . . . . . . . . . . . . . . . . . . . . .       ",
"                                                                ",
"                                                                ",
"                                                                ",
"                                                                "};
