/* XPM */
static char * cdrom_view_xpm[] = {
/* width height ncolors chars_per_pixel */
"64 38 12 1",
/* colors */
" 	s None	c None",
".	c grey",
"X	c navy blue",
"o	c slate grey",
"O	c violet",
"+	c gainsboro",
"@	c yellow",
"#	c white",
"$	c orange",
"%	c black",
"&	c sky blue",
"*	c cyan",
/* pixels */
"                      .......................................X  ",
"                      ......................................XX  ",
"                      ..ooooooooooooooooooooooooooooooooooooXX  ",
"                      ..oooooooooooooooo.....oooooooooooooooXX  ",
"                      ..ooooooooooooo...OOOOO...ooooooooooooXX  ",
"                      ..ooooooooooo..+OOOOOOOOOO..ooooooooooXX  ",
"                    @@o.ooooooooo..++++OOOOOOOOOOO..ooooooooXX  ",
"         @@@o     @@ooo.oooooooo.++++++OOOOOOOOOOOOO.oooooooXX  ",
"        @@oo      @o##..ooooooo.+++++++OOOOOOOOOOOOOO.ooooooXX  ",
"       @@o        @o##..oooooo.+++++++++OOOOOOOOOOOOOO.oooooXX  ",
"       @o         @o##..oooooo.+++++++++OOOOOOOOOOOOOO.oooooXX  ",
"      o@o         $@##..ooooo.+++++++++++OOOOOOOOOOOOOO.ooooXX  ",
"      o@o         o$$@..ooooo.O++++++++++OOOOOOOOOOOOOO.ooooXX  ",
"      o$@          oo$@@oooo.OOOO++++++++###OOOOOOOOOOOO.oooXX  ",
"      o$@            o$$@ooo.OOOOOO++++..+OO##OOOOOOOOOO.oooXX  ",
"       o@             oo$$@o.OOOOOOOO+..+%%%OO#OOOOOOOOO.oooXX  ",
"       o@             ..oo$@@OOOO@@@@@#+%ooo%O#OOOOOOOOOO.ooXX  ",
"       o$             ..ooo$$@OO@@&&&@@%ooooo%O#OOOOOOOOO.ooXX  ",
"       o$             ..ooooo$@@@&###&&@ooooo%O#OOOOOOOOO.%oXX  ",
"       o$@            ..ooo.Oo@@@&&&#&&@@oooo%O#OOOOOOOOO.%oXX  ",
"       o$@      @@@@@ ..ooo.Oo@&&###&&#*@ooo%+++OOOOOOOOO.%oXX  ",
"       o$@    @@&&&&&@@.oooo.@&&&&&###*#@@%%+++.+++OOOOO.%%oXX  ",
"       o$@   @@&&###&&@@ooooo@&&&&&&&##&&@OO+...+++++++O.%%oXX  ",
"        o@   @&&&&&##&&@@oooo@&&&&&&&&#@&@##O+++++++++++.%ooXX  ",
"        o$  @@&####**#&&@@ooo@&&&&&&&&&&@@@OO++++++++++.%%ooXX  ",
"        o$@ @&&&&&##**#&&@ooo@&&&&&&&&&&&&@OOO+++++++++.%oooXX  ",
"        o$@ @&&&&&&&##&&&@@o@@&&&&&&&&&&@@@OOO++++++++.%%oooXX  ",
"        o$@ @&&&&&&&&#&&&&@o@&&&&&&&@@@@oooOOO++++++++.%ooooXX  ",
"        o$@ @&&&&&&&&&&&&&@o@&&&@@@@oooooooOOOO++++++.%%ooooXX  ",
"        o$@@@&&&&&&&&&&&&&&@@@@oooooooooOOOOOOO+++++.%%oooooXX  ",
"        oo$@&&&&&&&&&&&@@@@oooooooooOOOOOOOOOOOO++..%%ooooooXX  ",
"         o$@&&&&&&&&@@ooooooooooo%%..OOOOOOOOOOO..%%%oooooooXX  ",
"         o$@&&&@@oooooooooooooooooo%%...OOOOO...%%%%ooooooooXX  ",
"         o$@@ooooooooo..ooooooooooooo%%%.....%%%%%ooooooooooXX  ",
"         oooooooo     ..oooooooooooooooo%%%%%%%oooooooooooooXX  ",
"          ooo         ..ooooooooooooooooooooooooooooooooooooXX  ",
"                      ..XXXXXXXXXXXXXXXXXXXXXXXXXXXXXXXXXXXXXX  ",
"                      .XXXXXXXXXXXXXXXXXXXXXXXXXXXXXXXXXXXXXXX  "};
