/* XPM */
static char * clipboard_xpm[] = {
/* width height ncolors chars_per_pixel */
"32 32 6 1",
/* colors */
" 	s None	c None",
".	c black m black",
"X	c black",
"o	c gray",
"O	c lightgray",
"+	c white",
/* pixels */
"                                ",
"              ....              ",
"              .XX.              ",
"              .XX.              ",
"       ..................       ",
"      .oOoO...o...o.. OoO.      ",
"     .oOOXOOOOoOOOoOOoXOoO.     ",
"     .OoOXXXXXXXXXXXXXXoOO.     ",
"     .oOoOoOOX+++++++XoOOO.     ",
"     .OOOoOoX+++++++++XoOo.     ",
"     .oOoOOX+++++++++++XoO.     ",
"     .OoOOX+++++++++++++Xo.     ",
"     .oOOX+++++++++++++XoO.     ",
"     .OoX+++++++++++++XoOO.     ",
"     .oX+++++++++++++XoOOO.     ",
"     .OoX+++++++++++XoOOOo.     ",
"     .oOoX+++++++++XoOOOoO.     ",
"     .OOOoX+++++++XoOOOoOo.     ",
"     .oOoOoX+++++XoOOOoOoO.     ",
"     .OoOOOoX+++XoOOOoOoOo.     ",
"     .oOOOoOoX+XoOOOoOoOoO.     ",
"     .OoOoOOOoXoOOOoOoOoOo.     ",
"     .oOOOoOoOOOoOoOoOoOoO.     ",
"     .OoOoOOOoOoOoOoOoOoOo.     ",
"     .oOOOoOoOOOoOOOoOoOOO.     ",
"     .OoOoOOOoOoOOOoOOOoOo.     ",
"     .oOOOoOoOOOoOoOoOoOOO.     ",
"     .OoOoOOOoOoOOOoOOOoOo.     ",
"     .oOOOoOoOOOoOoOOOoOoO.     ",
"     .OoOoOOOoOoOOOoOoOoOo.     ",
"      .OOOoOoOOOoOoOOOoOo.      ",
"       ..................       "};
