/* XPM */
static char * compressed[] = {
"32 32 5 1",
" 	c None s None",
".	c black",
"X	c lemon chiffon",
"o	c tan",
"O	c gray50",
"    ..................          ",
"    .XXXXXXXXXXXXXXXX..         ",
"    .XXXXXXXXXXXXXXXX.o.        ",
"    .XXXXXXXXX....XXX.oo.       ",
"    .XXXXXXXXXXX...XX.ooo.      ",
"    .XXXXXXXX.....XXX.oooo.     ",
"    .XXXXXXXXXXX...XX.ooooo.    ",
"    .XXXXXXXX.....XXX.......O   ",
"    .XXXXXXXXXXX...XXXooooo.O   ",
"    .XXXXXXXX.....XXXXooooo.O   ",
"    .XXXXXX..........XXXXXX.O   ",
"    .XXXXX.XX.XXXX.XX.XXXXX.O   ",
"    .XXXXX.XX.XXXX.XX.XXXXX.O   ",
"    .XXXXX............XXXXX.O   ",
"    .XXXX.X.X.X........XXXX.O   ",
"    .XXX................XXX.O   ",
"    .XXX................XXX.O   ",
"    .XXX................XXX.O   ",
"    .XXXX..............XXXX.O   ",
"    .XXXXX.XX.XXXX.XX.XXXXX.O   ",
"    .XXXXX.XX.XXXX.XX.XXXXX.O   ",
"    .XXXXXX..........XXXXXX.O   ",
"    .XXXXXXXXXXX...XXXXXXXX.O   ",
"    .XXXXXXXX.....XXXXXXXXX.O   ",
"    .XXXXXXXXXXX...XXXXXXXX.O   ",
"    .XXXXXXXX.....XXXXXXXXX.O   ",
"    .XXXXXXXXXXX...XXXXXXXX.O   ",
"    .XXXXXXXXX....XXXXXXXXX.O   ",
"    .XXXXXXXXXXXXXXXXXXXXXX.O   ",
"    .XXXXXXXXXXXXXXXXXXXXXX.O   ",
"    ........................O   ",
"     OOOOOOOOOOOOOOOOOOOOOOOO   "};
