/* XPM */
static char * core[] = {
"32 32 9 1",
",	c None	s None",
" 	c white",
".	c black",
"X	c lemon chiffon",
"o	c tan",
"O	c red",
"+	c yellow",
"@	c gray50",
"#	c slate grey",
",,,,..................,,,,,,,,,,",
",,,,.XXXXXXXXXXXXXXXX..,,,,,,,,,",
",,,,.XXXXXXXXXXXXXXXX.o.,,,,,,,,",
",,,,.XXXXXXXXXXXXXXXX.oo.,,,,,,,",
",,,,.XXXXXXXXXXXXXXXX.ooo.,,,,,,",
",,,,.XXXXXXXXOXXXXXXX.oooo.,,,,,",
",,,,.XXXXXOXXOXOXXXXX.ooooo.,,,,",
",,,,.XXXXXXO+O+O+XXXX.......@,,,",
",,,,.XXXXX+++++++XXXXXooooo.@,,,",
",,,,.XXXXOOO+++OOOOXXXXoooo.@,,,",
",,,,.XXXXX++++++++XXXXXXXXX.@,,,",
",,,,.XXXXXXO+OXOOOXXXXXXXXX.@,,,",
",,,,.XXXXXOX+OXO..XXXXXXXXX.@,,,",
",,,,.XXXXXO+XOX...XXXXXXXXX.@,,,",
",,,,.XXXXXXXXX....XXXXXXXXX.@,,,",
",,,,.XXXXXXX........XXXXXXX.@,,,",
",,,,.XXXXX............XXXXX.@,,,",
",,,,.XXXXX.@..........XXXXX.@,,,",
",,,,.XXXX.#@@..........XXXX.@,,,",
",,,,.XXXX.  @#.........XXXX.@,,,",
",,,,.XXXX.  @##........XXXX.@,,,",
",,,,.XXXX. @@#.........XXXX.@,,,",
",,,,.XXXX.@@##.........XXXX.@,,,",
",,,,.XXXXX.##.........XXXXX.@,,,",
",,,,.XXXXX............XXXXX.@,,,",
",,,,.XXXXXX..........XXXXXX.@,,,",
",,,,.XXXXXXX........XXXXXXX.@,,,",
",,,,.XXXXXXXXX....XXXXXXXXX.@,,,",
",,,,.XXXXXXXXXXXXXXXXXXXXXX.@,,,",
",,,,.XXXXXXXXXXXXXXXXXXXXXX.@,,,",
",,,,........................@,,,",
",,,,,@@@@@@@@@@@@@@@@@@@@@@@@,,,"};
