/* XPM */
static char * draw_xpm[] = {
/* width height ncolors chars_per_pixel */
"32 32 4 1",
/* colors */
" 	c #FFF",
".	c black",
"X	c white",
"o	c gray",
/* pixels */
"    ..................          ",
"    .XXXXXXXXXXXXXXXX..         ",
"    .XXXXXXXXXXXXXXXX.o.        ",
"    .XXXXXXXXXXXXXXXX.oo.       ",
"    .XXXXXXXXXXXXX.XX.ooo.      ",
"    .XXXXXXXXXXXX.XXX.oooo.     ",
"    .XXXXXXXXXXX.XXXX.ooooo.    ",
"    .XXXXXXXXXX.XXXXX........   ",
"    .XXXXXXXXX.XXXXXXXooooo..   ",
"    .X....XXX.XXXXXXXXXoooo..   ",
"    .XXXXX..XXXXXXXXXXXXXXX..   ",
"    .XXXXXX..XXXXXXXXXXXXXX..   ",
"    .XXXXX.X.XXXXXXXXXXXXXX..   ",
"    .XXXX.XXX.XXXXXXXXXXXXX..   ",
"    .X.X.XXXX.XXXXXXXXXXXXX..   ",
"    .XX.XXXXX.XXXXXXXXXX.XX..   ",
"    .X.X.XXXX.XXXX.XXXXX.XX..   ",
"    .XXXX.XXX.XXXX...XX..XX..   ",
"    .XXXXX.X.XXXXX.XX..X.XX..   ",
"    .XXXXXX..XXXXX.XXXXX.XX..   ",
"    .XXXXX..XXXXXX.XXXX.XXX..   ",
"    .X....XXX.XXX.XXXXX..XX..   ",
"    .XXXXXXXXX.XX.XXXX..XXX..   ",
"    .XXXXXXXXXXX.XXXX.. .XX..   ",
"    .XXXXXXXXXX.XXX... .XXX..   ",
"    .XXXXXXXXX.XX.. . . .XX..   ",
"    .XXXXXXX.. ... . . .XXX..   ",
"    .XXX.....X.X.X.X.X.X.XX..   ",
"    .XXXXXXXXXXXXXXXXXXXXXX..   ",
"    .XXXXXXXXXXXXXXXXXXXXXX..   ",
"    .........................   ",
"     ........................   "};
