/* XPM */
static char * edit_xpm[] = {
"48 48 4 1",
" 	s None	c None",
".	c black",
"X	c yellow",
"o	c white",
"                                                ",
"                                                ",
"                                            .   ",
" ...........................................X   ",
" .oooooooooooooooooooooooooooooooooooooooo.XX   ",
" .ooooooooooooooooooooooooooooooooooooooo.XXX   ",
" .oooooooooooooooooooooooooooooooooooooo.XXXX   ",
" .ooooooooooooooooooooooooooooooooooooo.XXXXX   ",
" .oooooooooooooooooooooooooooooooooooo.XXXXXX   ",
" .ooo..o....oo.....o.....o.....o....o.XXXXXXX   ",
" .oooooooooooooooooooooooooooooooooo.XXXXXXXX   ",
" .ooo.......o..o..........ooooooooo.XXXXXXXXX   ",
" .oooooooooooooooooooooooooooooooo.XXXXXXXXX.   ",
" .ooo.....o...........o........oo.XXXXXXXXX..   ",
" .oooooooooooooooooooooooooooooo.XXXXXXXXX...   ",
" .oooooo..........o.........ooo.XXXXXXXXX....   ",
" .oooooooooooooooooooooooooooo.XXXXXXXXX.....   ",
" .ooo................o.....oo.XXXXXXXXX......   ",
" .oooooooooooooooooooooooooo.XXXXXXXXX.......   ",
" .ooo..o...o...........o.oo.XXXXXXXXX........   ",
" .oooooooooooooooooooooooo.XXXXXXXXX.........   ",
" .ooo.......o.ooo..oo..oo.XXXXXXXXX..........   ",
" .oooooooooooooooooooooo.XXXXXXXXX.......o...   ",
" .ooo..o.....o.....o.oo.XXXXXXXXX.......oo...   ",
" .oooooooooooooooooooo.XXXXXXXXX.......ooo...   ",
" .ooo................o.oXXXXXXX.......o.oo...   ",
" .ooooooooooooooooooo.oooXXXXX.......ooooo...   ",
" .ooo..........oo..oo.oooooXX.......oooooo...   ",
" .oooooooooooooooooo.oooooooX.oo...ooooooo...   ",
" .ooooooooo..o....oo.ooooooo.o.o..oooooooo...   ",
" .ooooooooooooooooo.ooooooo.o....ooooooooo...   ",
" .ooo..........o.oo.oooooo.o....oo...ooooo...   ",
" .oooooooooooooooo.oooooo.....oooooooooooo...   ",
" .ooo....o......oo.ooooo....oooooooooooooo...   ",
" .ooooooooooooooo.oooo....oooooooooooooooo...   ",
" .ooo...o.....oo...o....oooooooooooooooooo...   ",
" .oooooooooooooo......oooooooooooooooooooo...   ",
" .ooooooooo...o.....ooo......o.......ooooo...   ",
" .ooooooooooooo...oooooooooooooooooooooooo...   ",
" .ooo.o......o..........o..o...o.......ooo...   ",
" .oooooooooooooooooooooooooooooooooooooooo...   ",
" .oooooooooooooooooooooooooooooooooooooooo...   ",
" .oooooooooooooooooooooooooooooooooooooooo...   ",
" .oooooooooooooooooooooooooooooooooooooooo...   ",
" ............................................   ",
"  ...........................................   ",
"   ..........................................   ",
"                                                "};
