/* XPM */
static char * editor_xpm[] = {
"64 56 5 1",
" 	c white",
".	s none c none",
"X	c #BEFBBEFBBEFB",
"o	c #C30B618575D6",
"O	c black",
"................................................................",
"................................................................",
"................................................................",
"................................................................",
"................................................................",
"................................................................",
".............                                     X.............",
"............. ooooooooooooooooooooooooooooooooooooO.............",
"............. ooooooooooooooooooooooooooooooooooooO.............",
"............. ooo    o    o o   ooooooooooooooooooO.............",
"............. ooooooooooooooooooooooooooooooooooooO.............",
"............. oOOOOOOOOOOOOOOOOOOOOOOOOOOOOOOOOOOoO.............",
"............. o                                  oO.............",
"............. o                                  oO.............",
"............. o   OO OOO O                       oO.............",
"............. o                                  oO.............",
"............. o       OOOOOOOO OOOOO OOO OOOOO   oO.............",
"............. o                                  oO.............",
"............. o       OOOOO OOOO  O OOOO OOO     oO.............",
"............. o                                  oO.............",
"............. o                                  oO.............",
"............. o   OO OOOOO OOO                   oO.............",
"............. o                                  oO.............",
"............. o       OOOOO OOO OOOO OO OOOOO    oO.............",
"............. o                                  oO.............",
"............. o       OOOOOO  O OOOOO  OOOO      oO.............",
"............. o                                  oO.............",
"............. o                                  oO.............",
"............. o   OOO O OOOO                     oO.............",
"............. o                                  oO.............",
"............. o       OO  OOOO O OOOO O OOO      oO.............",
"............. o                                  oO.............",
"............. o       OOOO O  OOOOO O  OO        oO.............",
"............. o                                  oO.............",
"............. o       OOOOO OOOO  O OOOO OOO     oO.............",
"............. o                                  oO.............",
"............. o                                  oO.............",
"............. o   OOO O OOOO OO                  oO.............",
"............. o                                  oO.............",
"............. o       OOOO O  OOOOO O  OO  OO    oO.............",
"............. o                                  oO.............",
"............. o                                  oO.............",
"............. o   OO O OOO                       oO.............",
"............. o                                  oO.............",
"............. o       O OOOO OOOO OOO OOO OOO    oO.............",
"............. o                                  oO.............",
"............. o                                  oO.............",
"............. o                                  oO.............",
"............. ooooooooooooooooooooooooooooooooooooO.............",
".............XOOOOOOOOOOOOOOOOOOOOOOOOOOOOOOOOOOOOO.............",
"................................................................",
"................................................................",
"................................................................",
"................................................................",
"................................................................",
"................................................................"};
