/* XPM */
static char * emacs_xpm[] = {
"64 38 11 1",
" 	s None	c None",
".	c gray",
"X	c white",
"o	c black",
"O	c black",
"+	c lightgray",
"@	c #c06077",
"#	c lightblue",
"$	c white",
"%	c gray",
"&	c white",
"                            .XXXXo......                        ",
"                           .XXXXXXXXXXX.......                  ",
"                           .XXOOXXXXXXXXXXXXX......             ",
"                          ..XXXXOOOOXXXXXXXXXXXXXo......        ",
"        ++++++++++++++++++.XXXXXXXXXOOOOXXXXXXXXXXXXXXXX..      ",
"       ++++++++++++++++++..XXX@@@XX@@X@XOO@@@XXX@@@XXX@@@X.     ",
"      ++++++++++++++++++o.XXX@XXX@X@X@X@XXXXX@O@XXX@X@XXX@X.    ",
"      ++++OOOOOOOOOOOOOO.XXXX@@@@@X@X@X@XX@@@@X@OOOXXX@@XX .    ",
"      +++OO############..XXXX@XXXXX@X@X@X@XXX@X@XXXOOOXX@XXX.   ",
"      +++O##XXXXXXXX###.XXXoo@XXX@X@X@X@X@XXX@X@XXX@X@XXX@X .   ",
"      +++O#XXXX#######.XXXXXXX@@@XX@XXX@XX@@@@XX@@@XXX@@@XX .   ",
"      +++O#XX########..XXXXXXXXXXOOXXXXXXXXOOXXXXXXXXXXXXX.X.   ",
"      +++O#XX########.XXXXXXXXXXXXXOOOOXXXXXXOOOXXXXXXXXX. ..   ",
"      +++O#X########..XXXXXXXXXXXXXXXXXOOOXXXXXXXXXXXXXX..  .   ",
"      +++O#X#######..XXXXooXXX@@@XX@@X@XXX@@@XXX@@@XXX@@@       ",
"      ++oo#########.XXXXXXXoo@XXX@X@X@X@XXXXX@X@XXX@X@X. @      ",
"      +o$$ooo#####..XXXooXXXX@@@@@X@X@X@XX@@@@X@XXXXXX@@        ",
"      o$$$$$$oooo#.XXXXXXoooo@XXXXX@X@X@X@XXX@X@XXXXXX. @       ",
"     o$$$$$$$$$$ooooXXXXXXXXX@OXX@X@X@X@X@XXX@X@XXX@X@   @      ",
"    o$$$$$$$$oooo$$oo   XXXXXX@@@XX@XXX@XX@@@@XX@@@X. @@@       ",
"   o$$$$$$$$$$$$oooo$%%  ooXXXXXXOOOXXXXOOOXXXXXXXX..           ",
"  o$$$$$$$$$$$$$$$$ooo%%XXXooXXXXXXXOOOXXXXOOOOXXX..            ",
" o$$$$$$$$$$$$$oooo$$$$ooo XXXXXXXXXXXXXXXXXXXXXXX.             ",
"o$$$$$$$$$$$$$$$$$$ooo$$%%oXXX@@@XX@@X@XXX@@@XXX@@@   @@@       ",
"$$$$$$$$$$$$$$$$$$$$$$oo$%%Xo@XXX@X@X@X@XXXXX@X@X. @ @   @      ",
"$$$$$$$$$$$$$$$$$$$$$$$ooo%XX@@@@@X@X@X@XX@@@@X@X.    @@        ",
"$$$$$$$$$$$$$$$$&&&&&&&$$ooXX@XXXXX@X@X@X@XXX@X@..      @       ",
"$$$$$$$$$$$$$$&&&ooooooooX%XX@XXX@X@X@X@X@XXX@X@   @ @   @      ",
"$$$$$$$$$$$$$$&&oXXXXXXoooo%X @@@XX@XXX@XX@@@@X.@@@   @@@       ",
"$$$$$$$$$$$$$$&&oXXXoooo$$$$%XXXXXXXXXXXXXXXXXo.                ",
"$$$$$$$$$$$$$$$$ooo&&$$$$$$%XXXXXXXXXXXXXXXXXX..                ",
"$$$$$$$$$$$$$$$$$$$&$$$$$o%XXXXXXXXXXXXXXXXXX..                 ",
"$$$$$$$$$$$$$$$$$$$$$$$ooXXXX @@@XX@@X@XXX@@@.  @@@   @@@       ",
"$$$$$$$$$$$$$$$$$$$$$ooXXXXXX@XXX@X@X@X@XXXX.@ @   @ @   @      ",
"$$$$$$$$$$$$$$$$$$$ooXXXXXXXX@@@@@X@X@X@XX@@@@ @      @@        ",
"$$$oooooooooooooooooXXXXXXXXX@XXXXX@X@X@X@.. @ @        @       ",
"$ooo               .....oXXXX@XXX@X@X@X@X@.  @ @   @ @   @      ",
"o                      ....oX @@@XX@XXX@X.@@@@  @@@   @@@       "};
