/* XPM */
static char * fig[] = {
"32 32 11 1",
",	c None	s None",
" 	c white",
".	c black",
"X	c lemon chiffon",
"o	c tan",
"O	c gray50",
"+	c sea green",
"@	c green",
"#	c peru",
"$	c sienna",
"%	c lime green",
",,,,..................,,,,,,,,,,",
",,,,.XXXXXXXXXXXXXXXX..,,,,,,,,,",
",,,,.X....X...XX..XXX.o.,,,,,,,,",
",,,,.XX.XXXX.XX.XXXXX.oo.,,,,,,,",
",,,,.XX...XX.XX.X..XX.ooo.,,,,,,",
",,,,.XX.XXXX.XX.XX.XX.oooo.,,,,,",
",,,,.X..XXX...XX..XXX.......,,,,",
",,,,.XXXXXXXXXXXXXXXXXooooo.O,,,",
",,,,.XXXXXXXXXXXXXXXXXXoo...O,,,",
",,,,.XXXXXXXXXXXXXXXXXX..+@.O,,,",
",,,,.XX...XXXXXXXXXXXX.+@@@.O,,,",
",,,,.X.###..XXXXXXXXX..@@@@.O,,,",
",,,,.X.$$###.XX......##@@@@.O,,,",
",,,,.XX...$$$..###$$$$@@@...O,,,",
",,,,.XXXXX..$$$$$$...@@@.@@.O,,,",
",,,,.XXXXXX.....X.+@@.@.@@@.O,,,",
",,,,.XXXXXXX.%.X.+@..@@@@@@.O,,,",
",,,,.XXXXXXX.%%X.@.@@@@.@.@.O,,,",
",,,,.XXXXXXX.%.X.@@...@.@@..O,,,",
",,,,.XXXXXX.%%.X.@.XX.@.@@@.O,,,",
",,,,.XXXXX.+%%.X...X.@@.@@@.O,,,",
",,,,.XXXX.++%%.XXXXX.@.@@@@.O,,,",
",,,,.XXX.+++%%%.XXX.@@@...@.O,,,",
",,,,.XX.+++%%%%.XX.@@@.XX.@.O,,,",
",,,,.XX.++%%%%%.XX.@@@.XX.@.O,,,",
",,,,.X.++...%%%%.X.@@@.X.@@.O,,,",
",,,,.X.+++%%%.%%.X.@@.XX.@@.O,,,",
",,,,.X.+++%%%%%%.X...XXX.@@.O,,,",
",,,,.X.+....%%%%.XXXXXXX.@@.O,,,",
",,,,.X.+++%%.%%%%.XXXXXX.@@.O,,,",
",,,,........................O,,,",
",,,,,OOOOOOOOOOOOOOOOOOOOOOOO,,,"};
