/* XPM */
static char * font[] = {
"32 32 5 1",
" 	c None s None",
".	c black",
"X	c lemon chiffon",
"o	c tan",
"O	c gray50",
"    ..................          ",
"    .XXXXXXXXXXXXXXXX..         ",
"    .XXXXXXXXXXXXXXXX.o.        ",
"    .XXXXXXXXXXXXXXXX.oo.       ",
"    .XXXXXXXXXXXXXXXX.ooo.      ",
"    .XXXXXXXXXX.XXXXX.oooo.     ",
"    .XXXXXXXXXXXXXXXX.ooooo.    ",
"    .XXXXXXXXXX.XXXXX.......O   ",
"    .XXXXXXXXXXXXXXXXXooooo.O   ",
"    .XXXX.X.X.X.X.X.X.ooooo.O   ",
"    .XXXXXXXXXXXXXXXX..XXXX.O   ",
"    .XXXX.XXXXX....XX.X.XXX.O   ",
"    .XXXXXXXXX..X..XX..XXXX.O   ",
"    .XXXX.XXX...XXXXX.X.XXX.O   ",
"    .XXXXXXXX...XXXXX..XXXX.O   ",
"    .XXXX.XXX...XXXXX.X.XXX.O   ",
"    .XXXXXXXX...XXXXX..XXXX.O   ",
"    .X..X.XX......XX..X...X.O   ",
"    .XXXXXXXX...XXXXX..XXXX.O   ",
"    .XXXX.XXX...XXXXX.X.XXX.O   ",
"    .XXXXXXXX...XXXXX..XXXX.O   ",
"    .XXXX.XXX...XXXXX.X.XXX.O   ",
"    .XXXXXXXX...XXXXX..XXXX.O   ",
"    .X..X.XX.....XX...X...X.O   ",
"    .XXXXXXXXXXXXXXXX..XXXX.O   ",
"    .XXXX.............X.XXX.O   ",
"    .XXXXX.X.X...X.X.X.XXXX.O   ",
"    .XXXXXX.X.X.X.X.X.X.XXX.O   ",
"    .XXXXX.X.X.X.X.X.X.XXXX.O   ",
"    .XXXXXXXXXXXXXXXXXXXXXX.O   ",
"    ........................O   ",
"     OOOOOOOOOOOOOOOOOOOOOOOO   "};
