/* XPM */
static char * framemaker[] = {
"32 32 5 1",
" 	c None s None",
".	c black",
"X	c lemon chiffon",
"o	c tan",
"O	c gray50",
"    ..................          ",
"    .XXXXXXXXXXXXXXXX..         ",
"    .XXXXXXXXXXXXXXXX.o.        ",
"    .XXXXXXXXXXXXXXXX.oo.       ",
"    .XXXXXXXXXXXXXXXX.ooo.      ",
"    .XXXXXXXXXXXXXXXX.oooo.     ",
"    .XXXXXXXXXXXXXXXX.ooooo.    ",
"    .XXXXXXXXXX..XXXX.......O   ",
"    .XXXXXXXXX....XXXXooooo.O   ",
"    .XXXXXXXX..XX..XXXooooo.O   ",
"    .XXXXXXX..X..X..XXXXXXX.O   ",
"    .XXXXXX..X....X..XXXXXX.O   ",
"    .XXXXX..X..XX..X..XXXXX.O   ",
"    .XXXX..X..X..X..X..XXXX.O   ",
"    .XXX..X..X....X..X..XXX.O   ",
"    .XXX.X..X..XX..X...XXXX.O   ",
"    .XXXX..X..XXXX....X.XXX.O   ",
"    .XXX..X..XXXXXX..X..XXX.O   ",
"    .XXX.X....XXXX..X..XXXX.O   ",
"    .XXXX...X..XX..X..X.XXX.O   ",
"    .XXX..X..X....X..X..XXX.O   ",
"    .XXXX..X..X..X..X..XXXX.O   ",
"    .XXXXX..X..XX..X..XXXXX.O   ",
"    .XXXXXX..X....X..XXXXXX.O   ",
"    .XXXXXXX..X..X..XXXXXXX.O   ",
"    .XXXXXXXX..XX..XXXXXXXX.O   ",
"    .XXXXXXXXX....XXXXXXXXX.O   ",
"    .XXXXXXXXXXXXXXXXXXXXXX.O   ",
"    .XXXXXXXXXXXXXXXXXXXXXX.O   ",
"    .XXXXXXXXXXXXXXXXXXXXXX.O   ",
"    ........................O   ",
"     OOOOOOOOOOOOOOOOOOOOOOOO   "};
