/* XPM */
static char * gif[] = {
"32 32 14 1",
",	c None	s None",
" 	c white",
".	c black",
"X	c cyan",
"o	c tan",
"O	c gray50",
"+	c slate grey",
"@	c sea green",
"#	c lime green",
"$	c red",
"%	c pale green",
"&	c gainsboro",
"*	c sienna",
"=	c orange",
",,,,..................,,,,,,,,,,",
",,,,.XXXXXXXXXXXXXXXX..,,,,,,,,,",
",,,,.XXXXXXXXXXXXXXXX.o.,,,,,,,,",
",,,,.XXXX...XX.X....X.oo.,,,,,,,",
",,,,.XXX.XXX.X.X.XXXX.ooo.,,,,,,",
",,,,.XXX.XXXXX.X...XX.oooo.,,,,,",
",,,,.XXX.XX..X.X.XXXX.ooooo.,,,,",
",,,,.XXX.XXX.X.X.XXXX.......O,,,",
",,,,.XXXX...XX.X.XXXXXXXXXX.O,,,",
",,,,.XXXXXXXXXXXXXXXXXXXXXX.O,,,",
",,,,.XXXXXXXXXXXXXXXXXXXXXX.O,,,",
",,,,.XXXXXXXXXXXXXXX..XXXXX.O,,,",
",,,,...XXXXXXXXXXXX.O.XXXXX.O,,,",
",,,,.OO.XXXX.XXXXX..OO.XXXX.O,,,",
",,,,.OOO.XX.O.XXX.OOOOO.XXX.O,,,",
",,,,.OOO+..OOO.X.OOOOOO.X...O,,,",
",,,,.O+O++OOOOO.OOOO@@@#.OO.O,,,",
",,,,.O++O+OOOOO++O@@@#@@#OO.O,,,",
",,,,.++OOO+OOOOO+@@@@@#@#@O.O,,,",
",,,,.+OOOOOO+OOOO@#@@@@@@@@.O,,,",
",,,,.......$$$$O@@@@#@@#@@O.O,,,",
",,,,.%%%%%$&$$$.@@@@@@@@@@..O,,,",
",,,,.%%%%$&&&$$$%@@%@*@@@%%.O,,,",
",,,,.%%%$&&&&&$$$%@%*=*%@%%.O,,,",
",,,,.%%$+&&&&&+$$%%%*=*%%%%.O,,,",
",,,,.%%%+&++&&+&$%%%*=*%%%%.O,,,",
",,,,.%%%+&++&&+&+%%%*=*%%%%.O,,,",
",,,,.%%%+&++&&++%%%%*=*%%%%.O,,,",
",,,,.%%%+++++++%%%%%***%%%%.O,,,",
",,,,.%%%%%%%%%%%%%%%%%%%%%%.O,,,",
",,,,........................O,,,",
",,,,,OOOOOOOOOOOOOOOOOOOOOOOO,,,"};
