/* XPM */
static char * dot[] = {
"32 32 7 1",
",	c None	s None",
" 	c white",
".	c black",
"X	c lemon chiffon",
"o	c tan",
"O	c slate gray",
"+	c gray50",
",,,,..................,,,,,,,,,,",
",,,,.XXXXXXXXXXXXXXXX..,,,,,,,,,",
",,,,.XXXXXXXXXXXXXXXX.o.,,,,,,,,",
",,,,.XXXXXXXXXXXXXXXX.oo.,,,,,,,",
",,,,.XXOOOOOOOOOOOOXX.ooo.,,,,,,",
",,,,.XXXXXXXXXXXXXXXX.oooo.,,,,,",
",,,,.XXOOOOOOOOOOOOXX.ooooo.,,,,",
",,,,.XXXXXXXXXXXXXXXX.......+,,,",
",,,,.XXXXXOOOOOOOXXXXXooooo.+,,,",
",,,,.XXXXXXXXXXXXXXXXXXoooo.+,,,",
",,,,.XXXXXOOOOOOOOOOOOOOXXX.+,,,",
",,,,.XXXXXXXXXXXXXXXXXXXXXX.+,,,",
",,,,.XXXXXOOOOXXXXXXXXXXXXX.+,,,",
",,,,.XXXXXXXXXXXXXXXXXXXXXX.+,,,",
",,,,.XXXXXOOOOOOXXXXXXXXXXX.+,,,",
",,,,.XXXXXXXXXXXXXXXXXXXXXX.+,,,",
",,,,.XXXXXOOOOXXX...XXXXXXX.+,,,",
",,,,.XXXXXXXXXXXX...XXXXXXX.+,,,",
",,,,.XXXXXOOOOOOX...XXXXXXX.+,,,",
",,,,.XXXXXXXXXXXX.......XXX.+,,,",
",,,,.XXXXXOOOOOOX........XX.+,,,",
",,,,.XXXXXXXXXXXX....X....X.+,,,",
",,,,.XXOOOOOOOOOX...XXX...X.+,,,",
",,,,.XXXXXXXXXXXX...XXX...X.+,,,",
",,,,.XXOOOOOOOOOX...XXX...X.+,,,",
",,,,.XXXXXXXXXXXX...XXX...X.+,,,",
",,,,.XXXXXOOOX..X...XXX...X.+,,,",
",,,,.XXXXXXXXX..X...XXX...X.+,,,",
",,,,.XXXXXXXXX..X...XXX...X.+,,,",
",,,,.XXXXXXXXXXXXXXXXXXXXXX.+,,,",
",,,,........................+,,,",
",,,,,++++++++++++++++++++++++,,,"};
