/* XPM */
static char * hidden_xpm[] = {
"32 32 6 1 0 0",
" 	s None	c None",
".	c black",
"X	c tan",
"o	c wheat",
"O	c gray69",
"+	c gray50",
"                                ",
"                                ",
"                                ",
"                                ",
"                                ",
"                  .X.X.X.       ",
"                 .XXXXXXX.      ",
"                 XXXXXXXXX      ",
"  .o.o.o.o.o.o.o.o.o.o.o.o.o.   ",
" .ooooooooooooooooooooooooooo.O ",
" ooooooooooooooooooooooooooooo+ ",
" .ooooooooooooooooooooooooooo.O ",
" ooooooooooooooooooooooooooooo+ ",
" .ooooooooooooooooooooooooooo.O ",
" ooooooooooooooooooooooooooooo+ ",
" .ooooooooooooooooooooooooooo.O ",
" ooooooooooooooooooooooooooooo+ ",
" .ooooooooooooooooooooooooooo.O ",
" ooooooooooooooooooooooooooooo+ ",
" .ooooooooooooooooooooooooooo.O ",
" ooooooooooooooooooooooooooooo+ ",
" .ooooooooooooooooooooooooooo.O ",
" ooooooooooooooooooooooooooooo+ ",
" .ooooooooooooooooooooooooooo.O ",
" ooooooooooooooooooooooooooooo+ ",
" .ooooooooooooooooooooooooooo.O ",
" ooooooooooooooooooooooooooooo+ ",
" .ooooooooooooooooooooooooooo.O ",
" ooooooooooooooooooooooooooooo+ ",
" .o.o.o.o.o.o.o.o.o.o.o.o.o.o.O ",
"  +O+O+O+O+O+O+O+O+O+O+O+O+O+O+ ",
"                                "};
