/* XPM */
static char * html[] = {
"32 32 5 1",
" 	c None s None",
".	c black",
"X	c lemon chiffon",
"o	c tan",
"O	c gray50",
"    ..................          ",
"    .XXXXXXXXXXXXXXXX..         ",
"    .XXXXXXXXXXXXXXXX.o.        ",
"    .XXXXXXXXXXXXXX.X.oo.       ",
"    .XXXXX..........X.ooo.      ",
"    .XXXX...........X.oooo.     ",
"    .XXX...XXXXXXXX.X.ooooo.    ",
"    .XXX..XXXXXXXXXXX.......O   ",
"    .XXX..XXXXXXXXXXXXooooo.O   ",
"    .XXX...XXX....XXXXooooo.O   ",
"    .XXXX..X..X..X..XXXXXXX.O   ",
"    .XXXXXX....X..XX.XXXXXX.O   ",
"    .XXXXX.X.....X.XX.XXXXX.O   ",
"    .XXXXX.XX...X..XX.XXXXX.O   ",
"    .XXXX.XXX.....XXXX.XXXX.O   ",
"    .XXXX.XXX.....XXXX.XXXX.O   ",
"    .XXXX.XXXX....XXXX.XXXX.O   ",
"    .XXXX.XXXXX..XXXXX.XXXX.O   ",
"    .XXXXX.XXXXX....X.XXXXX.O   ",
"    .XXXXX.XXXXX....X.XXXXX.O   ",
"    .XXXXXX.XXXXX..X.XXXXXX.O   ",
"    .XXXXXXX..XXX...X..XXXX.O   ",
"    .XXXXXXXXX.....XX...XXX.O   ",
"    .XXXXXXXXXXXXXXXXX..XXX.O   ",
"    .XXXXXXXXXXXXXXXXX..XXX.O   ",
"    .XXXX..XXXXXXXXXX...XXX.O   ",
"    .XXX...............XXXX.O   ",
"    .XXX..............XXXXX.O   ",
"    .XXXX..XXXXXXXXXXXXXXXX.O   ",
"    .XXXXXXXXXXXXXXXXXXXXXX.O   ",
"    ........................O   ",
"     OOOOOOOOOOOOOOOOOOOOOOOO   "};
