/* XPM */
static char * index[] = {
"32 32 9 1",
",	c None	s None",
" 	c white",
".	c black",
"X	c lemon chiffon",
"o	c red",
"O	c wheat",
"+	c dark slate grey",
"@	c slate grey",
"#	c tan",
",,,...................,,,,,,,,,,",
",,,.XXXXXXXXXXXXXXXXX..,,,,,,,,,",
",,,.XXooXXXXXXXXXXXXX.O.,,,,,,,,",
",,,.XoXXoXXXXXXXXXXXX.OO.,,,,,,,",
",,,.XooooXXXXXXXXXXXX.OOO.,,,,,,",
",,,.XoXXoX+.@X@XXXXXX.OOOO.,,,,,",
",,,.XoXXoXXXXXXXXXXXX.......,,,,",
",,,.XXXXXXX.+@.XXXXXXX#####.,,,,",
",,,.XXXXXXXXXXXXXXXXXXX####.,,,,",
",,,.XX.+X.+@X@.X@@.XXXXXXXX.,,,,",
",,,.XXXXXXXXXXXXXXXXXXXXXXX.,,,,",
",,,.XXXX+@@.@.X@+XXXXXXXXXX.,,,,",
",,,.XXXXXXXXXXXXXXXXXXXXXXX.,,,,",
",,,.XXXXX+.X.@.+XXXXXXXXXXX.,,,,",
",,,.XXXXXXXXXXXXXXXXXXXXXXX.,,,,",
",,,.XXXX.+@.X+.XXXXXXXXXXXX.,,,,",
",,,.XXXXXXXXXXXXXXXXXXXXXXX.,,,,",
",,,.XX..X+X.+..@XXXXXXXXXXX.,,,,",
",,,.XXXXXXXXXXXXXXXXXXXXXXX.,,,,",
",,,.XXXX@.+..X+.XXXXXXXXXXX.,,,,",
",,,.XXXXXXXXXXXXXXXXXXXXXXX.,,,,",
",,,.XXXXXX+.X@.++.XXXXXXXXX.,,,,",
",,,.XXXXXXXXXXXXXXXXXXXXXXX.,,,,",
",,,.XX..@X.+.X.XXXXXXXXXXXX.,,,,",
",,,.XXXXXXXXXXXXXXXXXXXXXXX.,,,,",
",,,.XXXX@.@X.@++.XXXooooXXX.,,,,",
",,,.XXXXXXXXXXXXXXXXXXoXXXX.,,,,",
",,,.XXXXXXXXXXXXXXXXXoXXXXX.,,,,",
",,,.XXXXXXXXXXXXXXXXooooXXX.,,,,",
",,,.XXXXXXXXXXXXXXXXXXXXXXX.,,,,",
",,,.XXXXXXXXXXXXXXXXXXXXXXX.,,,,",
",,,.........................,,,,"};
