/* XPM */
static char * info_dot[] = {
"32 32 7 1",
" 	c None s None",
".	c black",
"X	c lemon chiffon",
"+	c white",
"@	c blue",
"o	c tan",
"O	c gray50",
"    ..................          ",
"    .XXXXXXXXXXXXXXXX..         ",
"    .XXXXXXXXXXXXXXXX.o.        ",
"    .XXXXXXXXXXXXXXXX.oo.       ",
"    .XXXXXXXXXXXXXXXX.ooo.      ",
"    .XXXXXXXXXXXXXXXX.oooo.     ",
"    .XXXXXXXXXXXXXXXX.ooooo.    ",
"    .XXXXXXXXXXXXXXXX.......O   ",
"    .XXXXXXXXXXXXXXXXXooooo.O   ",
"    .XXXXXXXX@@@@@@XXXooooo.O   ",
"    .XXXXXX@@@@@@@@@@XXXXXX.O   ",
"    .XXXXX@@@@@++@@@@@XXXXX.O   ",
"    .XXXX@@@@@++++@@@@@XXXX.O   ",
"    .XXX@@@@@@++++@@@@@@XXX.O   ",
"    .XXX@@@@@@@++@@@@@@@XXX.O   ",
"    .XX@@@@@@@@@@@@@@@@@@XX.O   ",
"    .XX@@@@@@+++++@@@@@@@XX.O   ",
"    .XX@@@@@@@++++@@@@@@@XX.O   ",
"    .XX@@@@@@@++++@@@@@@@XX.O   ",
"    .XX@@@@@@@++++@@@@@@@XX.O   ",
"    .XX@@@@@@@++++@@@@@@@XX.O   ",
"    .XXX@@@@@@++++@@@@@@XXX.O   ",
"    .XXX@@@@@++++++@@@@@XXX.O   ",
"    .XXXX@@@@@@@@@@@@@@XXXX.O   ",
"    .XXXXX@@@@@@@@@@@@XXXXX.O   ",
"    .XXXXXX@@@@@@@@@@XXXXXX.O   ",
"    .XXXXXXXX@@@@@@XXXXXXXX.O   ",
"    .XXXXXXXXXXXXXXXXXXXXXX.O   ",
"    .XXXXXXXXXXXXXXXXXXXXXX.O   ",
"    .XXXXXXXXXXXXXXXXXXXXXX.O   ",
"    ........................O   ",
"     OOOOOOOOOOOOOOOOOOOOOOOO   "};
