/* XPM */
static char * jpeg[] = {
"32 32 5 1",
" 	c None s None",
".	c black",
"X	c lemon chiffon",
"o	c tan",
"O	c gray50",
"    ..................          ",
"    .XXXXXXXXXXXXXXXX..         ",
"    .XXX..X...XXX..XX.o.        ",
"    .XXXX.X.XX.X.XX.X.oo.       ",
"    .XXXX.X.XX.X.XXXX.ooo.      ",
"    .XXXX.X...XX.X..X.oooo.     ",
"    .X.XX.X.XXXX.XX.X.ooooo.    ",
"    .XX..XX.XXXXX..XX.......O   ",
"    .XXXXXXXXXXXXXXXXXooooo.O   ",
"    .XXXXXXXXXXXXXXXXXooooo.O   ",
"    .XXXXXXXXXXXXXXXXXXXXXX.O   ",
"    .XXXXXXXXXXXXXXXX..XXXX.O   ",
"    .XX.XXXXXXXXXXXX.X.XXXX.O   ",
"    .X.X.XXXX.XXXXX..XX.XXX.O   ",
"    ..XXX.XX.X.XXX.XXXXX.XX.O   ",
"    .XXXXX..XXX.X.XXXXXX.XX.O   ",
"    .XXXXXXXXXXX.XXXX...X.X.O   ",
"    .XXXXXXXXXXXXXX...X..X..O   ",
"    .XXXXXXXXXXXXX..X..X.XX.O   ",
"    .XXXXXXXXXXXXX.X......X.O   ",
"    .XXXXXXX.XXXX....X..X.X.O   ",
"    .XXXXXX.X.XXX.........X.O   ",
"    .XXXXX.XXX.XXX..X.....X.O   ",
"    .XXXX.XXXXX.XXX.X...X.X.O   ",
"    .XXX..XXXXX..XXXX.X.XXX.O   ",
"    .XX.X.X...X.X.XXX.X.XXX.O   ",
"    .XXXX.X.X.X.XXXXX...XXX.O   ",
"    .XXXX.X.X.X.XXXXX...XXX.O   ",
"    .XXXX.......XXXXX...XXX.O   ",
"    .XXXXXXXXXXXXXXXXXXXXXX.O   ",
"    ........................O   ",
"     OOOOOOOOOOOOOOOOOOOOOOOO   "};
