/* XPM */
static char * key_xpm[] = {
"32 32 5 1",
" 	s None	c None",
".	c black",
"X	c tan",
"o	c wheat",
"O	c gray50",
"                                ",
"                                ",
"                                ",
"                                ",
"                                ",
"                  .......       ",
"                 .XXXXXXX.      ",
"                .XXXXXXXXX.     ",
"  ............................  ",
" .oooooooooooooooooooooooooooo. ",
" .oooooooooooooooooooooooooooo.O",
" .oooooooooooooooooooooooooooo.O",
" .oooooooooooooooooooooooooooo.O",
" .oooooooooooooooooooooooooooo.O",
" .ooo...oooooooooooooooooooooo.O",
" .oo.ooo.ooooooooooooooooooooo.O",
" .oo.ooo.ooooooooooooooooooooo.O",
" .o..ooo.....................o.O",
" .oo.ooo.oooooooooooooo.....oo.O",
" .oo.ooo.ooooooooooooooo..o.oo.O",
" .ooo...oooooooooooooooo..o.oo.O",
" .ooooooooooooooooooooo...o..o.O",
" .oooooooooooooooooooooooooooo.O",
" .oooooooooooooooooooooooooooo.O",
" .oooooooooooooooooooooooooooo.O",
" .oooooooooooooooooooooooooooo.O",
" .oooooooooooooooooooooooooooo.O",
" .oooooooooooooooooooooooooooo.O",
" .oooooooooooooooooooooooooooo.O",
" ..............................O",
"  OOOOOOOOOOOOOOOOOOOOOOOOOOOOOO",
"                                "};
