/* XPM */
static char * lharc[] = {
"32 32 5 1",
" 	c None	s None",
"X	c lemon chiffon",
".	c black",
"o	c tan",
"O	c gray50",
"  ......................        ",
"  .XXXXXXXXXXXXXXXXXXXX..       ",
"  .XXXXXXXXXXXXXXXXXXXX.o.      ",
"  .XXXXXXX............X.oo.     ",
"  .XXXXXXX.XX.........X.ooo.    ",
"  .XXXXXXX..XX........X.oooo.   ",
"  .XXXXXXX...XX.......X.ooooo.  ",
"  .XXXXXXXX...XXXX...XX.......O ",
"  .XXXXXXXXX........XXXXooooo.O ",
"  .XXXXXXXXXX.X..X.XXXXXooooo.O ",
"  .XXXXXXX..X.X..X.X..XXXXXXX.O ",
"  .XXXXXXX..X.XXXX.X..XXXXXXX.O ",
"  .XXXXXXX..X.X..X.X..XXXXXXX.O ",
"  .XXXXXXX..X......X..XXXXXXX.O ",
"  .XXXXXXX..X..XXX.X..XXXXXXX.O ",
"  .X........X.X..X.X........X.O ",
"  .X........X.XXXX.X........X.O ",
"  .XXXXXXX..X.X..X.X..XXXXXXX.O ",
"  .XXXXXXX..X......X..XXXXXXX.O ",
"  .XXXXXXX..X.XXX..X..XXXXXXX.O ",
"  .XXXXXXX..X.X..X.X..XXXXXXX.O ",
"  .XXXXXXX..X.XXX..X..XXXXXXX.O ",
"  .XXXXXXXXXX.X..X.XXXXXXXXXX.O ",
"  .XXXXXXXXX........XXXXXXXXX.O ",
"  .XXXXXXXX...XXXX...XXXXXXXX.O ",
"  .XXXXXXX...XX.......XXXXXXX.O ",
"  .XXXXXXX..XX........XXXXXXX.O ",
"  .XXXXXXX...XXXXXXX..XXXXXXX.O ",
"  .XXXXXXX............XXXXXXX.O ",
"  .XXXXXXXXXXXXXXXXXXXXXXXXXX.O ",
"  ............................O ",
"  OOOOOOOOOOOOOOOOOOOOOOOOOOOOO "};
