/* XPM */
static char * link_bad[] = {
"32 32 6 1",
" 	c None s None",
".	c black",
"X	c lemon chiffon",
"o	c tan",
"O	c gray69",
"+	c gray50",
"    .X.X.X.X.X.X.X.X.X          ",
"    XXXXXXXXXXXXXXXXX.X         ",
"    .XXXXXXXXXXXXXXXXXo.        ",
"    XXXXXXXXXXXXXXXXX.oo.       ",
"    .XXXXXXXXXXXXXXXXXooo.      ",
"    XXXXXXXXXXXXXXXXX.oooo.     ",
"    .XXXXXXXXXXXXXXXXXoooooX    ",
"    XXXXXXXXXXXXXXXXX.X.X.X.O   ",
"    .XXXXXXXXXXXXXXXXooooooX+   ",
"    XXXXXXXXXXXXXXXXXXooooo.O   ",
"    ....XXXXXXXXXXXXXXX....X+   ",
"    XXXX.XXXXXXXXXXXXX.XXXX.O   ",
"    ...XX.XXXXXXXXXXX.XX...X+   ",
"    XX........XXX........XX.O   ",
"    ..XXXXXXXX.X.XXXXXXXX.XX+   ",
"    X.XXXXXXXX.X.XXXXXXXX.X.O   ",
"    .X........XXX........XXX+   ",
"    X..XX.XXXXXXXXXXX.XX....O   ",
"    .XXX.XXXXXXXXXXXXX.XXXXX+   ",
"    X...XXXXXXXXXXXXXXX.....O   ",
"    .XXXXXXXXXXXXXXXXXXXXXXX+   ",
"    XXXXXXXXXXXXXXXXXXXXXXX.O   ",
"    .XXXXXXXXXXXXXXXXXXXXXXX+   ",
"    XXXXX.XXX.X.XX.X.XX.XXX.O   ",
"    .XXXX.XXX.X..X.X.X.XXXXX+   ",
"    XXXXX.XXX.X.X..X..XXXXX.O   ",
"    .XXXX.XXX.X.XX.X.X.XXXXX+   ",
"    XXXXX...X.X.XX.X.XX.XXX.O   ",
"    .XXXXXXXXXXXXXXXXXXXXXXX+   ",
"    XXXXXXXXXXXXXXXXXXXXXXX.O   ",
"    .X.X.X.X.X.X.X.X.X.X.X.X+   ",
"     +O+O+O+O+O+O+O+O+O+O+O+O   "};
