/* XPM */
static char * lock_dir_xpm[] = {
"32 32 6 1",
" 	s None	c None",
".	c black",
"X	c tan",
"o	c wheat",
"O	c gray50",
"+	c gray69",
"                                ",
"                                ",
"                                ",
"                                ",
"                                ",
"                  .......       ",
"                 .XXXXXXX.      ",
"                .XXXXXXXXX.     ",
"  ............................  ",
" .oooo.o.ooooooooooooooo.o.ooo. ",
" .ooo.ooo.ooooooooooooo.ooo.oo.O",
" .oooo.o.ooooooooooooooo.o.ooo.O",
" .ooooo.o.o.ooooooooo.o.o.oooo.O",
" .oooooooo.o.ooooooo.o.ooooooo.O",
" .ooooooo.ooo.ooooo.ooo.oooooo.O",
" .oooooooo.o.ooooooo.o.ooooooo.O",
" .ooooooooo.o.ooooo.o.oooooooo.O",
" .oooooooooooo.....ooooooooooo.O",
" .oooooooooooo..o..ooooooooooo.O",
" .oooooooooooo.ooo.ooooooooooo.O",
" .oooooooooooo.ooo.ooooooooooo.O",
" .ooooooooooo.......oooooooooo.O",
" .ooooooooooo.......oooooooooo.O",
" .ooooooooooo.......oooooooooo.O",
" .ooooooooooo...+...oooooooooo.O",
" .ooooooooooo...+...oooooooooo.O",
" .ooooooooooo..+++..oooooooooo.O",
" .ooooooooooo.......oooooooooo.O",
" .oooooooooooooooooooooooooooo.O",
" ..............................O",
"  OOOOOOOOOOOOOOOOOOOOOOOOOOOOOO",
"                                "};
