/* XPM */
static char * mail[] = {
"32 32 7 1",
" 	c None	s None",
"`	c black",
"a	c tan",
"b	c red",
"c	c white",
"d	c slate grey",
"e	c lemon chiffon",
"       ```````````````````      ",
"       `eeeeeeeeeeeeeeeee``     ",
"       `eeeeeeeeeeeeeeeee`a`    ",
"       `eeeeeeeeeeeeeeeee`aa`   ",
"       `eeeeeeeeeeeeeeeee`aaa`  ",
"       `eeeedddeddddeeddd`aaaa` ",
"       `eeeeeeeeeeeeeeeee```````",
"       `eedddedddedddddeeeaaaaa`",
"       `eeeeeeeeeeeeeeeeeeeeeee`",
"       `eedddddeddddddeddddeeee`",
"       `eeeeeeeeeeeeeeeeeeeeeee`",
"       `eedddedddedddeddddeeeee`",
"       `eeeeeeeeeeeeeeeeeeeeeee`",
"       `aaaaaaaaaaaaaaaaaaaaaee`",
"````````````````````````````aee`",
"`eeeeeeeeeeeeeeeeeeeeeeeeee`aee`",
"`eededdddeeeeeeeeeeeeeebbbe`aee`",
"`eeeeeeeeeeeeeeeeeeeeeebbbe`aee`",
"`eedddeddeeeeeeeeeeeeeebbbe`aee`",
"`eeeeeeeeeeeeeeeeeeeeeebbbe`aee`",
"`eeeeeeeeeeeeeeeeeeeeeeeeee`aee`",
"`eeeeeeeeeeeeeeeeeeeeeeeeee`aee`",
"`eeeeeeeeeeeeeeeeeeeeeeeeee`aee`",
"`eeeeeedddeeddeddddddeeeeee`aee`",
"`eeeeeeeeeeeeeeeeeeeeeeeeee`aee`",
"`eeeeeedddddedddeddddeeeeee`aee`",
"`eeeeeeeeeeeeeeeeeeeeeeeeee`aee`",
"`eeeeeedddedddeddddddeeeeee`aee`",
"`eeeeeeeeeeeeeeeeeeeeeeeeee`aee`",
"`eeeeeeeeeeeeeeeeeeeeeeeeee`aee`",
"`eeeeeeeeeeeeeeeeeeeeeeeeee`aee`",
"````````````````````````````````"};
