/* XPM */
static char * mail_xpm[] = {
"32 32 7 1",
" 	s None	c None",
".	c black",
"X	c tan",
"o	c wheat",
"O	c gray50",
"+	c lemon chiffon",
"@	c red",
"                                ",
"                                ",
"                                ",
"                                ",
"                                ",
"                  .......       ",
"                 .XXXXXXX.      ",
"                .XXXXXXXXX.     ",
"  ...........................   ",
" .ooooooooooooooooooooooooooo.  ",
" .ooooooooooooooooooooooooooo.O ",
" .ooooooooooooooooooooooooooo.O ",
" .ooooooooooooooooooooooooooo.O ",
" .oo.......................oo.O ",
" .oo.+++++++++++++++++++++.oo.O ",
" .oo.+++++++++++++++++@@@+.oo.O ",
" .oo.+++++++++++++++++@@@+.oo.O ",
" .oo.+++++++++++++++++@@@+.oo.O ",
" .oo.++++.++.++.++++++@@@+.oo.O ",
" .oo.+++.+.+..++.+++++++++.oo.O ",
" .oo.+++++++++++++++++++++.oo.O ",
" .oo.++++..++.++.+.+++++++.oo.O ",
" .oo.++++.+.++.+.++.++++++.oo.O ",
" .oo.+++++++++++++++++++++.oo.O ",
" .oo.+++++++++++++++++++++.oo.O ",
" .oo.......................oo.O ",
" .ooooooooooooooooooooooooooo.O ",
" .ooooooooooooooooooooooooooo.O ",
" .ooooooooooooooooooooooooooo.O ",
" .............................O ",
"  OOOOOOOOOOOOOOOOOOOOOOOOOOOOO ",
"                                "};
