/* XPM */
static char * makefile[] = {
"32 32 7 1",
",	c None	s None",
" 	c white",
".	c black",
"X	c lemon chiffon",
"o	c tan",
"O	c gray50",
"+	c cyan",
",,,,..................,,,,,,,,,,",
",,,,.XXXXXXXXXXXXXXXX..,,,,,,,,,",
",,,,.XXXXXX...XXXXXXX.o.,,,,,,,,",
",,,,.XXXX... ...XXXXX.oo.,,,,,,,",
",,,,.XXXX.OO.OO.XXXXX.ooo.,,,,,,",
",,,,.XXX..O...O..XXXX.oooo.,,,,,",
",,,,.XXX.OO.OOOO.XXXX.ooooo.,,,,",
",,,,.XXX..OO.OO..XXXX.......O,,,",
",,,,.XXXX.OOOOO....XXXooooo.O,,,",
",,,,.XXXX...O....+.XX.Xoooo.O,,,",
",,,,.XXXXXX...+.+++..+.XXXX.O,,,",
",,,,.XXXXXX.++++++++++..XXX.O,,,",
",,,,.XXXXXXX.+++...+++.XXXX.O,,,",
",,,,.XXXXXXX.++.+.X.++.XXXX.O,,,",
",,,,.XXXXX..++.+.XXX.++..XX.O,,,",
",,,,.XXXXX.+++..XXXX.+++.XX.O,,,",
",,,,.XXXXX...+.+.XXX.+...XX.O,,,",
",,,,.XXXXXXX.++.+.X.++.XXXX.O,,,",
",,,,.XXXXXXX.+++...+++.XXXX.O,,,",
",,,,.XXXXXX.+++++++++++.XXX.O,,,",
",,,,.XXXXXX..+..++.....XXXX.O,,,",
",,,,.XXXX...O...++.XX.XXXXX.O,,,",
",,,,.XXXX.OO.OO....XXXXXXXX.O,,,",
",,,,.XXX..O...O..XXXXXXXXXX.O,,,",
",,,,.XXX.OO.OOOO.XXXXXXXXXX.O,,,",
",,,,.XXX..OO.OO..XXXXXXXXXX.O,,,",
",,,,.XXXX.OOOOO.XXXXXXXXXXX.O,,,",
",,,,.XXXX...O...XXXXXXXXXXX.O,,,",
",,,,.XXXXXX...XXXXXXXXXXXXX.O,,,",
",,,,.XXXXXXXXXXXXXXXXXXXXXX.O,,,",
",,,,........................O,,,",
",,,,,OOOOOOOOOOOOOOOOOOOOOOOO,,,"};
