/* XPM */
static char * manpage_xpm[] = {
"64 54 4 1 0 0",
" 	s None	c None",
".	c black",
"X	c goldenrod",
"o	c white",
"                                                                ",
"                                                                ",
"         ... ......................................             ",
"        .XX...XXXXXXXXXXXXXXXXXXXXXXXXXXXXXXXXXXX..             ",
"        .X.o.X.XX.XX.XX.XX.XX.XX.XX.XX.XX.XX.XX.XX....          ",
"        .XX..XXX.XX.XX.XX.XX.XX.XX.XX.XX.XX.XX.XXX....          ",
"        .XXX.XX.XX.XX.XX.XX.XX.XX.XX.XX.XX.XX.XX.X..... .       ",
"        .XX..X.XX.XX.XX.XX.XX.XX.XX.XX.XX.XX.XX.XX..o.o.o.      ",
"        .X.o.XXX.XX.XX.XX.XX.XX.XX.XX.XX.XX.XX.XXX.....o.       ",
"        .XX..XX.XX.XX.XX.XX.XX.XX.XX.XX.XX.XX.XX.X....o.o.      ",
"        .XXX.X.XX.XX.XX.XX.XX.XX.XX.XX.XX.XX.XX.XX.....o.       ",
"        .XX..XXXXXXXXXXXXXXXXXXXXXXXXXXXXXXXXXXXXX....o.o.      ",
"        .X.o.XXXXXXXXXXXXXXXXXXXXXXXXXXXXXXXXXXXXX.o...o.       ",
"        .XX..XX...XX...XX.......XXX...XX...XX...XX.o..o.o.      ",
"        .XXX.XX...XX...XX........XX...XX...XX...XX.....o.       ",
"        .XX..XX...XX...XX........XX...XX........XX....o.o.      ",
"        .X.o.XX...XX...XX...XX...XX...XXXX....XXXX.o...o.       ",
"        .XX..XX...XX...XX...XX...XX...XXXXX..XXXXX.o..o.o.      ",
"        .XXX.XX...XX...XX...XX...XX...XXXX....XXXX.o...o.       ",
"        .XX..XX........XX...XX...XX...XX........XX....o.o.      ",
"        .X.o.XX........XX...XX...XX...XX...XX...XX.....o.       ",
"        .XX..XXX......XXX...XX...XX...XX...XX...XX....o.o.      ",
"        .XXX.XXXXXXXXXXXXXXXXXXXXXXXXXXXXXXXXXXXXX.....o.       ",
"        .XX..XXXXXXXXXXXXXXXXXXXXXXXXXXXXXXXXXXXXX....o.o.      ",
"        .X.o.X.XX.XX.XX.XX.XX.XX.XX.XX.XX.XX.XX.XX.o...o.       ",
"        .XX..XXX.XX.XX.XX.XX.XX.XX.XX.XX.XX.XX.XXX.o..o.o.      ",
"        .XXX.XX.XX.XX.XX.XX.XX.XX.XX.XX.XX.XX.XX.X..o..o.       ",
"        .XX..X.XX.XX.XX.XX.XX.XX.XX.XX.XX.XX.XX.XX..o.o.o.      ",
"        .X.o.XXX.XX.XX.XX.XX.XX.XX.XX.XX.XX.XX.XXX..o..o.       ",
"        .XX..XX.XXXXXXXXXXXXXXXXXXXXXXXXXXXXXXXX.X.o..o.o.      ",
"        .XXX.X.XXX.X.XXX..XXX..XX.XX.XX..XX.XXX.XX.....o.       ",
"        .XX..XXXX.X.X.X.XX.X.XX.X.XX.X.XX.X.XXXXXX..o.o.o.      ",
"        .X.o.XX.X.XXX.X....X.XX.X.XX.X....X.XXXX.X.o...o.       ",
"        .XX..X.XX.XXX.X.XX.X.XX.X.XX.X.XX.X.XXX.XX....o.o.      ",
"        .XXX.XXXX.XXX.X.XX.X.XX.XX..XX.XX.X...XXXX.....o.       ",
"        .XX..XX.XXXXXXXXXXXXXXXXXXXXXXXXXXXXXXXX.X....o.o.      ",
"        .X.o.X.XX.XX.XX.XX.XX.XX.XX.XX.XX.XX.XX.XX.....o.       ",
"        .XX..XXX.XX.XX.XX.XX.XX.XX.XX.XX.XX.XX.XXX.o..o.o.      ",
"        .XXX.XX.XX.XX.XX.XX.XX.XX.XX.XX.XX.XX.XX.X..o..o.       ",
"        .XX..X.XX.XX.XX.XX.XX.XX.XX.XX.XX.XX.XX.XX.o..o.o.      ",
"        .X.o.XXX.XX.XX.XX.XX.XX.XX.XX.XX.XX.XX.XXX.o...o.       ",
"        .XX..XX.XX.XX.XX.XX.XX.XX.XX.XX.XX.XX.XX.X.o..o.o.      ",
"        .XXX.X.XX.XX.XX.XX.XX.XX.XX.XX.XX.XX.XX.XX.o...o.       ",
"        .XX..XXX.XX.XX.XX.XX.XX.XX.XX.XX.XX.XX.XXX....o.o.      ",
"        .X.o.XX.XX.XX.XX.XX.XX.XX.XX.XX.XX.XX.XX.X.....o.       ",
"        .XX..X.XX.XX.XX.XX.XX.XX.XX.XX.XX.XX.XX.XX..o.o.o.      ",
"        .XXX..XXXXXXXXXXXXXXXXXXXXXXXXXXXXXXXXXXX...o..o.       ",
"         ...o.......................................o.o.o.      ",
"        .ooo.o.o......ooo....ooo..o...........oo.o.....o.       ",
"        .ooo..o.o.o.........o.o.....o.............o...o.o.      ",
"         ..............................................o.       ",
"           .o.o.o.o.o.o.o.o.o.o.o.o.o.o.o.o.o.o.o.o.o.o.o.      ",
"            .o.o.o.o.o.o.o.o.o.o.o.o.o.o.o.o.o.o.o.o.o.o.       ",
"             .o.o.o.o.o.o.o.o.o.o.o.o.o.o.o.o.o.o.o.o.o.o.      "};
