/* XPM */
static char * mini_mc_xpm[] = {
"16 16 5 1",
" 	s None	c None",
".	c black",
"X	c #808080",
"o	c white",
"O	c blue",
"                ",
"                ",
"............... ",
".XXXXXXXoooooo.X",
".oOOOOOoOOOOOo.X",
".oOOOOOoOOOOOo.X",
".oOOOOOoOOOOOo.X",
".oOOOOOoOOOOOo.X",
".oOOOOOoOOOOOo.X",
".oOOOOOoOOOOOo.X",
".oOOOOOoOOOOOo.X",
".ooooooooooooo.X",
".XXXXXXXXXXXXX.X",
"...............X",
" XXXXXXXXXXXXXXX",
"                "};
