/* XPM */
static char * music[] = {
"32 32 6 1",
" 	c None s None",
".	c black",
"X	c lemon chiffon",
"o	c tan",
"O	c gray50",
"+	c wheat",
"    ..................          ",
"    .XXXXXXXXXXXXXXXX..         ",
"    .XXXXXXXXXX.XXXXX.o.        ",
"    .XXXXXXXXXX..XXXX.oo.       ",
"    .XXXXXXXXXX....XX.ooo.      ",
"    .XXXXXXXXXX.....X.oooo.     ",
"    .XXXXXXXXXX.....X.ooooo.    ",
"    .XXXXXXXXXX.XX..........O   ",
"    .XXXXXXXXXX.XXX..+ooooo.O   ",
"    .XXXXXXXXXX.XXXX..+oooo.O   ",
"    .XXXXXXXXXX.XXXXX..XXXX.O   ",
"    .XXXXXXXXXX.XXXXX...XXX.O   ",
"    .XXXXXXXXXX.XXXXXX..XXX.O   ",
"    .XXXXXXXXXX.XXXXXX..XXX.O   ",
"    .XXXXXXXXXX.XXXXXX..XXX.O   ",
"    .XXXXXXXXXX.XXXXXX..XXX.O   ",
"    .XXXXXXXXXX.XXXXX..XXXX.O   ",
"    .XXXXXXXXXX.XXXXX.XXXXX.O   ",
"    .XXXXXXXXXX.XXXX.XXXXXX.O   ",
"    .XXXXXXXXXX.XXX.XXXXXXX.O   ",
"    .XXXXXXXXXX.XX.XXXXXXXX.O   ",
"    .XXXXX....X.XXXXXXXXXXX.O   ",
"    .XXX........XXXXXXXXXXX.O   ",
"    .XX.........XXXXXXXXXXX.O   ",
"    .X..........XXXXXXXXXXX.O   ",
"    .X..........XXXXXXXXXXX.O   ",
"    .X.........XXXXXXXXXXXX.O   ",
"    .XX.......XXXXXXXXXXXXX.O   ",
"    .XXX.....XXXXXXXXXXXXXX.O   ",
"    .XXXXXXXXXXXXXXXXXXXXXX.O   ",
"    ........................O   ",
"     OOOOOOOOOOOOOOOOOOOOOOOO   "};
