/* XPM */
static char * network_xpm[] = {
"32 32 6 1 0 0",
" 	s None	c None",
".	c black",
"X	c tan",
"o	c wheat",
"O	c gray50",
"+	c grey",
"                                ",
"                                ",
"                  .......       ",
"                 .XXXXXXX.      ",
"                .XXXXXXXXX.     ",
"  ...........................   ",
" .ooooooooooooooooooooooooooo.  ",
" .ooooooooooooooooooooooooooo.O ",
" .ooooooooooooooooooooooooooo.O ",
" .ooooooooooooooooooooooooooo.O ",
" .ooooooooooooooooooooooooooo.O ",
" .ooooooooooooooooooooooooooo.O ",
" .ooooooooooooooooooooooooooo.O ",
" .ooooooooooooooooooooooooooo.O ",
" .ooooooooooooooooooooooooooo.O ",
" .ooooooooooooooooooooooooooo.O ",
" .ooooooooooooooooooooooooooo.O ",
" .ooooooooooooooooooooooooooo.O ",
" .ooooooooooooooooooooooooooo.O ",
" .ooooooooooooooooooooooooooo.O ",
" .ooooooooooooooooooooooooooo.O ",
" .ooooooooooooooooooooooooooo.O ",
" .ooooooooooooooooooooooooooo.O ",
" .ooooooooooooooooooooooooooo.O ",
" .oooooo.+.oooooooooooooooooo.O ",
" .oooooo.+.oooooooooooooooooo.O ",
" .....o.....o.................O ",
"  OOOOO.+++.OOOOOOOOOOOOOOOOOOO ",
"       .....                    ",
". .. ..++.++............... .. .",
"+ ++ +++. .++++++++++++++++ ++ +",
". .. ...   ................ .. ."};
