/* XPM */
static char * news_dir_xpm[] = {
"32 32 6 1",
" 	s None	c None",
".	c black",
"X	c tan",
"o	c wheat",
"O	c gray50",
"+	c white",
"                                ",
"                                ",
"                                ",
"                                ",
"                                ",
"                   .......      ",
"                  .XXXXXXX.     ",
"                 .XXXXXXXXX.    ",
"  ...........................   ",
" .ooooooooooooooooooooooooooo.O ",
" .ooooooooooooooooooooooooooo.O ",
" .ooo.....................ooo.O ",
" .oo..+++.+++.++++.++++.++.oo.O ",
" .o...+.+.+..+.+.+.+..++.+.oo.O ",
" .o.+.++..++.+.+..+.+.+..++.o.O ",
"...+.+.+++++++++++++++++++++.OO ",
".+++.+.+................+..+..O ",
" ..+.+.++++++++++++++++++++++.O ",
" ..++.+.+.+.+..+...++.+.....+.O ",
" .+.+.+.++.+.+.+++++++.+..+..+. ",
" o..++.+.+......+.++...+.....+. ",
" ..+.+.+.++..+..+++++++++.+..+..",
" .o..++.+.+......++.+...+.....+.",
" .o.+.+.+.++...+..+...+.+..+..+.",
" .oo..++.+.+..+...+.+...+.....+.",
" .oo...+.+.+....+.+.....+..+++. ",
" .oo.+...+.+..+...............O ",
" .ooo...........ooooooooooooo.O ",
" .ooooooooooooooooooooooooooo.O ",
" .............................O ",
"  OOOOOOOOOOOOOOOOOOOOOOOOOOOOO ",
"                                "};
