/* XPM */
static char * open_dir_xpm[] = {
"32 32 5 1",
" 	s None	c None",
".	c black",
"X	c tan",
"o	c wheat",
"O	c gray50",
"                                ",
"                                ",
"                                ",
"                                ",
"                                ",
"                   .......      ",
"                  .XXXXXXX.     ",
"                 .XXXXXXXXX.    ",
"   ..............XXXXXXXXXXX... ",
"  .XXXXXXXXXXXXXXXXXXXXXXXXXXXX.",
"  .XXXXXXXXXXXXXXXXXXXXXXXXXXXX.",
" ...........................XXX.",
".ooooooooooooooooooooooooooo.XX.",
".ooooooooooooooooooooooooooo.XX.",
".ooooooooooooooooooooooooooo.XX.",
".ooooooooooooooooooooooooooo.XX.",
".ooooooooooooooooooooooooooo.XX.",
".ooooooooooooooooooooooooooo.XX.",
" .ooooooooooooooooooooooooooo.X.",
" .ooooooooooooooooooooooooooo.X.",
" .ooooooooooooooooooooooooooo.X.",
" .ooooooooooooooooooooooooooo.X.",
" .ooooooooooooooooooooooooooo.X.",
" .ooooooooooooooooooooooooooo.X.",
"  .oooooooooooooooooooooooooo.X.",
"  .oooooooooooooooooooooooooo.X.",
"  .ooooooooooooooooooooooooooo..",
"  .ooooooooooooooooooooooooooo..",
"  .ooooooooooooooooooooooooooo.O",
"  .............................O",
"   OOOOOOOOOOOOOOOOOOOOOOOOOOOOO",
"                                "};
