/* XPM */
static char * dot_p[] = {
"32 32 5 1",
" 	c None s None",
".	c black",
"X	c lemon chiffon",
"o	c tan",
"O	c gray50",
"    ..................          ",
"    .XXXXXXXXXXXXXXXX..         ",
"    .XXXXXXXXXXXXXXXX.o.        ",
"    .XXXXXXXXXXXXXXXX.oo.       ",
"    .XX............XX.ooo.      ",
"    .XXXXXXXXXXXXXXXX.oooo.     ",
"    .XX............XX.ooooo.    ",
"    .XXXXXXXXXXXXXXXX.......O   ",
"    .XXXXX.......XXXXXooooo.O   ",
"    .XXXXXXXXXXXXXXXXXooooo.O   ",
"    .XXXXX..............XXX.O   ",
"    .XXXXXXXXXXXXXXXXXXXXXX.O   ",
"    .XXXXX....XXXXXXXXXXXXX.O   ",
"    .XXXXXXXXXXXXXXXXXXXXXX.O   ",
"    .XXXXX......XXXXXXXXXXX.O   ",
"    .XXXXXXXXXXXXXXXXXXXXXX.O   ",
"    .XXXXX....XXX........XX.O   ",
"    .XXXXXXXXXXXX.........X.O   ",
"    .XXXXX......X.........X.O   ",
"    .XXXXXXXXXXXX...XXXX..X.O   ",
"    .XXXXX......X...XXXX..X.O   ",
"    .XXXXXXXXXXXX.........X.O   ",
"    .XX.........X.........X.O   ",
"    .XXXXXXXXXXXX........XX.O   ",
"    .XX.........X...XXXXXXX.O   ",
"    .XXXXXXXXXXXX...XXXXXXX.O   ",
"    .XXXXX...X..X...XXXXXXX.O   ",
"    .XXXXXXXXX..X...XXXXXXX.O   ",
"    .XXXXXXXXX..X...XXXXXXX.O   ",
"    .XXXXXXXXXXXXXXXXXXXXXX.O   ",
"    ........................O   ",
"     OOOOOOOOOOOOOOOOOOOOOOOO   "};
