/* XPM */
static char * parent_dir_xpm[] = {
"32 32 7 1 0 0",
" 	s None	c None",
".	c black",
"X	c tan",
"o	c wheat",
"O	c navy blue",
"+	c gray50",
"@	c dodger blue",
"                                ",
"                                ",
"                                ",
"                                ",
"                                ",
"                  .......       ",
"                 .XXXXXXX.      ",
"                .XXXXXXXXX.     ",
"  ...........................   ",
" .ooooooooooooooooooooooooooo.  ",
" .ooooooooooooOOOoooooooooooo.+ ",
" .oooooooooooOOOOOooooooooooo.+ ",
" .ooooooooooOOOOOOOoooooooooo.+ ",
" .oooooooooOOOOOOOOOooooooooo.+ ",
" .ooooooooOOOOOOOOOOOoooooooo.+ ",
" .oooooooOOOOOOOOOOOOOooooooo.+ ",
" .ooooooOOOOOOoooOOOOOOoooooo.+ ",
" .oooooOOOOOOo...oOOOOOOooooo.+ ",
" .ooooOOOOOOo.@@@.oOOOOOOoooo.+ ",
" .oooOOOOOOo.@@@@@.oOOOOOOooo.+ ",
" .ooOOOOOOo.@@@@@@@.oOOOOOOoo.+ ",
" .oOOOOOOo.@@@@@@@@@.oOOOOOOo.+ ",
" .ooooooo.@@@@@@@@@@@.ooooooo.+ ",
" .oooooo.@@@@@@@@@@@@@.oooooo.+ ",
" .ooooo.@@@@@@@@@@@@@@@.ooooo.+ ",
" .oooo.@@@@@@@@@@@@@@@@@.oooo.+ ",
" .ooo.@@@@@@@@@@@@@@@@@@@.ooo.+ ",
" .oo.......................oo.+ ",
" .ooooooooooooooooooooooooooo.+ ",
" .............................+ ",
"  +++++++++++++++++++++++++++++ ",
"                                "};
