/* XPM */
static char * pgm[] = {
"32 32 5 1",
" 	c None s None",
".	c black",
"X	c lemon chiffon",
"o	c tan",
"O	c gray50",
"    ..................          ",
"    .XXXXXXXXXXXXXXXX..         ",
"    .XXXXXXXXXXXXXXXX.o.        ",
"    .X...XXX..XX.XX.X.oo.       ",
"    .X.XX.X.XX.X....X.ooo.      ",
"    .X.XX.X.XXXX.XX.X.oooo.     ",
"    .X...XX.X..X.XX.X.ooooo.    ",
"    .X.XXXX.XX.X.XX.X.......O   ",
"    .X.XXXXX..XX.XX.XXooooo.O   ",
"    .XXXXXXXXXXXXXXXXXooooo.O   ",
"    .XXXXXXXXXXXXXXXXXXXXXX.O   ",
"    .XXX................XXX.O   ",
"    .XXX....XX....XX....XXX.O   ",
"    .XXX....XX....XX....XXX.O   ",
"    .XXX................XXX.O   ",
"    .XXX.XX.XX....XX.XX.XXX.O   ",
"    .XXX.XX.XX....XX.XX.XXX.O   ",
"    .XXX................XXX.O   ",
"    .XXX.XX....XX....XX.XXX.O   ",
"    .XXX.XX....XX....XX.XXX.O   ",
"    .XXX................XXX.O   ",
"    .XXX....XX.XX....XX.XXX.O   ",
"    .XXX....XX.XX....XX.XXX.O   ",
"    .XXX................XXX.O   ",
"    .XXX.XX.......XX....XXX.O   ",
"    .XXX.XX.......XX....XXX.O   ",
"    .XXX................XXX.O   ",
"    .XXXXXXXXXXXXXXXXXXXXXX.O   ",
"    .XXXXXXXXXXXXXXXXXXXXXX.O   ",
"    .XXXXXXXXXXXXXXXXXXXXXX.O   ",
"    ........................O   ",
"     OOOOOOOOOOOOOOOOOOOOOOOO   "};
