/* XPM */
static char * postscript2[] = {
"32 32 5 1",
" 	c None s None",
".	c black",
"X	c lemon chiffon",
"o	c tan",
"O	c gray50",
"    ..................          ",
"    .XXXXXXXXXXXXXXXX..         ",
"    .XXXXXXXXXXXXXXXX.o.        ",
"    .XXXXXXXXXXXXXXXX.oo.       ",
"    .XXXXXXXXXXXXXXXX.ooo.      ",
"    .XXXXXXXXXXXXXXXX.oooo.     ",
"    .XXXXXXXXXXXXXXXX.ooooo.    ",
"    .XXXXXXXXXXXXXXXX.......O   ",
"    .XXXXXXXXX.XX..XXXooooo.O   ",
"    .XXXXXXXX.XX..XXXXooooo.O   ",
"    .XXXXXXXX.XX..XXXXXXXXX.O   ",
"    .XXXXXXX.XX..XXXXXXXXXX.O   ",
"    .XXXXXX..XX..XXXXXXXXXX.O   ",
"    .XX.....XX..XXXXX....XX.O   ",
"    .X.....XX..XXXXXX.....X.O   ",
"    .X.....XX..XXXXX......X.O   ",
"    .X....XX..XXXXXX......X.O   ",
"    .X....XX..XXXXX.......X.O   ",
"    .X...XX...XXXXX.......X.O   ",
"    .X...XXXX..XXX........X.O   ",
"    .X......XX..XX........X.O   ",
"    .X.......XX.X.........X.O   ",
"    .X........X.X.........X.O   ",
"    .X........X.X.........X.O   ",
"    .X........XX..........X.O   ",
"    .XX......XX..........XX.O   ",
"    .XXXXXXXXXXXXXXXXXXXXXX.O   ",
"    .XXXXXXXXXXXXXXXXXXXXXX.O   ",
"    .XXXXXXXXXXXXXXXXXXXXXX.O   ",
"    .XXXXXXXXXXXXXXXXXXXXXX.O   ",
"    ........................O   ",
"     OOOOOOOOOOOOOOOOOOOOOOOO   "};
