/* XPM */
static char * printer_xpm[] = {
"64 56 6 1",
" 	c white",
".	s none c none",
"X	c #D34CD34CD34C",
"o	c black",
"O	c #BEFBBEFBBEFB",
"+	c yellow",
"................................................................",
"................................................................",
"................................................................",
"................................................................",
"................................................................",
"................................................................",
"................................................................",
"..............                         .........................",
".............                           ........................",
".............                          X .......................",
"........        X                   X             ..............",
"........ XXXX   oooooooooooooooooooooX   XXXXXXXXX .............",
".......  XXXX  Xo                    o   XXXXXXXXXX ............",
"....... XXXX    oooooooooooooooooooooXX   XXXXXXXXXX ...........",
"......  XXXX                          X    XXXXXXXXXX ..........",
"......                                 X               .........",
".....                                                   ........",
"..... X                                                  .......",
"..... X                                                   ......",
".....                                                     ......",
".....                                                     ......",
".....                                           X X X X   ......",
"..... XXXXXXXXXXXXXXXXXXXXXXXXXXXXXXXXXXXXXXXXXXXXXXXXXXXO......",
"..... X                                   X              o......",
"..... X                                   X XXXXo+++++o  o......",
"..... X                                   X XXXXo+++++o  o......",
"..... X                                   X             Xo......",
"..... X                                   X O O O O O O Xo......",
"..... X                                   X oOoOoOoOoOo Xo......",
"..... X        oooooooooooooooooooooooooo X             Xo......",
"..... X       Xoo    oooooooooooooo    oo  oOoOoOoOoOoOoXo......",
"..... X X X X oXo oOOXOXOOXOXXOXOXXOOo oXO XOXOXOXOXOXOXXo......",
"..... XX X X XoXXXXX X X       XXXXXXXXXXo   X X X X X X o......",
"..... XXXXXXXoXXXXX X X          XXXXXXXXoo XXXXXXXXXXXXXo......",
"..... XXXXXXXoX X  X                    XXo XXXXXXXXXXXXXo......",
"..... XXXXXXoX X  X                    X XXoXXXXXXXXXXXXXo......",
"..... XXXXXXOOOOOOOOOOOOOOOOOOOOOOOOOOOOOOOOXXXXXXXXXXXXXo......",
"..... XXXXXXooooooooooooooooooooooooooooooooXXXXXXXXXXXXXo......",
"..... OOOOOOXXXXXXXXXXXXXXXXXXXXXXXXXXXXXXXXOOOOOOOOOOOOOo......",
".....  OooooXXXXXXXXXXXXXXXXXXXXXXXXXXXXXXXXOOOooooooooOOo......",
"...... OOOOOOOOOOOOOOOOOOOOOOOOOOOOOOOOOOOOOOOOOOOOOOOOOo.......",
"...... OooooooOOOOOOOOOOOOOOOOOOOOOOOOOOOOOOOOOooooooooOo.......",
"...... OOOOOOOOOOOOOOOOOOOOOOOOOOOOOOOOOOOOOOOOOOOOOOOOOo.......",
"...... OooooooooOOOOOOOOOOOOOOOOOOOOOOOOOOOOOOOooooooooOo.......",
"...... OOOOOOOOOOOOOOOOOOOOOOOOOOOOOOOOOOOOOOOOOOOOOOOOOo.......",
"...... OOOOOOOOOOOOOOOOOOOOOOOOOOOOOOOOOOOOOOOOOOOOOOOOOo.......",
"......Ooooooooooooooooooooooooooooooooooooooooooooooooooo.......",
"................................................................",
"................................................................",
"................................................................",
"................................................................",
"................................................................",
"................................................................",
"................................................................",
"................................................................",
"................................................................"};
