/* XPM */
static char * recycle_xpm[] = {
"51 51 4 1 26 23",
" 	c white",
".	s none c none",
"X	c black",
"o	c yellow",
"...................................................",
".................XXXXXXXXXXXXXXXXXXX...............",
"...............XXooooooooooooXXXXoXoXX.............",
"..............XoooooooooooooXXXXoXooooX............",
".............XoooooooooooooXXXXoXooooooX...........",
".............XooooooooooooXXXXoXoooooooX...........",
"............XoooooooooooooXXXoXoooooooooX...XXX....",
"............XooooooooooooX.XoXooooooooooX.XXXXX....",
"...........XoooooooooooooX.XXooooooooooooXXoXX.....",
"...........XooooooooooooX...XoooooooooooooooX......",
"..........XoooooooooooooX...XooooooooooooooX.......",
"..........XooooooooooooX.....XooooooooooooXX.......",
".........XoooooooooooooX.....XooooooooooooX........",
"..........XXooooooooooX.......XooooooooooX.........",
"............XXooooooooX......XXoooooooooXX.........",
"..............XXoooooX....XXXoooooooooooX..........",
"................XXoooX....XXXXXXXXXXXXXX...XXX.....",
".XXXXXXXXXXXXXX...XXX....................XXooX.....",
".XooooooooooooXX....X..................XXoooooX....",
"..XXoooooooooooX.....................XXoooooooX....",
"....XXoooooooooXX..................XXooooooooooX...",
".....XooooooooooX.................XooooooooooooX...",
"....XooooooooooooX................XoooooooooooooX..",
"....XooooooooooooXX................XooooooooooooX..",
"...XooooooooooooooX................XoooooooooooooX.",
"...XoooooooooooooooX................XooooooooooooX.",
"...XooooooooooooXooXX...............XooooooooooooX.",
"...XoooooooooooXXXXoX................XoooooooooooX.",
"...XoooooooooooX...XX..........XX....XoooooooooooX.",
"....XoooooooooX................XX.....XoooooooooX..",
"....XoooooooooX...............XoX.....XoooooooooX..",
".....XoooooooX................XoX......XoooooooX...",
".....XoooooooX...............XooX......XooooXXXX...",
"......XoooooXXXXXXXXXXXXX....XooXXXXXXXXXXXXXXX....",
"......XoooooXXXXoXooooooX...XooooooooooooooooXX....",
".......XoooXXXXoXoooooooX...XoooooooooooooooXX.....",
".......XoooXXXoXooooooooX..XooooooooooooooooXX.....",
"........XoXXXoXoooooooooX..XoooooooooooooooXX......",
"........XoXXXXooooooooooX.XooooooooooooooooXX......",
".........XXXXoooooooooooX.XooooooooooooooooX.......",
".........XXXXoooooooooooX..XooooooooooooooXX.......",
"..........XXXoooooooooooX..XoooooooooooooXX........",
"...........XooooooooooooX...XoooooooooooXX.........",
"............XXooooooooooX...XoooooooooXXX..........",
"..............XXXXXXXXXXX....XooXXXXXXX............",
".............................XooX..................",
"..............................XoX..................",
"..............................XoX..................",
"...............................XX..................",
"...............................XX..................",
"..................................................."};
