/* XPM */
static char * report_xpm[] = {
/* width height ncolors chars_per_pixel */
"32 32 9 1",
/* colors */
" 	s None	c None",
".	c black",
"X	c white",
"o	c grey",
"O	c wheat",
"+	c dodger blue",
"@	c red",
"#	c slate grey",
"$	c lime green",
/* pixels */
"   ...................          ",
"   .XXXXXXXXXXXXXXXXX..         ",
"   .XXXXXXXXXXXXXXXXX.o.        ",
"   .XXXXXXXXXXXXXXXXX.oo.       ",
"   .XXXXXXXXXXXXXXXXX.ooo.      ",
"   .XXXXXXXXXXXXXXXXX.oooo.     ",
"   .XXXXXXXXXXXXXXXXX.ooooo.    ",
"   .XXXXXXXXXXXXXXXXX........   ",
"   .XXXXXXXXXXXXXXXXXXooooo..   ",
"   .XXXXXXXXXXXXX.....Xoooo..   ",
"   .X...................XXX..   ",
"   .X.OOOOOOOOOOO.OOO.O.XXX..   ",
"   .X.O+++O+++O++.OOO.O.XXX..   ",
"   .X.OOOOOOOOOOO.OOO.O.XXX..   ",
"   .X.O++OOO+++O+.OOO.O.XXX..   ",
"   .X.OOOOOOOOOOO.OOO.O.XXX..   ",
"   .X.O...................X..   ",
"   .X.O.OOOOOOOOOOOOOOOOO.X..   ",
"   .X.O.OOOOOO@OO#OOOO$OO.X..   ",
"   .X.O.OOOO@O@OO#OO$$OOO.X..   ",
"   .X.O.OO@O@O@OO#$$OOOOO.X..   ",
"   .X.O.OO@O@O@OO#OOOOOOO.X..   ",
"   .X...OO@O@O@OO#OOOOOOO.X..   ",
"   .XXX.OO@O@O@OO######OO.X..   ",
"   .XXX.OOOOOOOOOOOOOOOOO.X..   ",
"   .XXX.OOOOOOOOOOOOOOOOO.X..   ",
"   .XXX.O+++OO+++OO+O+++O.X..   ",
"   .XXX.OOOOOOOOOOOOOOOOO.X..   ",
"   .XXX...................X..   ",
"   .XXXXXXXXXXXXXXXXXXXXXXX..   ",
"   ..........................   ",
"    .........................   "};
