/* XPM */
static char * rubbish_xpm[] = {
"40 40 14 1",
" 	c None	s None",
"x 	c #FFFFFF",
".	c #000000",
"X	c #0000FF",
"o	c #00FFFF",
"O	c #008200",
"+	c #00FF00",
"@	c #FF00FF",
"#	c #820082",
"$	c #414141",
"%	c #FFFF00",
"&	c #828282",
"*	c #828200",
"=	c #C3C3C3",
"                                        ",
"                                        ",
"                ...                     ",
"               ..XX.. ....              ",
"            ...XXoXX..O+O..             ",
"        .....@@@XXXX.+OO+O..            ",
"        .@@@@###@.X.OOOOO+O.$$$         ",
"       .####......XO..OOO.O....$$       ",
"       ...#.%%%%...X.X.......@@.$       ",
"       $&...%%%%%...XXXX.xx.@@#.$       ",
"       $&x$.**%%%.xx.XXX.x.@##..$       ",
"      $&===..*$**..xxxxX...##..=$$      ",
"     &$$x=x....O..&..xx..&...&&&&&$     ",
"    $=&$x=x=x=...&&&.xx.&&..&&&&$$=&    ",
"   $=&=$==x$&&..&&&&....&&&$&&&&$=$=$   ",
"    $=$&==xx$&&&$&&&&&$&&&x&&&&&$&=$    ",
"     $==$=x$$x&x=$&&&&&$=&x&&&&$$$$     ",
"     $$$$=x$$&&&=$&&&&&$=&x&&&&$$$$     ",
"     $====xx$&&&=$&&&&&$=&&&&$&&&$$     ",
"     $x===x$x&&x=&&&&x&$=&&x&&&&&&$     ",
"     $x===x$=&&&=$&&&&&$&&&&&$&&&&$     ",
"     $====x$x&&x=&&&&&&$=&&x&$&&&&$     ",
"     $x===x$&&&&=$&&&&&$&&&&&$&&&&$     ",
"     $x===x$&&&x=&&&&x&$=&&x&&&&&&&     ",
"     $====x$&&&x=$&&&x&$=&&&&$=&&&$     ",
"     $x===x$&&&x=$&&&&&$=&&x&$=&&&$     ",
"     $x===x$&&&&=$&&&&&$=&&&&$=&&&$     ",
"      $===x$x&&x=$&&&x&$=&&&&$=&&$      ",
"      $x==x$$x&&=$&&&x&$=&&x&$=&&$      ",
"      $x==$x$&&&=&&&&x&$=&x&&&&&&$      ",
"      $===x$$x&x=&&&&&&$=&x$$=&&&$      ",
"      $x==x$$&&&=&&&&&&$=&x$$=&&&$      ",
"      $x==&$x&&x=$&&&x&$=&=$=&=&&$      ",
"       $==&x=&&&$&&&&&$&&&&&&&&&$       ",
"       $=&&&&&&&&&&&&&&&&&&&&&&&$       ",
"        $&&&&&&&&&&&&&&&&&=&&&$$        ",
"         $$$&&&&&&&&&&&&&&$&$$$         ",
"            &&$&&&&&&&&&&$$$            ",
"               ..........               ",
"                                        "};
