/* XPM */
static char * dot_s[] = {
"32 32 5 1",
" 	c None s None",
".	c black",
"X	c lemon chiffon",
"o	c tan",
"O	c gray50",
"    ..................          ",
"    .XXXXXXXXXXXXXXXX..         ",
"    .XXXXXXXXXXXXXXXX.o.        ",
"    .XXXXXXXXXXXXXXXX.oo.       ",
"    .XX...XX.......XX.ooo.      ",
"    .XXXXXXXXXXXXXXXX.oooo.     ",
"    .XX...XX.....XXXX.ooooo.    ",
"    .XXXXXXXXXXXXXXXX.......O   ",
"    .XX...XX.......XXXooooo.O   ",
"    .XXXXXXXXXXXXXXXXXooooo.O   ",
"    .XXXXXXXXXXXXXXXXXXXXXX.O   ",
"    .XXXXXXXXXXXXXXXXXXXXXX.O   ",
"    .XX...XX.......XXXXXXXX.O   ",
"    .XXXXXXXXXXXXXXXXXXXXXX.O   ",
"    .XX...XX...........XXXX.O   ",
"    .XXXXXXXXXXXXXXXXXXXXXX.O   ",
"    .XX...XX........XXXXXXX.O   ",
"    .XXXXXXXXXXXXXXXXXXXXXX.O   ",
"    .XXXXXXXXXXXXXXXXXXXXXX.O   ",
"    .XXXXXXXXXXXXXX.....XXX.O   ",
"    .XX...XX.....X........X.O   ",
"    .XXXXXXXXXXXXX...XX...X.O   ",
"    .XX...XX...XXX.....XXXX.O   ",
"    .XXXXXXXXXXXXXX......XX.O   ",
"    .XX...XX....XXXXX.....X.O   ",
"    .XXXXXXXXXXXXXXXXXX...X.O   ",
"    .XX...XX..X..X...XX...X.O   ",
"    .XXXXXXXXXX..X.......XX.O   ",
"    .XXXXXXXXXX..XXX....XXX.O   ",
"    .XXXXXXXXXXXXXXXXXXXXXX.O   ",
"    ........................O   ",
"     OOOOOOOOOOOOOOOOOOOOOOOO   "};
