/* XPM */
static char * scroll_xpm[] = {
"64 54 4 1 0 0",
" 	s None	c None",
".	c black",
"X	c lemon chiffon",
"o	c white",
"                                   .........                    ",
"                              .....XXXXXXXXX.                   ",
"                       .......XXXXXXXXXXXXXXX.                  ",
"            ...........XXXXXXXXXXXXXXXXXXXXXXX.                 ",
"      ......XXXXXXXXXXXXXXXXXXXXXXXXXXXXXXXXXX.                 ",
"   .......XXXXXXXXXXXXXXXXXXXXXXXXXXXXXXXXXXXX.       ........  ",
" ..XXXXXXX..XXXXXXXXXXXXXXXXXXXXXXXXXXXXXXXXXX.    ...ooooooo.  ",
" .XX....XXX..XXXXXXXXXXXXXXXXXXXXXXXXXXXXXXXX.   ..oooooooooo.  ",
".XX..XX..XXX..XXXXXXXXXXXXXXXXXXXXXXXXXXXXXXX. ..oooo.....oo.   ",
".XX.XXXXX.XXX..XXXXXXX.X.XXXXXXXXXXXXXXX.XXXXX.oo....oooo....   ",
".XX.XX..XX.XX..XXXX.X...XX.XXXXXX.X.XX.XXXXX..ooooooooooooo.    ",
" .XX.XX.XX.X. .XXXXX.XXXXXXXXXX.X.XXX.XXXX..ooo........ooo.     ",
" .XXX..XX...  ..XXXXXXXXXXXX..XX.XXXXXXX..oo...ooooooo....      ",
"  ..XXXX..     .XXXXXXXXXXXXX.XXXXXXXXX.oooooooooooooooo..      ",
"    ....       .XXXXXXXXXXXXXXXXXXXXX..oooo........oooo.        ",
"               .XXXXXXXXXXXXXXXXXXXX.oo....ooooooo.....         ",
"               .XXXXXXXX.XX..XXXXX..oooooooooooooooo..          ",
"                .XXX..X.XX.XXXXX..ooooo........oooo.            ",
"                .XXX.XXX..XXXXX.oo.....ooooooo.....             ",
"                .XXXX.XXXXXXXX.ooooooooooooooooo.               ",
"                .XXXXXXXXXXX..oooo.......ooooo...               ",
"                 .XXXXXXXXX.oo....oooooo......XX.               ",
"                 .XXXXXXX..ooooooooooooooo..XXX..               ",
"                 .XXXXX..oooo......oooo...XXXX.o.               ",
"                  .XX..oo....oooooo....XXXXXXXX.o.              ",
"                  XX.oooooooooooooo...XXXXXXXX.o..              ",
"                  ..ooo.....oooo...XXXXXXXXXXXX.o.              ",
"                 .oo...ooooo.....XXXXXXXXXXXXX.o.o.             ",
"               ..oooooooo.....XXXXXXXXXXXXXXXXX.o..             ",
"             ...oooooo...XXXXXXXXXXXXXXXXXXXXX.o.o.             ",
"            ..  ......XXXXXXXXXXXXXXXXXXXXXXXXX.o.o.   ..       ",
"           ..       .XXXXXXXXXXXXXXXXXXXXXXXXX.o.o... .XX..     ",
"        ....        .XXXXXXXXXXXXXXXXXXXXXXXX.o.o.o...XXXX..    ",
"      .....          .XXXXXXXXXXXXXXXXXXXXXX.o.o.o...XXXXXX..   ",
"     ......          .XXXXXXXXXXXXXXXXXXXXX.o.o.o..XXXXXXXXX..  ",
"   ......            .XXXXXXXXXXXXXXXXXXXX.o.o...XXXXXXXXXX.o.  ",
"  ....   .....       ..XXXXXXXXXXXXXXXXX......XXXXXXXXXXXX.o..  ",
" ...   ..ooooo..      .XXXXXX...........XXXXXXXXXXXXXXXXX.o.o.  ",
".     .o.......o.     .XXXX....XXXXXXXXXXXXXXXXXXXXXXXXX.o.o..  ",
"      ..oooooooo.     .XX..XXXX..XXXXXXXXXXXXXXXXXXXX.X.o.o..   ",
"       ...o..o..      .XX.XX..XX..XXXXXXXXXXXXXXXX.X.o.o....    ",
"       .oo.oo.oo.      .X.X..X.XX..XXXXXXXXXXXXXX.o.o...        ",
"      .ooo.oo.oo.      .X.XX.XX.X..XXXXXXXXXXX.X......          ",
"     .ooo.oooo.oo.     .XX.XXX.XX..XXXXXXXXXX....               ",
"    .ooo.oooooo.oo..    .XX...XX..XXXXXX.....                   ",
"  ..oo...........ooo.    .XXXXX..XXX....                        ",
"  ...................     ..XX..XX..                            ",
"  ...................       ......                              ",
"  ...................                                           ",
"  ...................                                           ",
"    ...............                                             ",
"      ...........                                               ",
"                                                                ",
"                                                                "};
