/* XPM */
static char * dot_so[] = {
"32 32 5 1",
" 	c None s None",
".	c black",
"X	c lemon chiffon",
"o	c tan",
"O	c gray50",
"    ..................          ",
"    .XXXXXXXXXXXXXXXX..         ",
"    .XXXXXXXXXXXXXXXX.o.        ",
"    .XXXXXXXXXXXXXXXX.oo.       ",
"    .XX...X...X...X.X.ooo.      ",
"    .XXXXXXXXXXXXXXXX.oooo.     ",
"    .XX...X...X...X.X.ooooo.    ",
"    .XXXXXXXXXXXXXXXX.......O   ",
"    .XX...X...X...X.XXooooo.O   ",
"    .XXXXXXXXXXXXXXXXXooooo.O   ",
"    .XX...X...X...X...X...X.O   ",
"    .XXXXXXXXXXXXXXXXXXXXXX.O   ",
"    .XX...X...X...X...X...X.O   ",
"    .XXXXXXXXXXXXXXXXXXXXXX.O   ",
"    .XX...X...X...X...X...X.O   ",
"    .XXXXXXXXXXXXXXXXXXXXXX.O   ",
"    .XX...X...X...X...X...X.O   ",
"    .XXXXXXXXXXXXXXXXXXXXXX.O   ",
"    .XXXXXXX.....XXX....XXX.O   ",
"    .XXXXX.......XX......XX.O   ",
"    .XXXXX.......X........X.O   ",
"    .XXXXX...XXXXX...XX...X.O   ",
"    .XXXXX....XXXX...XX...X.O   ",
"    .XXXXXX.....XX...XX...X.O   ",
"    .XXXXXXXX....X...XX...X.O   ",
"    .XXXXXXXXX...X...XX...X.O   ",
"    .X...X.......X........X.O   ",
"    .X...X.......XX......XX.O   ",
"    .X...X......XXXX....XXX.O   ",
"    .XXXXXXXXXXXXXXXXXXXXXX.O   ",
"    ........................O   ",
"     OOOOOOOOOOOOOOOOOOOOOOOO   "};
