/* XPM */
static char * sound[] = {
"32 32 7 1",
",	c None	s None",
" 	c white",
".	c black",
"X	c lemon chiffon",
"o	c tan",
"O	c blue",
"+	c gray50",
",,,,..................,,,,,,,,,,",
",,,,.XXXXXXXXXXXXXXXX..,,,,,,,,,",
",,,,.XXXXXXXXXXXXXXXX.o.,,,,,,,,",
",,,,.XXXXXXXXOXXXXXXX.oo.,,,,,,,",
",,,,.XXXXXXXXOXXXXXXX.ooo.,,,,,,",
",,,,.XXXXXXXXOXXXXXXX.oooo.,,,,,",
",,,,.XXXXXXXXOXXXXXXX.ooooo.,,,,",
",,,,.XXXXXXXOOOXXXXXX.......+,,,",
",,,,.XXXXXXXOOOXXXXXXoooooo.+,,,",
",,,,.XXXXXXXOOOXXXXXXXXoooo.+,,,",
",,,,.XXXOXXXOOOXXOXXXXXXXXX.+,,,",
",,,,.XXXOXXXOOOXXOXXXOXXXXX.+,,,",
",,,,.XXXOXXOOOOXOOOXXOXXXXX.+,,,",
",,,,.XXXOOXOOOOXOOOXXOXXXXX.+,,,",
",,,,.XXXOOXOOOOXOOOXXOOXXXX.+,,,",
",,,,.XXOOOXOOOOXOOOXOOOOXXX.+,,,",
",,,,.OOOOOOOOOOXOOOXOOOOOOO.+,,,",
",,,,.XXOXOOOOXOXOOOOOOXOXXX.+,,,",
",,,,.XXXXOOOXXOOOOOOOOXXXXX.+,,,",
",,,,.XXXXOOOXXOOOOXOOXXXXXX.+,,,",
",,,,.XXXXOOOXXOOOOXOOXXXXXX.+,,,",
",,,,.XXXXOOOXXOOOOXXOXXXXXX.+,,,",
",,,,.XXXXXOXXXXOXOXXXXXXXXX.+,,,",
",,,,.XXXXXOXXXXOXOXXXXXXXXX.+,,,",
",,,,.XXXXXOXXXXOXXXXXXXXXXX.+,,,",
",,,,.XXXXXXXXXXOXXXXXXXXXXX.+,,,",
",,,,.XXXXXXXXXXOXXXXXXXXXXX.+,,,",
",,,,.XXXXXXXXXXXXXXXXXXXXXX.+,,,",
",,,,.XXXXXXXXXXXXXXXXXXXXXX.+,,,",
",,,,.XXXXXXXXXXXXXXXXXXXXXX.+,,,",
",,,,........................+,,,",
",,,,,++++++++++++++++++++++++,,,"};
