/* XPM */
static char * spreadsheet[] = {
"32 32 6 1",
" 	c None s None",
".	c black",
"X	c lemon chiffon",
"o	c tan",
"O	c gray50",
"+	c wheat",
"    ..................          ",
"    .XXXXXXXXXXXXXXXX..         ",
"    .XXXXXXXXXXXXXXXX.o.        ",
"    .XXXXXXXXXXXXXXXX.oo.       ",
"    .XXXXXXXXXXXXXXXX.ooo.      ",
"    .XXXXXXXXXXXXXXXX.oooo.     ",
"    .XXXXXXXXXXXXXXXX.ooooo.    ",
"    .XXXXXXXXXXXXXXXX.......O   ",
"    .XXXXXXXXXXXXXXXXXooooo.O   ",
"    .XXXX.XX.XX.XX.XX.oo++o.O   ",
"    .XX..X..X..X..X..X..X.X.O   ",
"    .X.XXXXXXXXXXXXXXXXXXXX.O   ",
"    .XX..X..X..X..X..X..XXX.O   ",
"    .X.XXXXXXXXXXXXXXXXXXXX.O   ",
"    .XX..X..X..X..X..X.XXXX.O   ",
"    .X.XXXXXXXXXXXXXXXXXXXX.O   ",
"    .XX..X..X..X..X.XXXXXXX.O   ",
"    .X.XXXXXXXXXXXXXXXXXXXX.O   ",
"    .XX..X..X..X.XX.XXXXXXX.O   ",
"    .X.XXXXXXXXXXXXXXXXXXXX.O   ",
"    .XX..X..X.XX.XXXXXXXXXX.O   ",
"    .X.XXXXXXXXXXXXXXXXXXXX.O   ",
"    .XX..X.XX.XXXXXXXXXXXXX.O   ",
"    .X.XXXXXXXXXXXXXXXXXXXX.O   ",
"    .XX.XX.XXXXXXXXXXXXXXXX.O   ",
"    .X.XXXXXXXXXXXXXXXXXXXX.O   ",
"    .XX.XXXXXXXXXXXXXXXXXXX.O   ",
"    .X.XXXXXXXXXXXXXXXXXXXX.O   ",
"    .XXXXXXXXXXXXXXXXXXXXXX.O   ",
"    .XXXXXXXXXXXXXXXXXXXXXX.O   ",
"    ........................O   ",
"     OOOOOOOOOOOOOOOOOOOOOOOO   "};
