/* XPM */
static char * stop_xpm[] = {
"32 32 5 1 0 0",
" 	s None	c None",
".	c black",
"X	c white",
"o	c grey",
"O	c red",
"    ..................          ",
"    .XXXXXXXXXXXXXXXX..         ",
"    .XXXXXXXXXXXXXXXX.o.        ",
"    .XXXXXXXXXXXXXXXX.oo.       ",
"    .XXXXXXXXXXXXXXXX.ooo.      ",
"    .XXXXXXXXXXXXXXXX.oooo.     ",
"    .XXXXXXXXXXXXXXXX.ooooo.    ",
"    .XXXXXXXXXXXXXXXX........   ",
"    .XXXXXXXXXXXXXXXXXooooo..   ",
"    .XXXXXXX.........XXoooo..   ",
"    .XXXXXX..XXXXXXX..XXXXX..   ",
"    .XXXXX..XOOOOOOOX..XXXX..   ",
"    .XXXX..XOOOOOOOOOX..XXX..   ",
"    .XXX..XOOOOOOOOOOOX..XX..   ",
"    .XXX.XOOOOOOOOOOOOOX.XX..   ",
"    .XXX.XOXXXXXXXXXXXOX.XX..   ",
"    .XXX.XOXOOXOXOXXOXOX.XX..   ",
"    .XXX.XOXXXXOXOXXXXOX.XX..   ",
"    .XXX.XOOOXXOXOXXOOOX.XX..   ",
"    .XXX.XOXXXXOXXXXOOOX.XX..   ",
"    .XXX.XOOOOOOOOOOOOOX.XX..   ",
"    .XXX.XOOOOOOOOOOOOOX.XX..   ",
"    .XXX..XOOOOOOOOOOOX..XX..   ",
"    .XXXX..XOOOOOOOOOX..XXX..   ",
"    .XXXXX..XOOOOOOOX..XXXX..   ",
"    .XXXXXX..XXXXXXX..XXXXX..   ",
"    .XXXXXXX.........XXXXXX..   ",
"    .XXXXXXXXXXXXXXXXXXXXXX..   ",
"    .XXXXXXXXXXXXXXXXXXXXXX..   ",
"    .XXXXXXXXXXXXXXXXXXXXXX..   ",
"    .........................   ",
"     ........................   "};
