/* XPM */
static char * system_xpm[] = {
"32 32 5 1 0 0",
" 	s None	c None",
".	c black",
"X	c white",
"o	c grey",
"O	c gainsboro",
"   ...................          ",
"   .XXXXXXXXXXXXXXXXX..         ",
"   .XXXXXXXXXXXXXXXXX.o.        ",
"   .XXXXXXXXXXXXXXXXX.oo.       ",
"   .XXXXXXXXXXXXXXXXX.ooo.      ",
"   .XXXXXXXXXXXXXXXXX.oooo.     ",
"   .XXXXXXXXXXXXXXXXX.ooooo.    ",
"   .XXXXXXXXXXXXXXXXX........   ",
"   .XXXX..........XXXXooooo..   ",
"   .XXX.OOOOOOOOOO.XXXXoooo..   ",
"   .XXX.OO......OO.XXXXXXXX..   ",
"   .XXX.O.XXXXXX.O.XXXXXXXX..   ",
"   .XXX.O.XX.....O.XXXXXXXX..   ",
"   .XXX.O.XX.....O.XXXXXXXX..   ",
"   .XXX.O.XX.....O.XXXXXXXX..   ",
"   .XXX.O.XX.....O.XXXXXXXX..   ",
"   .XXX.O........O.XXXXXXXX..   ",
"   .XXX.OO......OO.XXXXXXXX..   ",
"   .XXX.OOOOOOOOOO.XXXXXXXX..   ",
"   .XXX.OOOOO....O.XXXXXXXX..   ",
"   .XXX.OOOOOOOOOO.XXXXXXXX..   ",
"   .XXX............X...XX....   ",
"   .XXX.oooooooooo.......XX..   ",
"   .XXX............X...XXXX..   ",
"   .XXXXXXXXXXXXXXXXXXXXXXX..   ",
"   .XXXXXXXXXXXXXXXXXXXXXXX..   ",
"   .XXXXXXXXXXXXXXXXXXXXXXX..   ",
"   .XXXXXXXXXXXXXXXXXXXXXXX..   ",
"   .XXXXXXXXXXXXXXXXXXXXXXX..   ",
"   .XXXXXXXXXXXXXXXXXXXXXXX..   ",
"   ..........................   ",
"    .........................   "};
