/* XPM */
static char * system_dir_xpm[] = {
"32 32 7 1 0 0",
" 	s None	c None",
".	c black",
"X	c tan",
"o	c wheat",
"O	c slate grey",
"+	c gainsboro",
"@	c white",
"                                ",
"                                ",
"                                ",
"                                ",
"                                ",
"                  .......       ",
"                 .XXXXXXX.      ",
"                .XXXXXXXXX.     ",
"  ...........................   ",
" .ooooooooooooooooooooooooooo.  ",
" .ooooooooooooooooooooooooooo.O ",
" .ooooooooooooooooooooooooooo.O ",
" .oooooooo..........ooooooooo.O ",
" .ooooooo.++++++++++.oooooooo.O ",
" .ooooooo.++......++.oooooooo.O ",
" .ooooooo.+.@@@@@@.+.oooooooo.O ",
" .ooooooo.+.@@.....+.oooooooo.O ",
" .ooooooo.+.@@.....+.oooooooo.O ",
" .ooooooo.+.@@.....+.oooooooo.O ",
" .ooooooo.+.@@.....+.oooooooo.O ",
" .ooooooo.+........+.oooooooo.O ",
" .ooooooo.++......++.oooooooo.O ",
" .ooooooo.++++++++++.oooooooo.O ",
" .ooooooo.+++++....+.oooooooo.O ",
" .ooooooo.++++++++++.oooooooo.O ",
" .ooooooo............o...oo...O ",
" .ooooooo.OOOOOOOOOO.......oo.O ",
" .ooooooo............o...oooo.O ",
" .ooooooooooooooooooooooooooo.O ",
" .............................O ",
"  OOOOOOOOOOOOOOOOOOOOOOOOOOOOO ",
"                                "};
