/* XPM */
static char * tag_xpm[] = {
"32 32 5 1 0 0",
" 	s None	c None",
".	c black",
"X	c white",
"o	c grey",
"O	c tomato",
"    ..................          ",
"    .XXXXXXXXXXXXXXXX..         ",
"    .XXXXXXXXXXXXXXXX.o.        ",
"    .X......XXXXXXXXX.oo.       ",
"    .XXXXXXXXXXXXXXXX.ooo.      ",
"    .X......XXXXXXXXX.oooo.     ",
"    .XXXXXXXXXXXXXXXX.ooooo.    ",
"    .X......XXXXXXXXX........   ",
"    .XXXXXXXXXXXXXXXXXooooo..   ",
"    .X......XXXXXXXXXXXoooo..   ",
"    .XXXXXXXXXXXXXXXXXXXXXX..   ",
"    .X......XX...XX.XXX..XX..   ",
"    .XXXXXXXXXX.XX.X.X.XXXX..   ",
"    .X......XXX.XX...X.X.XX..   ",
"    .XXXXXXXXXX.XX.X.XX..XX..   ",
"    .X......XXXXXXXXXXXXXXX..   ",
"    .XXXXXXXXXXXXXXX.XXXXXX..   ",
"    .X......XXXXXXXX.XXXXXX..   ",
"    .XXXXXXXXXXXXXXX.XXXXXX..   ",
"    .X......XXX.XXXX.XXXXXX..   ",
"    .XXXXXXXXX.XXXX.XXXXXXX..   ",
"    .XOOOOOOX......XXXXXXXX..   ",
"    .XXXXXXXXX.XXXXXXXXXXXX..   ",
"    .X......XXX.XXXXXXXXXXX..   ",
"    .XXXXXXXXXXXXXXXXXXXXXX..   ",
"    .X......XXXXXXXXXXXXXXX..   ",
"    .XXXXXXXXXXXXXXXXXXXXXX..   ",
"    .X......XXXXXXXXXXXXXXX..   ",
"    .XXXXXXXXXXXXXXXXXXXXXX..   ",
"    .XXXXXXXXXXXXXXXXXXXXXX..   ",
"    .........................   ",
"     ........................   "};
