/* XPM */
static char * tar[] = {
"32 32 6 1",
",	c None	s None",
" 	c white",
".	c black",
"X	c lemon chiffon",
"o	c tan",
"O	c gray50",
",,,,..................,,,,,,,,,,",
",,,,.XXXXXXXXXXXXXXXX..,,,,,,,,,",
",,,,.XXXXXXXXXXXXXXXX.o.,,,,,,,,",
",,,,.X.....X..XX...XX.oo.,,,,,,,",
",,,,.XXX.XX.XX.X.XX.X.ooo.,,,,,,",
",,,,.XXX.XX.XX.X.XX.X.oooo.,,,,,",
",,,,.XXX.XX....X...XX.ooooo.,,,,",
",,,,.XXX.XX.XX.X.X.XX.......O,,,",
",,,,.XXX.XX.XX.X.XX.XXooooo.O,,,",
",,,,.XXXXXXXXXXXXXXXXXXoooo.O,,,",
",,,,.XXXXXXXXXXXXXXXXXXXXXX.O,,,",
",,,,.X....................X.O,,,",
",,,,.X.OOOOOOOOOOOOOOOOOO.X.O,,,",
",,,,.X.OOOOOO........OOOO.X.O,,,",
",,,,.X.OOOOO.OOOOOOOO.OOO.X.O,,,",
",,,,.X.OOOO.OOOOOOOOO.OOO.X.O,,,",
",,,,.X.OOOO.OOOOOOOOOO.OO.X.O,,,",
",,,,.X.OOO.OOOOOOOOOOO.OO.X.O,,,",
",,,,.X.OOO.OOOOOO.....O.O.X.O,,,",
",,,,.X.OO.OOOOOO........O.X.O,,,",
",,,,.X.OO.OOOOO.........O.X.O,,,",
",,,,.X.O....OOO.........O.X.O,,,",
",,,,.X.O.....OO....O....O.X.O,,,",
",,,,.X.O..O..OO.........O.X.O,,,",
",,,,.X.O.....OO.........O.X.O,,,",
",,,,.X.OO...OOOO.......OO.X.O,,,",
",,,,.X.OOOOOOOOOO.....OOO.X.O,,,",
",,,,.X.OOOOOOOOOOOOOOOOOO.X.O,,,",
",,,,.X....................X.O,,,",
",,,,.XXXXXXXXXXXXXXXXXXXXXX.O,,,",
",,,,........................O,,,",
",,,,,OOOOOOOOOOOOOOOOOOOOOOOO,,,"};
