/* XPM */
static char *taz_xpm[] = {
/* width height ncolors chars_per_pixel */
"32 32 7 1",
/* colors */
"` c black",
"a c gray",
"b c black",
"c c black",
"d s none c none",
"e c black",
"f c white",
/* pixels */
"dddd```````````````````ddddddddd",
"dddd`fffffffffffffffff``dddddddd",
"dddd`ffffff````````````a`ddddddd",
"dddd`fffff`eeeeeeeeeee`aa`dddddd",
"dddd`fffff`eeee````````aaa`ddddd",
"dddd`fffff`eee`fffffff`aaaa`dddd",
"dddd`fffff`eee`fffffff`aaaaa`ddd",
"dddd`ffff```````ffffff```````bdd",
"dddd`ffff```````fffffff`cc`a`bdd",
"dddd`ffffffffffffffffff`ec`a`bdd",
"dddd`ff```ff`ff``ffffff`ee`f`bdd",
"dddd`fff`ff`f`f`f`fffff`ee`f`bdd",
"dddd`fff`ff`f`f``ffffff`ee`f`bdd",
"dddd`fff`ff```f`f`fffff`ee`f`bdd",
"dddd`fff`ff`f`f`f`fffff`ee`f`bdd",
"dddd`ffffffffffffffffff`ee`f`bdd",
"dddd`ffff```````fffffff`ee`f`bdd",
"dddd`ffff```````fffffff`ee`f`bdd",
"dddd`fffff`````ffffffff`ee`f`bdd",
"dddd`ffffff`b`fffffffff`ee`f`bdd",
"dddd`ffffff`b`ffffffff`eee`f`bdd",
"dddd`ffff``````````````eee`f`bdd",
"dddd`ffff`eeeeeeeeeeeeeee`ff`bdd",
"dddd`ffff````````````````fff`bdd",
"dddd`ffffff`b`ffffffffffffff`bdd",
"dddd`ffffff```ffffffffffffff`bdd",
"dddd`ff`fff`b`fff`ffffffffff`bdd",
"dddd`ff```````````ffffffffff`bdd",
"dddd`ff`fff```fff`ffffffffff`bdd",
"dddd`fffffffffffffffffffffff`bdd",
"dddd`````````````````````````bdd",
"dddddbbbbbbbbbbbbbbbbbbbbbbbbbdd"
};
