/* XPM */
static char *noname[] = {
/* width height ncolors chars_per_pixel */
"48 48 2 1",
/* colors */
"` c black",
"a c white",
/* pixels */
"aa```````````````````````````````````````````aaa",
"aa`aaaaaaaaaaaaaaaaaaaaaaaaaaaaaaaaaaaaaaaaa`aaa",
"aa`aaaaaa`aaa`a`a`a`a`a`aaaaaaaaaaaaaaaaaaaa`aaa",
"aa`aaaaaaaaa`aaa`a`a```````a```aaaaaaaaaaaaa`aaa",
"aa`aaaa`a`a`a`a```a```a`aaaaa`a`a`aaaaaaaaaa`aaa",
"aa`aaaaa`aaa`````````a`aaaaaa`aaaaa`aaaaaaaa`aaa",
"aa`aa`a`a`a`a```a`a`a`a`a```a`aaaaaaa`aaaaaa`aaa",
"aa`aaaaa`````````````````````````aaaaaaaaaaa`aaa",
"aa`aa`a`a`a`a`a```````````````````a`aaa`aaaa`aaa",
"aa`a`a`a``````````````````a``````````aaa`aaa`aaa",
"aa`aa`a`a`a`a```a```a```a`aaa```a```a`aaa`aa`aaa",
"aa`a`a`a```````a`````````aaaaaaaaaaa``aaaaaa`aaa",
"aa`aa`a`a`a```a`a`````````aaaaa`aaaaa`a`aaaa`aaa",
"aa`aaa```````aaa``````````aaaa``aaaaaaa```aa`aaa",
"aa`aa`a`a```aaaaa```a```a```a```aaaaaaaaa`aa`aaa",
"aa`aaaaa```aaaaaa``a```````````aaaaaaaaaaaaa`aaa",
"aa`aaaa```a`aaaaa`a`a`a`a`a`a`aaaaaaaaaaaaaa`aaa",
"aa`aaaaa````aaaaaa```a`````````aaaaaaaaaaaaa`aaa",
"aa`aaaaaa`a`aaaaaaa`a`a`a`a`a`aaaaaaaaaaaaaa`aaa",
"aa`aaaaaa``a`aaaaaaa`````````aaaaaaaaaaaaaaa`aaa",
"aa`aaaaa`aa`a`a`aaaaa`a`a`aaaaaaaaaaaaaaaaaa`aaa",
"aa`aaaaaaaaaaaaaaaaaaaaaaaaaaaaaaaaaaaaaaaaa`aaa",
"aa`aaaaaaaaaaaaaaaaaaaaaaaaaaaaaaaaaaaaaaaaa`aaa",
"```````````````aaaaaaaaaaaaaa`````````a````````a",
"```````````````aaaaaaaaaaaaaa`````````a````````a",
"````aa```aa````aaaaaaaaaaaaaaaa``````aaaa````aaa",
"```aaa```aaa```aaaaaaaaaaaaaaaaa`````aaa````aaaa",
"``aaaa```aaaa``aaaaaaaaaaaaaaaaaa`````a````aaaaa",
"``aaaa```aaaa``aaaaaaaaaaaaaaaaaaa````````aaaaaa",
"``aaaa```aaaa``aaaaaaaaaaaaaaaaaaaa``````aaaaaaa",
"aaaaaa```aaaaaaaaaaaaaaaaaaaaaaaaaaa`````aaaaaaa",
"aaaaaa```aaaaaaaaaaaaaaaaaaaaaaaaaaa`````aaaaaaa",
"aaaaaa```aa````````````````aaaaaaaa```````aaaaaa",
"aaaaaa```aa````````````````aaaaaaa`````````aaaaa",
"aaaaaa```aaaa````aaaaaa````aaaaaa````aa`````aaaa",
"aaaaaa```aaaaa```aaaaaaa```aaaaa````aaaa`````aaa",
"aaaaaa```aaaaa```aaaa``aa``aaaa````aaaaaa`````aa",
"aaa`````````aa```aaaa``aa``aa````````aa`````````",
"aaa`````````aa```aaa```aa``aa````````aa`````````",
"aaaaaaaaaaaaaa`````````aaaaaaaaaaaaaaaaaaaaaaaaa",
"aaaaaaaaaaaaaa`````````aaaaaaaaaaaaaaaaaaaaaaaaa",
"aaaaaaaaaaaaaa```aaa```aa``aaaaaaaaaaaaaaaaaaaaa",
"aaaaaaaaaaaaaa```aaaa``aa``aaaaaaaaaaaaaaaaaaaaa",
"aaaaaaaaaaaaaa```aaaa``aa``aaaaaaaaaaaaaaaaaaaaa",
"aaaaaaaaaaaaaa```aaaaaaa```aaaaaaaaaaaaaaaaaaaaa",
"aaaaaaaaaaaaa````aaaaaaa```aaaaaaaaaaaaaaaaaaaaa",
"aaaaaaaaaaa````````````````aaaaaaaaaaaaaaaaaaaaa",
"aaaaaaaaaaa````````````````aaaaaaaaaaaaaaaaaaaaa"
};
