/* XPM */
static char * text_xpm[] = {
"32 32 4 1 0 0",
" 	s None	c None",
".	c black",
"X	c white",
"o	c grey",
"    ..................          ",
"    .XXXXXXXXXXXXXXXX..         ",
"    .XXXXXXXXXXXXXXXX.o.        ",
"    .XXXXXXX...X....X.oo.       ",
"    .XXXXXXXXXXXXXXXX.ooo.      ",
"    .XXXXXXXXXXXXXXXX.oooo.     ",
"    .X..X...X.....X...ooooo.    ",
"    .XXXXXXXXXXXXXXXX........   ",
"    .X........X..X....oo.oo..   ",
"    .XXXXXXXXXXXXXXXXXXoooo..   ",
"    .X....X..X....XX.....XX..   ",
"    .XXXXXXXXXXXXXXXXXXXXXX..   ",
"    .X..X..X....X.....XXXXX..   ",
"    .XXXXXXXXXXXXXXXXXXXXXX..   ",
"    .XXX.X....XXXXXXXXXXXXX..   ",
"    .XXXXXXXXXXXXXXXXXXXXXX..   ",
"    .XXX.X...X..X...XX..XXX..   ",
"    .XXXXXXXXXXXXXXXXXXXXXX..   ",
"    .XXX.X....X.X...X.XXXXX..   ",
"    .XXXXXXXXXXXXXXXXXXXXXX..   ",
"    .XXX.X...X...XXXXXXXXXX..   ",
"    .XXXXXXXXXXXXXXXXXXXXXX..   ",
"    .X........X..X.......XX..   ",
"    .XXXXXXXXXXXXXXXXXXXXXX..   ",
"    .X...X.....X.....XX..XX..   ",
"    .XXXXXXXXXXXXXXXXXXXXXX..   ",
"    .X.....X......X.....XXX..   ",
"    .XXXXXXXXXXXXXXXXXXXXXX..   ",
"    .XXXXXXXXXX..XXXXXXXXXX..   ",
"    .XXXXXXXXXXXXXXXXXXXXXX..   ",
"    .........................   ",
"     ........................   "};
