/* XPM */
static char * tiff[] = {
"32 32 13 1",
" 	c None	s None",
"`	c black",
"a	c tan",
"b	c wheat",
"c	c gray50",
"d	c sienna",
"e	c dark slate grey",
"f	c red",
"g	c navy blue",
"h	c orange",
"i	c white",
"j	c slate grey",
"k	c lemon chiffon",
"   ```````````````````          ",
"   `kkkkkkkkkkkkkkkkk``         ",
"   `kkkkkkkkkkke`kkkk`a`        ",
"   `kkkkkkkkkkke`kkkk`aa`       ",
"   `kkfkkkkkkkke`aakk`aaa`      ",
"   `kffkkkkkkkke`aakk`aaaa`     ",
"   `kffkakkkkkeee`akk`aaaaa`    ",
"   `kfffakkkkeekke`kk```````c   ",
"   `kff``kkkkekkaa`akkaaaaa`c   ",
"   `kf`i``kkkekaab`aakkaaaa`c   ",
"   `kf````akkeeab``kakkkkkk`c   ",
"   `kf````jakkeeeekkakkkkkk`c   ",
"   `kk```iijkkeeeekaakkkkkk`c   ",
"   `kkka`eiij`ekaeeakkkkkkk`c   ",
"   `kkkka`ei`d`kaeeakkkkkkk`c   ",
"   `kkkkkk``hddaaeeaakkkkkk`c   ",
"   `kkkkkkk`dhddaeeeakkkkkk`c   ",
"   `kkkkkkkk`dhddkeeakkkkkk`c   ",
"   `kkkkkkkk``dhdd`eaakkkkk`c   ",
"   `kkkkkkkee``dhdd`eakkkkk`c   ",
"   `kkkkkkkeeka`dhdd`akkkkk`c   ",
"   `kkkkkkkeeaa``dhddaakkkk`c   ",
"   `kkkkkkkkkaaakaaaaaakkkk`c   ",
"   `kkkkkkkkkaakkaaaaaakkkk`c   ",
"   `kkkkkgggkgkgggkgggkkkkk`c   ",
"   `kkkkkkgkkgkgkkkgkkkkkkk`c   ",
"   `kkkkkkgkkgkggkkggkkkkkk`c   ",
"   `kkkkkkgkkgkgkkkgkkkkkkk`c   ",
"   `kkkkkk`kk`k`kkk`kkkkkkk`c   ",
"   `kkkkkkkkkkkkkkkkkkkkkkk`c   ",
"   `````````````````````````c   ",
"    ccccccccccccccccccccccccc   "};
