/* XPM */
static char * trash_xpm[] = {
"64 56 5 1 0 0",
" 	c white",
".	s none c none",
"X	c #BEFBBEFBBEFB",
"o	c #D34CD34CD34C",
"O	c black",
"................................................................",
"................................................................",
"................................................................",
"................................................................",
"................................................................",
"................................................................",
"................................................................",
"................................................................",
"................................................................",
"................................................................",
"....................                  X.........................",
"...................                     X.......................",
"...................o                      X.....................",
"...................oo                       X...................",
"...................ooo oooooooooooooooooooooO...................",
"...................Ooo oooooooooooooooooooooO...................",
"................... Oo oooooooooooooooooooooO...................",
"...................  O oooooooooooooooooooooO...................",
"...................o  OOOOOOOOOOOOOOOOOOOOOOO...................",
"...................oo                       O...................",
"...................ooo XXXXXXXXXXXXXXXXXXXXXO...................",
"...................ooo XXXXXXXXXXXXXXXXXXXXXO...................",
"...................ooo XXXXXXXXXXXXXXXXXXXXXO...................",
"...................ooo XXXXXXXXXXXXXXXXXXXXXO...................",
"...................ooo XXXXXXXXXXXXXXXXXXXXXO...................",
"...................ooo XXXXXXXXXXXXXXXXXXXXXO...................",
"...................ooo XXXXXXXXXXXXXXXXXXXXXO...................",
"...................ooo XXXXXXXXXXXXXXXXXXXXXO...................",
"...................ooo XXXXXXXXXXXXXXXXXXXXXO...................",
"...................ooo XXXXXXXXXXXXXXXXXXXXXO...................",
"...................ooo XXXXXXXXXXXXXXXXXXXXXO...................",
"...................ooo XXXXXXXXXXXXXXXXXXXXXO...................",
"...................ooo XXXXXXXXXXXXXXXXXXXXXO...................",
"...................ooo XXXXXXXXXXXXXXXXXXXXXO...................",
"...................ooo XXXXXXXXXXXXXXXXXXXXXO...................",
"...................ooo XXXXXXXXXXXXXXXXXXXXXO...................",
"...................ooo XXXXXXXXXXXXXXXXXXXXXO...................",
"...................ooo XXXXXXXXXXXXXXXXXXXXXO...................",
"...................ooo XXXXXXXXXXXXXXXXXXXXXO...................",
"...................ooo XXXXXXXXXXXXXXXXXXXXXO...................",
"...................ooo XXXXXXXXXXXXXXXXXXXXXO...................",
"...................ooo XXXXXXXXXXXXXXXXXXXXXO...................",
"...................ooo XXXXXXXXXXXXXXXXXXXXXO...................",
"...................ooo XXXXXXXOOOOOOOOXXXXXXO...................",
"...................Ooo XXXXXXXOO        XXXXO...................",
"....................Oo XXXXXXXOOOOOOOOXXXXXXO...................",
".....................O XXXXXXXOOOOOOOOXXXXXXO...................",
"......................OOOOOOOOOOOOOOOOOOOOOOO...................",
"................................................................",
"................................................................",
"................................................................",
"................................................................",
"................................................................",
"................................................................",
"................................................................",
"................................................................"};
