/* XPM */
static char * test_xpm[] = {
"48 48 4 1",
" 	c white",
".	c #BEFBBEFBBEFB",
"X	c black",
"o	c #AEBADB6CE79D",
"                                                ",
" ..............................................X",
" ..............................................X",
" ..............................................X",
" ...XXXXXXXXXXXXXXXXXX ..XXXXXXXXXXXXXXXXXX ...X",
" ...Xooooooooooooooooo ..Xooooooooooooooooo ...X",
" ...Xooooooooooooooooo ..Xooooooooooooooooo ...X",
" ...Xooo  oooooooooooo ..Xooo  oooooooooooo ...X",
" ...Xoo  ooooooooooooo ..Xoo  ooooooooooooo ...X",
" ...Xoo  ooooooooooooo ..Xoo  ooooooooooooo ...X",
" ...Xoo oooooooooooooo ..Xoo oooooooooooooo ...X",
" ...Xooooooooooooooooo ..Xooooooooooooooooo ...X",
" ...Xooooooooooooooooo ..Xooooooooooooooooo ...X",
" ...Xooooooooooooooooo ..Xooooooooooooooooo ...X",
" ...Xooooooooooooooooo ..Xooooooooooooooooo ...X",
" ...Xooooooooooooooooo ..Xooooooooooooooooo ...X",
" ...Xooooooooooooooooo ..Xooooooooooooooooo ...X",
" ...Xooooooooooooooooo ..Xooooooooooooooooo ...X",
" ...Xooooooooooooooooo ..Xooooooooooooooooo ...X",
" ...Xooooooooooooooooo ..Xooooooooooooooooo ...X",
" ...Xooooooooooooooooo ..Xooooooooooooooooo ...X",
" ...Xooooooooooooooooo ..Xooooooooooooooooo ...X",
" ...                   ..                   ...X",
" ..............................................X",
" ..............................................X",
" ...XXXXXXXXXXXXXXXXXX ..XXXXXXXXXXXXXXXXXX ...X",
" ...Xooooooooooooooooo ..Xooooooooooooooooo ...X",
" ...Xooooooooooooooooo ..Xooooooooooooooooo ...X",
" ...Xooo  oooooooooooo ..Xooo  oooooooooooo ...X",
" ...Xoo  ooooooooooooo ..Xoo  ooooooooooooo ...X",
" ...Xoo  ooooooooooooo ..Xoo  ooooooooooooo ...X",
" ...Xoo oooooooooooooo ..Xoo oooooooooooooo ...X",
" ...Xooooooooooooooooo ..Xooooooooooooooooo ...X",
" ...Xooooooooooooooooo ..Xooooooooooooooooo ...X",
" ...Xooooooooooooooooo ..Xooooooooooooooooo ...X",
" ...Xooooooooooooooooo ..Xooooooooooooooooo ...X",
" ...Xooooooooooooooooo ..Xooooooooooooooooo ...X",
" ...Xooooooooooooooooo ..Xooooooooooooooooo ...X",
" ...Xooooooooooooooooo ..Xooooooooooooooooo ...X",
" ...Xooooooooooooooooo ..Xooooooooooooooooo ...X",
" ...Xooooooooooooooooo ..Xooooooooooooooooo ...X",
" ...Xooooooooooooooooo ..Xooooooooooooooooo ...X",
" ...Xooooooooooooooooo ..Xooooooooooooooooo ...X",
" ...                   ..                   ...X",
" ..............................................X",
" ..............................................X",
" ..............................................X",
" XXXXXXXXXXXXXXXXXXXXXXXXXXXXXXXXXXXXXXXXXXXXXXX"};
