/* XPM */
static char * wizard_xpm[] = {
/* width height ncolors chars_per_pixel */
"64 54 3 1 0 0",
/* colors */
" 	s None	c None",
".	c black",
"X	c white",
/* pixels */
"                                                                ",
"                         .....                                  ",
"                       ........                                 ",
"                      ..........                                ",
"                     .............                    ........  ",
"                    ..............                   .XXXXXXXX. ",
"                   ..... ..........                 .X.XX.XX.XX.",
"                  ....   ...........               .X..X.XX..X..",
"                  ..      ...........             .XX..X.X..XX. ",
"                  .     ...X.X.......            .XX..X.X...... ",
"                      ...............             ...........X. ",
"                     .X.............  ......        .XXX....... ",
"              .........XXXXXXXXXXXXX......XX..      .XXXX...XX. ",
"            ...XXXXX...................XXXXXXX.    ..XXXX..XX.  ",
"           .X.....XXXX............XXXXXX.....XX.  ...XXXX.XXX.  ",
"          ...........XXXXXXXXXXXXXXXXX.........   ...XX..XXX.   ",
"          .............XXXXXXXXXXXX............  ...XX..XXX.    ",
"            .................................    ...X..XXX.     ",
"                 ....XX..X..X..XX.XX...X...     ....X..XX.      ",
"               .......XXX..XXX..XXX...XX............X..XX..     ",
"           .......X.......XXXX.......X..X......X...X...XX..     ",
"          .......X.........XX........XX..X.....X...X...X...     ",
"       ............X.X...X....X...XXXXXX.....XX.X.X.X.......    ",
"    ...XXXXXXX....X.X.X.X......XX.X.XXXX...X.X....XX...X....    ",
"   .XXX..X.XXXXX.....XXXX.X...X.X.XXXXX.X...XX..X..XX.......    ",
"  .XX..XXXXXXXXXX...X.XXX.XXXXX.XXXXXX......XXX...XXXX.X....    ",
" ..X..XXXXXX..XXXX..XXXXXXXXXXXXXXXXXXXX...X..XXXXX.........    ",
" .X...XXXXX..XXX.XX...X.XXXXXXXXXXXXXX.......X.XX..X...X....    ",
" .X...XXXXXXXXX..XX..XXXXXXXXXXXXXX.XXX.....................    ",
"..X....XXXXXXX..XXX..X..X.XXXXXXXXXX.X.................X....    ",
"..X....XXX......XX.....XXXXXXX.XXX.X.......................     ",
"..XX..X...X...X.X.....X..XX.XXXX.X.XX.................X....     ",
"......X...X..XX..X.......X...X.X....X......................     ",
"..X...XX.XX..XX.X............X..................X....X....      ",
"..XXX.XX.XX.XX.X.....................................X....      ",
".....XXXX.XX.....X..............................X........       ",
"..............................................X..........       ",
" ..........X.....X.................X.............X.......       ",
" ..........X..................................X...X.. ..        ",
"  .........X..X.........X..............X............            ",
"  .........X..X....................X...........X.               ",
"  ...........X..........X................X........              ",
"   ....... .XX......................X......X........            ",
"    .....   ......X....X....X........................           ",
"          ..........X.......................X..........         ",
"       ............................X.....................       ",
"    ........XXXXXX..........X...........X.....XXXXXXX.....      ",
"   ........XX.XXX.X........X......X......X..XX.XXXX.XX.         ",
"       ..XXXXX..... ............X.......... .....X.XXXX.        ",
"       .X.X.X..       .................         ....X.X..       ",
"      .XXX...             ....                     ...XXX.      ",
"      .XXX.                                          ..XX.      ",
"      ....                                            ....      ",
"                                                                "};
