/* XPM */
static char * wordprocess_xpm[] = {
"32 32 10 1 0 0",
" 	s None	c None",
".	c black",
"X	c white",
"o	c grey",
"O	c sea green",
"+	c gold",
"@	c orange",
"#	c dark slate grey",
"$	c violet",
"%	c sky blue",
"   ...................          ",
"   .XXXXXXXXXXXXXXXXX..         ",
"   .XXXXXXXXXXXXXXXXX.o.        ",
"   .XOOOOOOOOOOOOOOOO.oo.       ",
"   .XO+++++++++++++++.ooo.      ",
"   .XO+++++++++++++++.oooo.     ",
"   .XO+++++++++++++++.ooooo.    ",
"   .XO+++++++++++++++........   ",
"   .XO++++++++++++++++@@@Oo..   ",
"   .XOOOOOOOOOOOOOOOOOOOOOo..   ",
"   .XXXXXXXXXXXXXXXXXXXXXXX..   ",
"   .X..........X..........X..   ",
"   .XXXXXXXXXXXXXXXXXXXXXXX..   ",
"   .X..........XOOOOOOOOOOX..   ",
"   .XXXXXXXXXXXXO#$$$$$$#OX..   ",
"   .X..........XO$#$$$$#$OX..   ",
"   .XXXXXXXXXXXXO$$#$$#$$OX..   ",
"   .XOOOOOOOOOOXO$$$##$$$OX..   ",
"   .XO%#%#%##%OXO$$$##$$$OX..   ",
"   .XO#%%%%%%#OXO$$#$$#$$OX..   ",
"   .XO#%....%%OXO$#$$$$#$OX..   ",
"   .XO%%%%%%%#OXO#$$$$$$#OX..   ",
"   .XO#%....%%OXOOOOOOOOOOX..   ",
"   .XO%%%%%%%#OXXXXXXXXXXXX..   ",
"   .XO#%....%%OX..........X..   ",
"   .XO%%%%%%%#OXXXXXXXXXXXX..   ",
"   .XO#%%%%%%#OX..........X..   ",
"   .XO%##%#%#%OXXXXXXXXXXXX..   ",
"   .XOOOOOOOOOOX..........X..   ",
"   .XXXXXXXXXXXXXXXXXXXXXXX..   ",
"   ..........................   ",
"    .........................   "};
