/* XPM */
static char * xbm[] = {
"32 32 6 1",
",	c None	s None",
" 	c white",
".	c black",
"X	c lemon chiffon",
"o	c tan",
"O	c gray50",
",,,,..................,,,,,,,,,,",
",,,,.XXXXXXXXXXXXXXXX..,,,,,,,,,",
",,,,.XXXX...XXX..XXXX.o.,,,,,,,,",
",,,,.XXXX...XXX.XXXXX.oo.,,,,,,,",
",,,,.XXXXX...X..XXXXX.ooo.,,,,,,",
",,,,.XXXXX...X.XXXXXX.oooo.,,,,,",
",,,,.XXXXXX.X...XXXXX.ooooo.,,,,",
",,,,.XXXXX..X...XXXXX.......O,,,",
",,,,.XXXXX.XXX...XXXXXooooo.O,,,",
",,,,.XXXX..XXX...XXXXXXoooo.O,,,",
",,,,.XXXXXXXXXXXXXXXXXXXXXX.O,,,",
",,,,.XXXX................XX.O,,,",
",,,,.XXXX....  ....  ....XX.O,,,",
",,,,.XXXX....  ....  ....XX.O,,,",
",,,,.XXXX................XX.O,,,",
",,,,.XXXX.  .  ....  .  .XX.O,,,",
",,,,.XXXX.  .  ....  .  .XX.O,,,",
",,,,.XXXX................XX.O,,,",
",,,,.XXXX.  ....  ....  .XX.O,,,",
",,,,.XXXX.  ....  ....  .XX.O,,,",
",,,,.XXXX................XX.O,,,",
",,,,.XXXX....  .  ....  .XX.O,,,",
",,,,.XXXX....  .  ....  .XX.O,,,",
",,,,.XXXX................XX.O,,,",
",,,,.XXXX.  .......  ....XX.O,,,",
",,,,.XXXX.  .......  ....XX.O,,,",
",,,,.XXXX................XX.O,,,",
",,,,.XXXXXXXXXXXXXXXXXXXXXX.O,,,",
",,,,.XXXXXXXXXXXXXXXXXXXXXX.O,,,",
",,,,.XXXXXXXXXXXXXXXXXXXXXX.O,,,",
",,,,........................O,,,",
",,,,,OOOOOOOOOOOOOOOOOOOOOOOO,,,"};
