/* XPM */
static char * xchess_xpm[] = {
"32 32 3 1",
" 	c white",
".	s none c none",
"X	c black",
"...........X....................",
"...........X....................",
"...........X....................",
".........XXXXX..................",
"...........X....................",
"......XX...X....XX..............",
"....XXXXXX.X.XXXXXXX............",
"...XXXXXXXXXXXXXXXXX............",
"..XXXXXXXXXXXXXXXXXXXX..........",
"..XXXXXXXXX XXXXXXXXXX..........",
".XXXXXXXXXX XXXXXXXXXXX.........",
".XXXXXXXXXX XXXXXXXXXXX.........",
".XXXXX   XXXXXX   XXXXX.........",
".XXX      XXXX     XXXXXX.......",
".XXX      XXXX     X    XX......",
"..XX      XXX     X      X......",
"..XXX     XXX    XX       X.....",
"...XXXXXXXXXXXXXXXX       X.....",
"...XXXXXXXXXXXXXXXX      X......",
"...X               X    XX......",
"...XX X X X X X X X XXXX........",
"...X                X  X........",
"...XXXXXXXXXXXXXXXXX    X.......",
"...................X    X.......",
"..................XX    XX......",
"..................X      X......",
"..................X      X......",
".................XX      XX.....",
"..............XXX          XX...",
".............X               XX.",
".............XXXXXXXXXXXXXXXXXX.",
"................................"};
