/* XPM */
static char * fig_xpm[] = {
"48 48 8 1 0 0",
" 	s None	c None",
".	c black",
"X	c green",
"o	c peru",
"O	c sienna",
"+	c gainsboro",
"@	c sea green",
"#	c lime green",
"                                                ",
"                                                ",
"                                                ",
"                                                ",
"                                             .. ",
"       .......  ...   ....                 ..X..",
"        .    .   .   .   .                .XXXXX",
"        ....     .   .                  ..XXXXXX",
"        .  .     .   .  ...             .XXXXXXX",
"        .        .   .   .            ..XXXXXXXX",
"        .        .   .  ..            .XXXXXXXXX",
"       ...      ...   .. .           .XXXXXXXXXX",
"                                     .XXXXXXXXXX",
"                                    .XXXXXXXXXXX",
"      o...                          .XXXXXXX.XXX",
"     ooooo....                   ...OXXXXXX.XXXX",
"     OOOoooooo....      .........ooo.XXXXXX.XXXX",
"    O..OOOOOoooooo......ooooooooooOX.XXXXX.XXXXX",
"       ....OOOOOooooooooooOOOOO..OXXXXXX..XXXXXX",
"           ....OOOOO...OOOO......XXXX.XXXXXXXXX.",
"               ......+........X@XXXX.X.XXX....XX",
"                  ..@.   .@@@@@XXXXXX.XXX.XXXXXX",
"                  .#@.   .@@@@XXX..XXX.XXX.XXXXX",
"                 .##@.   .@@XXXX.XXXXX.XXXX.XXXX",
"                .####   .@@@XX..XXXXXX.XXXXX.XXX",
"               .@###.   .@XXXXXXXXXXXX.XXXXXXXXX",
"               .###.   .@@X@XXXXXXXXXX.XXXXXX..X",
"              .@###.  .@@@XX@X.....XXXXXXXXXXX.X",
"             .@####.  ..@XXXX.   ...XX.XXXXXXXX.",
"            .@@####.   ......   .XXXXX.XXXXXXXXX",
"           .@@@#####.          .XXXXX.XXXXXXXXXX",
"          .@@@######.        ..XXXXXX.XXXXXXXXXX",
"          .@@@#######.      .XXXXXXXX.XXXXXXXXXX",
"         .@@@@#######.      .XXXXXXX.XXXXXXXXXXX",
"        .@@@@#########.     .XXXXXX.XXX...XXXXXX",
"       .@@@@@##########.   .XXXXXXXXXX.   .XXXXX",
"      .@@@@..##########.  ..XXXXXXXXXX.  .XXXXXX",
"      .@@@..#.#########.  .XXXXXXXXXXX.  .XXXXXX",
"     .@@..@@#.#########.  .XXXXXXXXXXX. .XXXXXXX",
"     .@@@@.###.#########. .XXXXXXXXXX.  .XXXXXXX",
"    .@@@@.##############. .XXXXXXXXX.   .XXXXXXX",
"    .@@....#############. .XXXXXXX..    .XXXXXXX",
"   .@@.@@.#.############.  .......      .XXXXXXX",
"   .@@@@@@##..##########.               .XXXXXXX",
"  .@@@@@@.####.#########@.              .XXXXXXX",
"  @@@@@@@@#####.#########.              @XXXXXXX",
"  @@@@@@@@.###############              .XXXXXXX",
"                                                "};
