/* XPM */
static char * xman_xpm[] = {
"64 56 9 1",
" 	c white",
".	s none c none",
"X	c yellow",
"o	c black",
"O	c #BEFBBEFBBEFB",
"+	c #D34CD34CD34C",
"@	c #C30B618575D6",
"#	c red",
"$	c #8617CF3CEBAD",
"................................................................",
"................................................................",
".............................     ..............................",
"...........................  XXXXX   ...........................",
".......................... XXXXXXXXXXo..........................",
"......................... XXXXXXXXXXXXo.........................",
"........................ XXXXXooooXXXXXo........................",
"........................ XXXXo....oXXXXo........................",
"........................ XXXo......XXXXo........................",
"........................ XXXo......XXXXo........................",
".................O+   +O.oooo......XXXXo........................",
".................O+@+@Oooo........XXXXXo......+ + + + O.........",
".................O@ #O#ooo.......XXXXXo.......O+++++++oo........",
".................O+@+#O@ooo..O+.XXXXXo........O+++++++oo........",
".........+    +o.O@ #O#oooo.O+oXXXXXoo+.+.+oo.+     ++oo........",
".........  +++Oo.O+@+#+@ooo.O+XXXXXooo$+$O$oo.OOOooooooo........",
".........  +++Oo.+  ++++Ooo.O+XXXoooooo$+$ooo.O+++++OOoo........",
".........  +++Oo.OOOOOOoooo.O+XXXooooo$+$O$oo.O+++++OOoo........",
"......... +OooOo.O# #O#oooo.O+XXXoooooo$o$ooo.O++OooOOoo........",
"......... +++oOo.O+@o#o@ooo.O++++Ooooo$+$O$oo.O++O+oOOoo........",
"......... +OooOo.O@o#o#oooo.O++++Oooooo$o$ooo.O++OooOOoo........",
".........   ++Oo.O+@o#o@ooo.O+   ooooo$+$O$oo.O+++o+OOoo........",
"......... +OooOo.O@ #O#oooo.O+ XXoooooo$o$ooo.O++OooOOoo........",
".........  O+oOo.O+@+#O@ooo.O+ XXooooo$+$O$oo.O++OooOOoo........",
"......... +OooOo.O@ #O#oooo.O+ooooooooo$+$ooo.O+++o+OOoo........",
".........   ++Oo.O+@o#o@ooo.O++++Ooooo$+$O$oo.O++OooOOoo........",
"......... +OooOo.O@o#o#oooo.O++++Oooooo$+$ooo.O++O+oOOoo........",
"......... +OooOo.O+@o#o@ooo.O++++Ooooo$+$O$oo.O++O+oOOoo........",
".........  +++Oo.O@ #O#oooo.O++++Oooooo$+$ooo.O+++++OOoo........",
"......... +OooOo.O+@+#O@ooo.O++++Ooooo$+$O$oo.O++OooOOoo........",
"......... +++oOo.O@ #O#oooo.O++++Oooooo$+$ooo.O+++o+OOoo........",
"......... +OooOo.O+@+#O@ooo.O++++Ooooo$+$O$oo.O+++o+OOoo........",
".........  +++Oo.O@ #O#oooo.O++++Oooooo$+$ooo.O+++++OOoo........",
".........  +++Oo.O+@+#O@ooo.O++++Ooooo$+$O$oo.O+++++OOoo........",
".........  +++Oo.O@ #O#oooo.O++++Oooooo$+$ooo.O+++++OOoo........",
".........  +++Oo.O@ #O#oooo.O++++Oooooo$+$ooo.O+++++OOoo........",
".........  +++Oo.O+@+#O@ooo.OOoo+ooooo$+$O$oo.O+++++OOoo........",
".........  +++Oo.O@ #O#oooo.O++++OOoooo$+$ooo.O+++++OOoo........",
".........  +++Oo.O+@+#O@ooo.OOoooOoooo$+$O$oo..OOO+ooooo........",
".........  +++Oo.O@ #O#oooo.O++++OOoooo$o$ooo.O+++++OOoo........",
".........  +++Oo.O+@+#O@ooo.OOo+oooooo$+$O$oo.O++O+oOOoo........",
".........  +++Oo.++++++OOoo.O++++Oooooo$o$ooo.O+++++OOoo........",
".........  +++Oo.OOOOOOoooo.O++++Ooooo$+$O$oo.O+++++OOoo........",
"......... +OooOo.O@ #O#oooo.O++++Oooooo$+$ooo.+     ++Oo........",
"......... +OooOo.O+@+#O@ooo.O++++Ooooo$+$O$oo.OOOooooooo........",
".........  +++Oo.O# #O#oooo.O++++Oooooo$+$ooo.O+++++OOoo........",
".........  +++Oo.O+@+#o@ooo.O++++Ooooo$+$o$oooO+++++OOoo........",
".........++++OOoooooooooooo..OOOOoooooo$o$oooooOOOOOOOoo........",
".........ooooooooooooooooooooooooooooooooooooooooooooooo........",
"................................................................",
"................................................................",
"................................................................",
"................................................................",
"................................................................",
"................................................................",
"................................................................"};
