/* XPM */
static char * xpm_xpm[] = {
/* width height ncolors chars_per_pixel */
"32 32 8 1",
/* colors */
" 	s none c none",
".	c black",
"X	c white",
"o	c gray",
"O	c yellow",
"+	c black",
"@	c black",
"x  c gray",
/* pixels */
"     ..................         ",
"     .XXXXXXXXXXXXXXXX..        ",
"     .X.XX.X...X..X..X.o.       ",
"     .XX..XX...X.X.X.X.oo.      ",
"     .XX..XX.XXX.XXX.X.ooo.     ",
"     .X.XX.X.XXX.XXX.X.oooo.    ",
"     .XXXXXXXXXXXXXXXX.ooooo.   ",
"     .XXXXXXXXXXXXXXXX.......+  ",
"     .XXXXXX..X...X..XXooooo.+  ",
"     .XXXXX.OO.OOO.OO.XXoooo.+  ",
"     .XXXXX.OOOOOOOOO.XXXXXX.+  ",
"     .XXXXXX.O@OO@OO.XXXXXXX.+  ",
"     .XXXXXX.OOOOOO...XXXXXX.+  ",
"     .XXXXX..OO..OO.OO.XXXXX.+  ",
"     .XXXX.OO.OOOO.OOOO.XXXX.+  ",
"     .XXX.OOOO....OOOOO.XXXX.+  ",
"     .XXX.OO.OOOOOOO.OO.XXXX.+  ",
"     .XXX.OOO.OOOOO.OOO.XXXX.+  ",
"     .XXXX.OO.OOOO.OOO.XXXXX.+  ",
"     .XXXXX..OOOOO.OO..XXXXX.+  ",
"     .XXXXXX.OOOOOO..O.XXXXX.+  ",
"     .XXXX.. .OOOOOOO.X XXXX.+  ",
"     .XXX.OO.OO..O.OO.XXXXXX.+  ",
"     .XXX.OOOO.OO.OO.XXXXXXX.+  ",
"     .XXX.OOOO.OOOOO.XXXXXXX.+  ",
"     .XXXX.OO..OOOO.XXXXXXXX.+  ",
"     .XXXXX..XX.OO.XXXXXXXXX.+  ",
"     .XXXXXXXXXX..XXXXXXXXXX.+  ",
"     .XXXXXXXXXXXXXXXXXXXXXX.+  ",
"     .XXXXXXXXXXXXXXXXXXXXXX.+  ",
"     ........................+  ",
"      ++++++++++++++++++++++++  "};
