/* XPM */
static char * zip[] = {
"32 32 5 1",
" 	c None s None",
".	c black",
"X	c lemon chiffon",
"o	c tan",
"O	c gray50",
"    ...................         ",
"    .X.XX...XXXXXXXXXX..        ",
"    ..XXX..XXXXXXXXXXX.o.       ",
"    .XX.XX...XXXXXXXX..oo.      ",
"    .XXX.XX.XXXXXXXXXX.ooo.     ",
"    .X.XXXX...XXXXXX...oooo.    ",
"    ..XXX.XX.XXXXXXXX.......O   ",
"    .XX.XXXX...XXXX...Xoooo.O   ",
"    .XXX.XXX..XXXXXX..Xoooo.O   ",
"    .X.XXX.XX...XX...XX.XXX.O   ",
"    ..XXX.XXXX......XXXXX.X.O   ",
"    .XX.XXX...........X.XXX.O   ",
"    .XXX.XXX..XX..XX..XX.XX.O   ",
"    .X.XXX.X..XX.XXX...XXX..O   ",
"    ..XXX.XX..XX.XXX..XXX.X.O   ",
"    .XX.XXX.X..X..X..XX.XXX.O   ",
"    .XXX.XXX...XXXX..XXX.XX.O   ",
"    .X.XXX.XX..XXXX..X.XXX..O   ",
"    ..XXX.XXX..XXXX...XXX.X.O   ",
"    .XX.XXX.XX......XXX.XXX.O   ",
"    .XXX.XXX.X.......XXX.XX.O   ",
"    .X.XXX.XXX.XX...XX.XXX..O   ",
"    ..XXX.XXX....XX.X.XXX.X.O   ",
"    .XX.XXX.XX.XX...XXX.XXX.O   ",
"    .XXX.XXX.X...XX..XXX.XX.O   ",
"    .X.XXX.XXX.XX...XX.XXX..O   ",
"    ..XXX.XXX....XX.X.XXX.X.O   ",
"    .XX.XXX.XX.XX...XXX.XXX.O   ",
"    .XXX.XXX.X...XX..XXX.XX.O   ",
"    .X.XXX.XXX.XX...XX.XXX..O   ",
"    ........................O   ",
"     OOOOOOOOOOOOOOOOOOOOOOOO   "};
