/* XPM */
static char * zoo[] = {
"32 32 8 1",
",	c None	s None",
" 	c white",
".	c black",
"X	c lemon chiffon",
"o	c tan",
"O	c gray50",
"+	c sky blue",
"@	c green",
",,,...................,,,,,,,,,,",
",,,.XXXXXXXXXXXXXXXXX..,,,,,,,,,",
",,,.X.....XX..XXX..XX.o.,,,,,,,,",
",,,.XXXX..X.XX.X.XX.X.oo.,,,,,,,",
",,,.XXX..XX.XX.X.XX.X.ooo.,,,,,,",
",,,.XX..XXX.XX.X.XX.X.oooo.,,,,,",
",,,.X..XXXX.XX.X.XX.X.ooooo.,,,,",
",,,.X.....XX..XXX..XX.......O,,,",
",,,.XXXXXXXXXXXXXXXXXXooooo.O,,,",
",,,.XXXXXXXXXXXXXXXXXXXoooo.O,,,",
",,,.XXXXXXXX....XXXXXXXXXXX.O,,,",
",,,.XXXXXXXXX.++.XX..XXXXXX.O,,,",
",,,.XXXXXXXXXX.++...+.XXXXX.O,,,",
",,,.XXXXXX......+++++..XXXX.O,,,",
",,,.XXXXXXX.+++++++..XXXXXX.O,,,",
",,,.XXXXXXXX....+..XXXXXXXX.O,,,",
",,,.XXXXXXXXXXXX..XXXXXXXXX.O,,,",
",,,.XXXXXXXXXXXXXXXXXXXXXXX.O,,,",
",,,.XXXXXXXXX.XXXXXX...XXXX.O,,,",
",,,.X.XXXXXXX.XXXX..@....XX.O,,,",
",,,.X..XXXXX..XXXX.@@..@..X.O,,,",
",,,.XX..XXX..XXXX..@@@@...X.O,,,",
",,,.XX...X...XXXX.@@.....XX.O,,,",
",,,.XXX.....XXXXX.@@.XXXXXX.O,,,",
",,,.XXX.....XXXXX.@@.XXXXXX.O,,,",
",,,.XXXX.ooo...XX.@@.XXXXXX.O,,,",
",,,.X....oo.ooo.X.@@.XXXXXX.O,,,",
",,,.oooooooooo..X.@@.XXXXXX.O,,,",
",,,.ooooooo...XXX.@@.XXXXXX.O,,,",
",,,.ooooooo.XXXXX.@@.XXXXXX.O,,,",
",,,.........................O,,,",
",,,,OOOOOOOOOOOOOOOOOOOOOOOOO,,,"};
