/* XPM */
static char * Directory_xpm[] = {
"16 16 5 1",
" 	c None",
".	c #000000000000",
"X	c #FFFFFFFF0000",
"o	c #FFFFFFFFFFFF",
"O	c #BEFBBEFBBEFB",
"                ",
"                ",
"                ",
"  .....         ",
" .XoXoX.        ",
"..............  ",
".oXoXoXoXoXoXo. ",
".XoXoXoXoXoXoX. ",
".oXoXoXoXoXoXo. ",
".XoXoXoXoXoXoX. ",
".oXoXoXoXoXoXo. ",
".XoXoXoXoXoXoX. ",
".OOOOOOOOOOOOO. ",
" .............. ",
"                ",
"                "};
