/* XPM */
static char * mc_icon_xpm[] = {
"180 84 51 1",
" 	c #082008200820",
".	c #28A228A228A2",
"X	c #30C230C230C2",
"o	c #34D334D334D3",
"O	c #2CB22CB22CB2",
"+	c #410341034103",
"@	c #30C28A28FFFF",
"#	c #000000000000",
"$	c #3CF33CF33CF3",
"%	c #38E338E338E3",
"&	c #49249658FFFF",
"*	c #9E799E799E79",
"=	c #492449244924",
"-	c #659565956595",
";	c #CB2BCB2BCB2B",
":	c #5D755D755D75",
">	c #3CF39248FFFF",
",	c #451445144514",
"<	c #6DB66DB66DB6",
"1	c #75D6AEBAFFFF",
"2	c #555555555555",
"3	c #8E38BEFBFFFF",
"4	c #C71BDF7DFFFF",
"5	c #A289A289A289",
"6	c #AEBAAEBAAEBA",
"7	c #EFBEF3CEFFFF",
"8	c #BEFBBEFBBEFB",
"9	c #B6DAD75CFFFF",
"0	c #D34CE79DFFFF",
"q	c #E38DEFBEFFFF",
"w	c #E38DE38DE38D",
"e	c #AAAACF3CFFFF",
"r	c #EFBEEFBEEFBE",
"t	c #D75CD75CD75C",
"y	c #618561856185",
"u	c #965896589658",
"i	c #FFFFFFFFFFFF",
"p	c #8207B6DAFFFF",
"a	c #75D675D675D6",
"s	c #6595A699FFFF",
"d	c #59659E79FFFF",
"f	c #0C300C300C30",
"g	c #104010401040",
"h	c #145114511451",
"j	c #186118611861",
"k	c #1C711C711C71",
"l	c #208120812081",
"z	c #8A288A288A28",
"x	c #249224922492",
"c	c #9E79C71BFFFF",
"v	c #7DF77DF77DF7",
"                       .          .  .                                        .            .   .  .  .        X         .                       .                                   ",
"            o     .               .  O +             .      .       O                    .                                        .                          . .           .        ",
"                            O  O   O .                 .     .             .                                  .                        X        @               .    O              ",
"   #                                                O.       .                X           .       O         .              @  .@      .      @      O   .  .        O               ",
"    $      %             .                O       @. O     X                .             .   .                    $       O  O              .             .                    o   ",
"  #&&&&&&&&&&&&&&&&&&&&&&&&&&&&&&&XXO           O    .        #&&&&&&&        .. $ .   .        O       .  .            . O   * .     #&&&&&&&          .                    .      ",
"  #&&&&&&&&&&&&&&&&&&&&&&&&&&&&&&&      .          =      -   #&&&&&&&     .    .                            .   .    .   .           #&&&&&&&           O     O O       . ;. X     ",
"  #:::::::::::::::::::::::::::::::        .      O  >      ,  #&&&&&&&       O    @  .                  .         X .     .  .     O  #&&&&&&&             .        .     X         ",
" .#<<<<<<<<<<<<<<<<<<<<<<<<<<<<<<<       X>                   #&&&&&&&     .                  .   %     o .    .                      #&&&&&&&     o    .      O              .    .",
"  #111111111111111111111111111<111              .             #&&&&&&&     O                       . .                   .        . . #&&&&&&&     .    ..O        .                ",
"  #1111111111111111111111111111111O   O                      O#&&&&&&&O  .     .                                   %   O              #&&&&&&&   2O         ..         .     .      ",
"  #3333333333333333333333333333333     X                    . #&&&&&&& O  O     .        X  .       .                                @#&&&&&&&          .     .      O              ",
"  #3333333444443333333444443333333   .   . .              X   #&&&&&&&      .                          O                 O o          #&&&&&&&                                      ",
"  #5555555    45555555 .  45555555.       O             .     #&&&&&&&  =                     .                                       #&&&:&&&                   . %      X         ",
"  #6666666    46666666    46666666                  X         #:::::::      X                     @     .   .     .                   #&&:<:::          @   X         .             ",
"  #6666666    46666666 .. 46666666   .               .       +#<<<<<<<         %                    .                                 #&&<<<<<            X       .             .   ",
"  78888888    98888888    98888888.   .                     O #1111111         O                                      O. .      O     #::11111          .                   o       ",
". 78888888    98888888.   98888888                            #1111111       $     .       .    O               .                  . .7::13111 .        .            .            . ",
"  70000000    90000000.   90000000      .                     #3333333     o                   .                  .               .O  73333333                                      ",
"  q0000000    90000000    90000000. .        .               .75555555 ..    O      .         @          .     .   .    %     ..      73355555             .               @   .    ",
"  qwwwwwww    ewwwwwww    ewwwwwww                          . 76666666   .        $ O          2 .                  $                 q5556666         .                            ",
"  qwwwwwww    ewwwwwww   .ewwwwwww    9wwwwwww @            . 76666666    .       X               9wwwwwww%    O       .              q5566666   .                .     .    O      ",
"  qwwwwwww    ewwwwwww    errrwwww X  9wwwwwww          .    .78888888                   .       @9wwwwwww                O      O O .q5568888     O         .   >              .   ",
"  trrrrrrr    errrrrrr    errrrrrr@ . errrwww8.         .     78888888               .            errrwww8     .     .  .        O    t6688888    O.O    O     .       .            ",
"y trrrrrrr    errrrrrr    errrrrrr    urrrrrr0           .  . q0000000         .    .             urrrrrr0 .  X  .               @    t6880000       .                            y ",
"..trrrrrrr    urrrrrrr    uiiirrrr    prrrrrrw        O       qwwwwwww          O     .  .        prrrrrrw           ..    + .   .    t8000000        O                .          ..",
"  tiiiiiii   .uiiiiiii    uiiiiiii    aiiirrrw .              qwwwwwww  . .      .    .   @       aiiirrrw                 .         ot000wwww@  O     . @                X         ",
"  tiiiiiii. . uiiiiiii    uiiiiiii  . siiiiiir      X.        qrrrrrrr                ..  O      .siiiiiir           .  .     .@      t0wwwwww   O   .       O########           O  ",
"  tiiiiiii    uiiiiiii $  uiiiiiiiX   dddddddd        . ..  O trrrrrrr                 .          dddddddd  @                         twwwrrrr          O     qrrrrrrr       .  O   ",
". 4iiiiiii    uiiiiiii    uiiiiiii  ,                        .tiiiiiii        .                                    .             .    twwwrrrr                qrrrrrrr            . ",
"  4#######    u#######    u#######   O               O     o  tiiiiiii     O        O        .        O     .          .   .    .     4rrrrrrr                tiiiiiii              ",
"  4#######    u#######    u#######    ########    #iiiiiiiiiiiiiiiiiii . .#rrrrrrrrrrrrrrrwww0   .#wwwwwww    #0wwrrrrrrrrrrrrrrrr    4rrriiiiiiiiiiiiiiii   iiiiiiiiiiiiiiiiO.     ",
"@ 4####### ..Ou#######   %u#######    ########    #iiiiiiiiiiiiiiiiiii  O #iiirrrrrrrrrrrrrrrr    #wwwwwww  .O#rrrrrrrrrrrrrrriiii    4iiiiiiiiiiiiiiiiiii   iiiiiiiiiiiiiiii     @ ",
"  4#######    p#######    p#######  . ########    ####################    #iiiiiiiiiiiiiiirrrr .. #rrrrrrr    #rrriiiiiiiiiiiiiiii    4iiiiiiiiiiiiiiiiiii X@iiiiiiiiiiiiiiii       ",
"  4#######    p#######    p####### @  ########    ####################O   #iiiiiiiiiiiiiiiiiii   .#rrrrrrr    #iiiiiiiiiiiiiiiiiii .  4iiiiiiiiiiiiiiiiiii   ################       ",
"  4#######    p#######    p#######    ########    ####################    #iiiiiiiiiiiiiiiiiii   %#iiiiiii    #iiiiiiiiiiiiiiiiiii    4iiiiiiiiiiiiiii####   ################       ",
"  4#######    p#######   .p#######  . 7#######    7###################    7####iiiiiiiiiiiiiii    7iiiiiiiO  .7iiiiiiiiiiiiiii####   .9###################@  ################  O    ",
"  9#######    p#######    p#######    q#######    7###################    7################iii    7iiiiiii.  O7iii################    9################### ..################       ",
"  9#######    p####### @  p#######    t#######    q#######eeeee#######    q#######44444#######    q#######    q#######eeeee#######    9#######eeee4#######   44#######ddddddd   .   ",
"  9#######O   p#######   @p#######    t#######    q#######   @e#######X   q#######    4#######    q#######    q#######    e#######    9#######    4#######    4#######      .   O   ",
"  9#######    p#######    p#######    4#######    t#######    e#######    t#######  . 9#######    t#######    t#######   .e#######    9#######    9#######  . 9#######      OX      ",
"  9#######  . p#######. O p#######    4#######    t#######    e#######.   t#######    e#######    t#######    t#######    e#######    9####### X  e#######    e#######              ",
" .e#######  . p####### O  p#######O.  4#######    4#######    e#######    4#######    u#######.   4#######    4#######    e#######    e#######    u#######    u#######             .",
". e#######  o p#######O   p#######   O4#######O   4#######    e#######  . 4####### %  u#######    4#######  O 4#######    e#######    e#######    u#######    u#######         .... ",
"  e#######    a#######    a#######   .4#######.   4#######    e#######@   4#######    u#######    4#######   X4#######@ . e#######    e#######    u#######    u#######.     . O.    ",
"  e           a           a           9  du4##    4#######.   e#######.   4#######    u#######    4#######@   4#######    e#######    e#######    u#######    u#######       O      ",
". u       X   a         . a           9           9####### .  e#######    9#######    p#######    9#######    9#######    e#######    u#######   .p#######    p#######  @        .. ",
"  u       O   a           a   f    .  9           9           e       O   9#######    p#######    9#######  . 9#######    e#######O   u#######   .p#######    p                     ",
"  ufffffff    afffffff    afffffff    9ffff ff    9           e           9#######    p#######    9#######O   9#######  X e#######    u##4ud   X  p           p             .    X  ",
" .ufffffff    afffffff@   afffffff    efffffff    9fffffff    efffffff . .9          .p#######    9#######    9#######  @ e         . u           p           pfffffff    #        .",
"  ufffffff#O  afffffff    afffffff    efffffff .  efffffff    efffffff  O e           p           e#######    e           e           u         O p   ffff    pfffffff .  #fff      ",
"  pggggggg    aggggggg o  aggggggg    eggggggg  . efffffff    efffffffO   effff       p           e           e         ..e   ffff    pfffffff    pfffffff    pfffffff    7fffffff  ",
"  pggggggg@   sggggggg    sggggggg O  uggggggg    eggggggg    eggggggg    efffffff    affff       e           e   ffff   Oefffffff  . pfffffff.   afffgggg    aggggggg    7gggffff  ",
"  phhhhhhh    shhhhhhh    shhhhhhh    uhhhhhhh %  uggggggg    eggggggg    uggggfff    afffffff.   ufffffff.   ufffffff    efffgggg   .pggggggg X  aggggggg    aggggggg   @qggggggg  ",
"  ahhhhhhh    shhhhhhh X .shhhhhhh    uhhhhhhh    uhhhhhhh    ehhhhhhh    uggggggg  O aggggfff  . ufffffff    ufffgggg    eggggggg    agggggggO   aggggggg    ahhhhhhh    qggggggg  ",
"  ajjjjjjj    sjjjjjjj    sjjjjjhh   $uhhhhjjj    uhhhhhhh .  ehhhhhhh   Ouhhhhggg   .aggggggg    uggggggg    uggggggg    eggghhhh    ahhhhhhh    ahhhhhhh  . ahhhhhhhO   thhhhhhh  ",
". ajjjjjjj    sjjjjjjj    sjjjjjjj    pjjjjjjj    pjjjjjjjeeeeejjjjjjjO   phhhhhhh   .ahhhhggg  . pggggggg.  .pggghhhheeeeehhhhhhh    ahhhhhhh  @ ahhhhhhh   @ajjjjjjjdsapuhhhhhhh. ",
".dakkkkkkk    skkkkkkk    skkkkkkk.   pjjjjkkk    pjjjjjjjjjjjjjjjjjjj    pjjjjhhh    shhhhhhh  @ phhhhhhh    phhhhhhhhhhhhhhhjjjj    ajjjjjjj.   sjjjjjjj    sjjjjjjjjjjjjjjjjjjj.d",
"  skkkkkkk    skkkkkkk    skkkkkkk    akkkkkkk    akkkkkkkkkkkkkkkkkkk    ajjjjjjj    sjjjjhhhO   ahhhhhhh    ahhhjjjjjjjjjjjjjjjj  X sjjjkjjjO   sjjjkjjj %  skkkkkkkkkkkjjjjjjjj  ",
"  skkkkkkk    dkkkkkkk    dkkkkkkk    akkkkkkk   @akkkkkkkkkkkkkkkkkkk    akkkkjjj   Xsjjjjjjj    ajjjjjjj  O ajjjjjjjjjjjjjjjkkkk    skkkkkkk .  skkkkkkk    skkkkkkkkkkkkkkkkkkk  ",
"O slllllll .O dlllllll@   dlllllll  . slllllll    slllllllllllllllllll    skkkkkkk    skkkkjjj    sjjjjjjj  O sjjjkkkkkkkkkkkkkkkk    slllllll   @slllllll    slllllllllllllllllllO ",
"  dlllllll  z dlllllll.   dlllllll   Oslllllxx .  slllllllllllllllllll    slllllllO . dkkkkkkk    skkkkkkk    skkkkkkkkkllllllllll    dlllllll   >dlllllll    dlllllllllllllllllll  ",
"  dxxxxxxx    dxxxxxxx    dxxxxxxx    dxxxxxxx    dxxxxxxxxxxxxxxxxxxx    dlllllll  O dlllllll,   dlllllll    dlllllllllllllllllllO   dxxxxxxxO   dxxxxxxx .  dxxxxxxxxxxxxxxxxxxx  ",
"  dxxxxxxx    dxxxxxxx O  dxxxxxxx    dxxxxxxx    dxxxxxxxxxxxxxxxxxxx    dxxxxxxx.   dlllllll    dlllllll    dlllllllllxxxxxxxxxx    dxxxxxxx    dxxxxxxx  . dxxxxxxxxxxxxxxxxxxx  ",
"        .O                 X    ..   .          .O      .      %     .        .    o   .    o X   .X                     .dxxxxxxx  O  O            .                               ",
" .   .    .o                           .                                 .            .                O                  dxxxxxxx         .     $.         .         .  X$  O  X  .",
"      O O                . X           .   .         X             .          O           O          O  O           . O   dxxxxxxx   .    O      X.          .X     .   o           ",
"   X     X .     2. Xo                      O.   .                                    . . X                         .     dxxxxxxx     @   .      . o       O         O    +        ",
"                 .            >                             .    .  .   O.      .  %      % ..   X     O          X c . X dxxxxxxx      .                             @             ",
" O  .       .               ########################777777qqqqqqqqttttttttttt4444444449999999eeeeeeuuuuuupppppaaaasssssddddxxxxxxx   .                   .                  .    O O",
"                       .    xxxxxxxxxxxxxxxxxxxxxxxxxxxxxxxxxxxx8888xx8888xx8888xx8888xx8888xx8888xx8888xx8888xx8888xxxxxxxxxxxxxx   o                O                    O        ",
"   ..          ..        X  xxxxxxxxxxxxxxxxxxxxxxxxxxxxxxxxxxxx&xxx&x&xx&&x&&&&&x&&&&&x&xx&&x&xx&&x&xx&&x&xxxxx&xx&&xxxxxxxxxxxxx    .   @    O   .         .                      ",
"            .            @  xxxxxxxxxxxxxxxxxxxxxxxxxxxxxxxxxxxx&xxxxx&xxx&x&x&x&x&x&x&x&xxx&x&xxx&x&xxx&x&xxxxx&xx8&xxxxxxxxxxxxx$              ;   X O X     ..  ..               ",
"                       .    xxxxxxxxxxxxxxxxxxxxxxxxxxxxxxxxxxxx&xxxxx&xxx&x&x&x&x&x&x&x&&&&&x&xxx&x&xxx&x&&&&&x&&8&xxxxxxxxxxxxxx     X.    .       .    .     .                   ",
"                        @   xxxxxxxxxxxxxxxxxxxxxxxxxxxxxxxxxxxx&xxxxx&xxx&x&x&x&x&x&x&x&xxx&x&xxx&x&xxx&x&xxxxx&xx&xxxxxxxxxxxxxx.      X       .   .       .O             X       ",
"O ..      X        .   X    xxxxxxxxxxxxxxxxxxxxxxxxxxxxxxxxxxxx8888xx8888xx&x&x&x&x&x&x&xxx&x&xxx&x8888xx8888xx&xx8xxxxxxxxxxxxxx                       O  .      .           .  O ",
"                         . @xxxxxxxxxxxxxxxxxxxxxxxxxxxxxxxxxxxxxxxxxxxxxxxxxxxxxxxxxxxxxxxxxxxxxxxxxxxxxxxxxxxxxxxxxxxxxxxxxxxxxx     ,            X        >   @      .           ",
"          @O  o                O O   .      .   .             # $          .    .  O   .    .       X      X  .    .O      O   X                       .               .            ",
"               . .             .                       .                                .               . O      .                      O @              .                          ",
"     O          v O  +.       @..  .       .      O  .         .                .      O      .    O        ...    .   @                       .      .        o .              .   ",
"                    .                   O   .       O         .                    .        o           O                      O     O.         .        .   .             .    @   ",
"               %                         X O                             O      O         .               .  ,        X           .       O   @               .          .      ..  ",
"      o    . O       >  OX . .     O                           .                                       .             OX  @ .  O                   O,          .                  X  ",
"      .    OO   v  O           .             .     .                                X.                   O                                    .    @        O         X             "};
