/* XPM */
static char * panel_icon_xpm[] = {
"64 64 10 1",
" 	c #CF3C65950000",
".	c #000000000000",
"X	c #AAAAAAAACF3C",
"o	c #EFBE9A699A69",
"O	c #AAAA45140000",
"+	c #EFBEEFBEEFBE",
"@	c #8A288A288A28",
"#	c #AAAA65950000",
"$	c #AAAA00000000",
"%	c #EFBE00000000",
"    ..XX..ooooooooX.XXXX .      X.XXo.ooX.XX .  OOOO.... .      ",
"      ..XX..oooooo.oXXXX .      . XX.Xo.X.XX.XOO....            ",
"        X.XX..oooo.oXXXX.X        ..XX.XX.XX.X..                ",
"        . X.XX..ooooX.XXXX .      O X.XXXXXX.X                  ",
"          . X.XX..oo.oXXXX.X  O OO.O..XXXXXX.X                  ",
"            . X.XX..ooX.XXXXO..O.. .  X.XXXXXX .                ",
"              . X.XX..X.XXXX.. .      . XXXXXX .                ",
"                . X.XXXXXXXX.X.. .....  X.XXXX .                ",
"                  .OX.XXXXXXXXX..XX.XX..X.XXXX .                ",
"              OOOO....X.XX......XX.XX..X..XXXX .                ",
"          OOOO....    . ..XXXXXXXXXXXXXXXXXXXX .                ",
"      OOOO....        . XXXXXXXXXXXXXXXXXXXXXX.X .              ",
"  OOOO....            X.XXXXXXXXXXXXXXXXXXXXXXXX.X              ",
"OO....              . XXXXXXXXXXXXXXXXXXXXXXXXXXXX .            ",
"..                  X.XXXXXXXXXXXXXXXXXXXXXXXXXXXX.X            ",
"                  . XXXXXXXXXXXXXXXXXXXXXXXXXXXXXX.X            ",
"                  X.XXXXXXXXXXXXXXXXXXXXXXXXXXXXXXXX .          ",
"                  X.XXXXXXXXXXXXXXXXXXXXXX.XX.XXXXXX .          ",
"                . XXXXXXXXXXXXXXXXXXXXXX..X..XXXXXXX.X          ",
"                ..XXXXXXXXXXXXXXXXXXXX.XXXXXXXX.XXXX.X          ",
"                X.X.XXXXXXXXXXXXXXXX.XX.XXXXXX.XXXXX.X          ",
"              . XX.XXXXXXXXXXXXXXXXXX.XXXXXXXXXXXXXX.X          ",
"              . XX.XXXXXXXXXXXXXXX.XXXXXX.XXXXXXXXXXXX .        ",
"              ..XXXXX.XXXXXXXXXXXX.XXX.XXXXXXXXXXXXXXX .        ",
"              ..XXXXX.XXXXXXXXXXXXX.XX..XXXXXXXXXXXXXX .        ",
"              +.X.XXX.XXXXXXXXXXXXX..X+@X.XXXXXXXXXXXX.X        ",
"              +..+XX.XXXXXXXXXXX.XXX@.++.+XXXXXXXXXXXX.X        ",
"              +.++X..XXXXXXXXXXX.XXX+.++@+X.XXXXXXXXXXXX .      ",
"              @.++.+XXX.XXXXXXXXXX.X+@++++X.XXXXXXXXXXXX .      ",
"            . .X++@+X.X.XXXXXXXXXX.X++++++.@XXXXXXXXXXXX.X      ",
"            . .X++++X.XXXXXXXXXXXX+.++++++.+XXXXXXXXXXXX.X      ",
"            . .X+@++.+XXXXXXXXXX.X+@++++++.+XXXXXXXXXXXXXX......",
"    # ##    . XX+.++@+X.XXXXXXXX.X++++++++.+XXXXXXXXXXXX.X@.++++",
"#### #      . XX@.++++X.XX.XXXXX@.++++++++.+XXXXXXXXXXXX@.++++++",
"            X.XX.X++++.@XXX.XXXX+.++++++++.+XXXXXXXXXX..++++++++",
"            X.XX.X+@++.+XXX.XX.X+@++++++++.@XXXXXXXX..+@++++++++",
"            X.XXXX..@.@+X.X.XX.X++++++++++X.XXXXXX..+@++++++++++",
"....        ..XXXX....++X..XXX..@.++++++++X.XXXX..+@++++++++++++",
"    ........++..X..X..@+X..XXX....++++++++X.XX..+@++++++++++++..",
"      ..++++..+..+.....+..........++++++@+....+@++++++........++",
"    . ++++++++.++.++.+o.oooo.o....++++.+..@.++++.+....++++++++++",
"......++++++++++.+..++.+oooo.o++......@.++++....+.++++++++++++++",
"  . ++........++++++..++o..o....++++++++....++++++++++++++++++++",
"  . ++++++++++....++++.+..+.++++++.+....++++++++++++............",
"  ..++++++++++++......+.++++++++....++++++..........++++++++++++",
"  ............+.+++++++.++++++++++.+......+@++++++++++++++++++++",
"....++++++++.+......+.+.++.+++++.+............@.++++++++++++++++",
"  +.++++++++++++++++++.+....+.++.+..$$$$.$......................",
"  +.+.++++++++++++++++.+++.+.+..+.$.$$$$$$$$.$++++++++++++++++++",
"  +.+.++++++++++++++++.+++.+++++++$.$$$$$$$$+.++++++++++++++++++",
"  . +.++++++++++++++++.+++.+++++++$..$..$.$$+.++++++++++++++++++",
"  . . .++++++++++++++++++.@++.++++$.%.%%.%..++++++++++++++++++++",
"    . .++.+++++++++++++++.+++.++++..%%%%%%+.++++++++++++++++++..",
"      ... ++++++++++++++.++++.++++%.%%%%%%+.++++++++++++++++..  ",
"      .   +.++++++++++++.+++++++++%.%%%%.%++++++++++++++++..    ",
"          . +.+++++++++++++.++++.+%%%%%%.%++++++++++++++..      ",
"            . ++++++++++++.+....%.%%%%%%+.++++++++++++..        ",
"              ....++++++++++++..%%%%%%..++++++++++.+..          ",
"                  ....++++++++++......++++++++++.+ .            ",
"                      ....+.++++++++++++++++++.. .              ",
"                          . +.++++++++++++++...+                ",
"                            . +.++++++.+....++.+                ",
"                              . ......+.++++++.+                ",
"                                  . XX+X++++++.+                "};
