/* XPM */
static char * Regular_xpm[] = {
"16 16 5 1",
" 	c None",
".	c #000000000000",
"X	c #FFFFFFFFFFFF",
"o	c #FBEE14514103",
"O	c #51445144FBEE",
"                ",
" ...........    ",
" .XXXXXXXXX..   ",
" .XXooXXXX.XX.  ",
" .XoXXXXXX.X... ",
" .XoXXOOXX..XX. ",
" .XoooXOXOXOOX. ",
" .XXXXXXXXXXXX. ",
" .XOOOOXOOOXOX. ",
" .XXXXXXXXXXXX. ",
" .XOOOOOXOOOOX. ",
" .XXXXXXXXXXXX. ",
" .XOOOOOOOOOOO. ",
" .XXXXXXXXXXXX. ",
" .............. ",
"                "};
