/* XPM */
static char * dev_xpm[] = {
"16 13 3 1",
" 	c #FFFFFFFFFFFF",
".	c #000000000000",
"X	c #FFFFFFFF0000",
"                ",
"                ",
"                ",
"   ..........   ",
" ..          .. ",
" ..          .. ",
" .............. ",
" .............. ",
" ...X..X..X..X. ",
" .............. ",
" .............. ",
" ...X..X..X.... ",
"   ..........   "};
