/* XPM */
static char * dev_xpm[] = {
"14 10 4 1",
" 	c None",
".	c #000000",
"+	c #FFFFFF",
"@	c #FFFF00",
"  ..........  ",
"..++++++++++..",
"..++++++++++..",
"..............",
"..............",
"...@..@..@..@.",
"..............",
"..............",
"...@..@..@....",
"  ..........  "};
