/* XPM */
static char * directory_xpm[] = {
"16 13 5 1",
" 	c None",
".	c #000000000000",
"X	c #FFFFFFFFFFFF",
"o	c #FFFFFFFF79E7",
"O	c #C71BC30B0000",
" .....          ",
".XXXXo.         ",
".XoooOo.........",
".XooooOXXXXXXXo.",
".XooooooooooooO.",
".XooooooooooooO.",
".XooooooooooooO.",
".XooooooooooooO.",
".XooooooooooooO.",
".XooooooooooooO.",
".XooooooooooooO.",
".oOOOOOOOOOOOOO.",
"................"};

