/* XPM */
static char * link_xpm[] = {
"16 13 2 1",
" 	c #FFFFFFFFFFFF",
".	c #000000000000",
"                ",
"  ...........   ",
"  .         .   ",
"  .   ....  .   ",
"  .    ...  .   ",
"  .   ....  .   ",
"  .  ... .  .   ",
"  . ...     .   ",
"  . ...     .   ",
"  . ..      .   ",
"  .         .   ",
"  ...........   ",
"                "};
