/* XPM */
static char * listing_custom_xpm[] = {
"24 24 42 1",
" 	c None",
".	c #000000",
"+	c #DAB7B7",
"@	c #E7D2D2",
"#	c #CC9D9D",
"$	c #C28989",
"%	c #773E3E",
"&	c #A59A7C",
"*	c #F0E3E3",
"=	c #E9D6D6",
"-	c #D0A5A5",
";	c #CA9999",
">	c #904B4B",
",	c #EEEADC",
"'	c #F1ECE0",
")	c #CCC4AF",
"!	c #E2D8B9",
"~	c #E9D4D4",
"{	c #DEC1C1",
"]	c #A75656",
"^	c #A45555",
"/	c #AA5B5B",
"(	c #EAE4D0",
"_	c #C4B893",
":	c #C0B591",
"<	c #AFA586",
"[	c #D8B5B5",
"}	c #BA7979",
"|	c #9F9679",
"1	c #BB7C7C",
"2	c #BDB18F",
"3	c #9E9377",
"4	c #8F866D",
"5	c #DAB9B9",
"6	c #9C5151",
"7	c #E5CCCC",
"8	c #D6AFAF",
"9	c #894646",
"0	c #E2C7C7",
"a	c #040404",
"b	c #0C0C0B",
"c	c #AD6262",
"                        ",
"                        ",
"                        ",
"              .....     ",
"   ...       .+@#$%.    ",
"  .&&&...   .*=---;>.   ",
"  .,'',)!. .~{]...^;/.  ",
"  .(__:<<. .[}..  .{;.  ",
"  .(_:<<|. ... . ..{1. .",
"  .(2<<34. . .. ..5;6.. ",
"   ......       .{;6.   ",
"               .7;6.    ",
"   ...        .{;%.     ",
"  .&&&...     .8;9.     ",
"  .,'',)!. .   ....     ",
"  .(__:<<. .      .  .  ",
"  .(_:<<|. .  .... . .  ",
"  .(2<<34. ....086. . ..",
"  ab.....     .cc6.     ",
"               ...      ",
"                        ",
"                        ",
"                        ",
"                        "};
