/* XPM */
static char * listing_iconic_xpm[] = {
"19 16 3 1",
" 	c None",
".	c #000000000000",
"X	c #FFFFFFFF0000",
"                   ",
"                   ",
"  ...     ...      ",
"  .X....  .X....   ",
"  .XXXX.  .XXXX.   ",
"  .XXXX.  .XXXX.   ",
"  ......  ......   ",
"                   ",
"                   ",
"  ...     ...      ",
"  .X....  .X....   ",
"  .XXXX.  .XXXX.   ",
"  .XXXX.  .XXXX.   ",
"  ......  ......   ",
"                   ",
"                   "};
