/* XPM */
static char * listing_brief_list_xpm[] = {
"19 16 3 1",
" 	c None",
".	c #000000",
"+	c #FFFF00",
"                   ",
" ...               ",
" .+...  .          ",
" .+++.  .          ",
" .....  .....  ... ",
"                   ",
" ...               ",
" .+...  .          ",
" .+++.  .          ",
" .....  .....  ... ",
"                   ",
" ...               ",
" .+...  .          ",
" .+++.  .          ",
" .....  .....  ... ",
"                   "};
