/* XPM */
static char * listing_list_xpm[] = {
"19 16 3 1",
" 	c None",
".	c #000000000000",
"X	c #FFFFFFFF0000",
"                   ",
" ...               ",
" .X...  .          ",
" .XXX.  .. .    .  ",
" .....  .....  ... ",
"                   ",
" ...               ",
" .X...      .      ",
" .XXX.  .   ..  .  ",
" .....  .......... ",
"                   ",
" ...               ",
" .X...  .   .      ",
" .XXX.  .. ..    . ",
" .....  .......... ",
"                   "};
