/* XPM */
static char * listing_custom_xpm[] = {
"19 16 4 1",
" 	c None",
".	c #000000",
"+	c #FFFF00",
"@	c #FFFFFF",
"                   ",
" ...       ...     ",
" .+...  . .@@@.    ",
" .+++.  ..@@@@@.   ",
" .....  .@@...@@.. ",
"        .@@. .@@.  ",
" ...     ..  .@@.  ",
" .+...  .   .@@.   ",
" .+++.  .  .@@.    ",
" .....  ...@@. ... ",
"           ..      ",
" ...      .@@.     ",
" .+...  . .@@.     ",
" .+++.  .  ..      ",
" .....  .....  ... ",
"                   "};
